/* XPM */
static char * close_xpm[] = {
"22 22 290 2",
"  	c None",
". 	c #B8D9F8",
"+ 	c #B8DAF8",
"@ 	c #B4D1EC",
"# 	c #B0CAE2",
"$ 	c #B2D2F0",
"% 	c #B7D9F7",
"& 	c #B6D8F7",
"* 	c #B6D7F7",
"= 	c #B6D7F6",
"- 	c #B5D7F6",
"; 	c #B5D6F6",
"> 	c #B3D5F5",
", 	c #B2D4F5",
"' 	c #B2D5F4",
") 	c #B2D4F4",
"! 	c #B1D4F4",
"~ 	c #B0D3F1",
"{ 	c #A0B2C1",
"] 	c #969DA4",
"^ 	c #8E8F8F",
"/ 	c #959595",
"( 	c #A5A5A5",
"_ 	c #9D9D9D",
": 	c #97989A",
"< 	c #9EA8B2",
"[ 	c #9FB6CB",
"} 	c #AED1F2",
"| 	c #ADD0F2",
"1 	c #ADD0F1",
"2 	c #AACEF0",
"3 	c #AACEEF",
"4 	c #AACDEF",
"5 	c #A2B8CE",
"6 	c #888A8B",
"7 	c #929292",
"8 	c #C7C7C7",
"9 	c #F4F4F4",
"0 	c #FFFFFF",
"a 	c #FDFDFD",
"b 	c #E9E9E9",
"c 	c #BFBFBF",
"d 	c #89939C",
"e 	c #9EBEDD",
"f 	c #A5CAED",
"g 	c #A5CAEC",
"h 	c #A3C8EB",
"i 	c #A2C7EA",
"j 	c #93A6B7",
"k 	c #888888",
"l 	c #A3A3A3",
"m 	c #E6E6E6",
"n 	c #F7F7F7",
"o 	c #F9F9F9",
"p 	c #FAFAFA",
"q 	c #D9D9D9",
"r 	c #A7A7A7",
"s 	c #96989A",
"t 	c #9AB6D1",
"u 	c #9DC3E7",
"v 	c #9AC1E5",
"w 	c #9BC2E6",
"x 	c #90A5B7",
"y 	c #898989",
"z 	c #AAAAAA",
"A 	c #E7E7E7",
"B 	c #EEEEEE",
"C 	c #F2F2F2",
"D 	c #F6F6F6",
"E 	c #F8F8F8",
"F 	c #F5F5F5",
"G 	c #E5E5E5",
"H 	c #ADADAD",
"I 	c #979A9C",
"J 	c #94B3D2",
"K 	c #95BDE2",
"L 	c #95BDE1",
"M 	c #92BBE0",
"N 	c #92BBE1",
"O 	c #96B6D4",
"P 	c #7D7D7D",
"Q 	c #9A9A9A",
"R 	c #D8D8D8",
"S 	c #ECECEC",
"T 	c #D2D2D2",
"U 	c #949A9F",
"V 	c #8CB5DB",
"W 	c #8DB6DD",
"X 	c #8AB5DB",
"Y 	c #8BB5DB",
"Z 	c #8B959D",
"` 	c #868686",
" .	c #BABABA",
"..	c #DCDCDC",
"+.	c #BDBDBD",
"@.	c #EDEDED",
"#.	c #E0E0E0",
"$.	c #C9C9C9",
"%.	c #EFEFEF",
"&.	c #BEBEBE",
"*.	c #869EB3",
"=.	c #85B0D8",
"-.	c #83AED6",
";.	c #88ADCF",
">.	c #949494",
",.	c #CDCDCD",
"'.	c #DFDFDF",
").	c #161616",
"!.	c #878787",
"~.	c #F3F3F3",
"{.	c #626262",
"].	c #535353",
"^.	c #EAEAEA",
"/.	c #D5D5D5",
"(.	c #B3B3B3",
"_.	c #8B9299",
":.	c #7DAAD3",
"<.	c #7BA8D2",
"[.	c #8DA2B5",
"}.	c #C0C0C0",
"|.	c #BCBCBC",
"1.	c #1A1A1A",
"2.	c #181818",
"3.	c #131313",
"4.	c #858585",
"5.	c #454545",
"6.	c #1D1D1D",
"7.	c #373737",
"8.	c #4F4F4F",
"9.	c #D7D7D7",
"0.	c #B5B5B5",
"a.	c #9B9C9C",
"b.	c #779FC3",
"c.	c #73A1CC",
"d.	c #8F9DAA",
"e.	c #9E9E9E",
"f.	c #ACACAC",
"g.	c #B8B8B8",
"h.	c #DDDDDD",
"i.	c #D4D4D4",
"j.	c #797979",
"k.	c #121212",
"l.	c #3A3A3A",
"m.	c #090909",
"n.	c #070707",
"o.	c #2B2B2B",
"p.	c #E1E1E1",
"q.	c #DEDEDE",
"r.	c #B4B4B4",
"s.	c #7E9CB9",
"t.	c #6B9BC7",
"u.	c #929CA5",
"v.	c #C1C1C1",
"w.	c #D3D3D3",
"x.	c #787878",
"y.	c #0E0E0E",
"z.	c #C2C2C2",
"A.	c #829DB6",
"B.	c #6394C2",
"C.	c #949FAA",
"D.	c #CCCCCC",
"E.	c #C3C3C3",
"F.	c #DADADA",
"G.	c #353535",
"H.	c #1B1B1B",
"I.	c #171717",
"J.	c #111111",
"K.	c #666666",
"L.	c #7E9BB6",
"M.	c #5B8EBD",
"N.	c #8E9EAE",
"O.	c #B0B0B0",
"P.	c #C8C8C8",
"Q.	c #CACACA",
"R.	c #565656",
"S.	c #242424",
"T.	c #202020",
"U.	c #7C7C7C",
"V.	c #D1D1D1",
"W.	c #CBCBCB",
"X.	c #7094B6",
"Y.	c #5387B8",
"Z.	c #7D99B3",
"`.	c #B2B2B2",
" +	c #B7B7B7",
".+	c #545454",
"++	c #2C2C2C",
"@+	c #292929",
"#+	c #2A2A2A",
"$+	c #707070",
"%+	c #191919",
"&+	c #6C6C6C",
"*+	c #C7C8C9",
"=+	c #5485B3",
"-+	c #4B81B3",
";+	c #5587B4",
">+	c #AEAEAF",
",+	c #A9A9A9",
"'+	c #313131",
")+	c #333333",
"!+	c #919191",
"~+	c #B6B6B6",
"{+	c #696969",
"]+	c #2D2D2D",
"^+	c #A8B5C1",
"/+	c #457CB0",
"(+	c #437AAE",
"_+	c #90A2B2",
":+	c #C5C5C5",
"<+	c #A1A1A1",
"[+	c #414141",
"}+	c #9C9C9C",
"|+	c #6F6F6F",
"1+	c #3E3E3E",
"2+	c #668DB1",
"3+	c #3D76AA",
"4+	c #3B74A9",
"5+	c #4D7EAD",
"6+	c #B9BBBC",
"7+	c #E3E3E3",
"8+	c #CECECE",
"9+	c #E4E4E4",
"0+	c #AFBECB",
"a+	c #3670A6",
"b+	c #356FA5",
"c+	c #336EA4",
"d+	c #336DA3",
"e+	c #336DA4",
"f+	c #6188AC",
"g+	c #C8C8C9",
"h+	c #E2E2E2",
"i+	c #CBD4DB",
"j+	c #3A70A3",
"k+	c #2E69A1",
"l+	c #2D69A1",
"m+	c #2B679F",
"n+	c #2A679F",
"o+	c #5F86AB",
"p+	c #CCCED0",
"q+	c #E8E8E8",
"r+	c #C6D1DB",
"s+	c #3B70A1",
"t+	c #25639C",
"u+	c #25629B",
"v+	c #25629C",
"w+	c #23609A",
"x+	c #22609A",
"y+	c #236099",
"z+	c #226099",
"A+	c #4073A2",
"B+	c #B7C2CC",
"C+	c #E5E6E7",
"D+	c #7F9FBE",
"E+	c #205E97",
"F+	c #1F5D96",
"G+	c #1D5C96",
"H+	c #1E5C97",
"I+	c #1B5A95",
"J+	c #1B5A94",
"K+	c #1A5A94",
"L+	c #1A5994",
"M+	c #1A5993",
"N+	c #4C79A5",
"O+	c #8BA5BE",
"P+	c #C1CDD9",
"Q+	c #DCE0E4",
"R+	c #D3DAE0",
"S+	c #BBC9D7",
"T+	c #789ABB",
"U+	c #2E679B",
"V+	c #175692",
"W+	c #175691",
"X+	c #165792",
"Y+	c #165691",
"Z+	c #155692",
"`+	c #135490",
" @	c #135390",
".@	c #125390",
"+@	c #12528F",
"@@	c #12538F",
"#@	c #12528E",
"$@	c #11528F",
"%@	c #11528E",
"&@	c #10518E",
"*@	c #10518D",
"=@	c #0F518D",
"-@	c #0F508D",
";@	c #0E4F8C",
">@	c #0E508C",
",@	c #0D4F8C",
". . . . . + . . . . @ # $ % & & & * = - - ; ",
"> , ' ) ! ! ~ { ] ^ / ( _ : < [ } } } | 1 1 ",
"2 3 3 4 4 5 6 7 8 9 0 0 a b c _ d e f g g g ",
"h i i i j k l m n o o p p o o q r s t u u u ",
"v w v x y z A B C 9 D E E n F C G H I J K L ",
"M N O P Q R m S C D o p p o D C S T z U V W ",
"X Y Z `  ...m m +.@.n n n #.$.C %.G &.( *.=.",
"-.;.y >.,...'.y ).!.A ~.q {.].c ^.^./.(._.:.",
"<.[.>.l }.'.|.1.2.3.4.T 5.6.7.8.9.A '.0.a.b.",
"c.d.e.f.g.h.i.j.1.2.k.l.m.n.o.f.'.p.q.r.z s.",
"t.u.r 0.v.$...w.x.1.2.3.y.2.l h.'.h.,.z.0.A.",
"B.C.H }.D.E.F...z.G.H.I.J.K.T q...F.E.,.c L.",
"M.N.O.P.w.Q.E.r.R.S.T.1.I.k.U.V.D.E.W.i.P.X.",
"Y.Z.`.W.F.T  +.+++@+#+$+%+).J.&+&.D.w...*+=+",
"-+;+>+Q.'.F.,+G.'+)+!+~+{+2.).]+c /...#.^+/+",
"(+(+_+:+'.#.q <+[+}+$.D.v.|+1+~+R q.#.p.2+3+",
"4+4+5+6+R 7+p.h.$.R R 9.9.8+8 h.'.p.9+0+a+b+",
"c+d+e+f+g+G 9+7+p.#.'.'.'.#.#.h+7+G i+j+k+l+",
"m+m+n+n+o+p+q+m G 9+7+7+7+7+9+G A r+s+t+u+v+",
"w+x+y+x+z+A+B+^.b q+A A A A q+C+D+E+F+G+G+H+",
"I+J+J+K+L+L+M+N+O+P+Q+b R+S+T+U+V+W+X+Y+Y+Z+",
"`+ @ @.@+@@@#@$@%@%@%@&@&@*@=@*@-@-@;@>@;@,@"};
