/* XPM */
static char * closep_xpm[] = {
"22 22 300 2",
"  	c None",
". 	c #B8D9F8",
"+ 	c #B8DAF8",
"@ 	c #B4D1EC",
"# 	c #B0CAE2",
"$ 	c #B2D2F0",
"% 	c #B7D9F7",
"& 	c #B6D8F7",
"* 	c #B6D7F7",
"= 	c #B6D7F6",
"- 	c #B5D7F6",
"; 	c #B5D6F6",
"> 	c #B3D5F5",
", 	c #B2D4F5",
"' 	c #B2D5F4",
") 	c #B2D4F4",
"! 	c #B1D4F4",
"~ 	c #B0D3F1",
"{ 	c #A0B2C1",
"] 	c #969DA4",
"^ 	c #8E8F8F",
"/ 	c #959595",
"( 	c #A5A5A5",
"_ 	c #9D9D9D",
": 	c #97989A",
"< 	c #9EA8B2",
"[ 	c #9FB6CB",
"} 	c #AED1F2",
"| 	c #ADD0F2",
"1 	c #ADD0F1",
"2 	c #AACEF0",
"3 	c #AACEEF",
"4 	c #AACDEF",
"5 	c #A2B8CE",
"6 	c #888A8B",
"7 	c #929292",
"8 	c #C7C7C7",
"9 	c #F4F4F4",
"0 	c #FFFFFF",
"a 	c #FDFDFD",
"b 	c #E9E9E9",
"c 	c #BFBFBF",
"d 	c #89939C",
"e 	c #9EBEDD",
"f 	c #A5CAED",
"g 	c #A5CAEC",
"h 	c #A3C8EB",
"i 	c #A2C7EA",
"j 	c #93A6B7",
"k 	c #888888",
"l 	c #A3A3A3",
"m 	c #E6E6E6",
"n 	c #F7F7F7",
"o 	c #F9F9F9",
"p 	c #FAFAFA",
"q 	c #D9D9D9",
"r 	c #A7A7A7",
"s 	c #96989A",
"t 	c #9AB6D1",
"u 	c #9DC3E7",
"v 	c #9AC1E5",
"w 	c #9BC2E6",
"x 	c #90A5B7",
"y 	c #898989",
"z 	c #AAAAAA",
"A 	c #E7E7E7",
"B 	c #EEEEEE",
"C 	c #F2F2F2",
"D 	c #F6F6F6",
"E 	c #F8F8F8",
"F 	c #F5F5F5",
"G 	c #E5E5E5",
"H 	c #ADADAD",
"I 	c #979A9C",
"J 	c #94B3D2",
"K 	c #95BDE2",
"L 	c #95BDE1",
"M 	c #92BBE0",
"N 	c #92BBE1",
"O 	c #96B6D4",
"P 	c #7D7D7D",
"Q 	c #9A9A9A",
"R 	c #D8D8D8",
"S 	c #ECECEC",
"T 	c #D2D2D2",
"U 	c #949A9F",
"V 	c #8CB5DB",
"W 	c #8DB6DD",
"X 	c #8AB5DB",
"Y 	c #8BB5DB",
"Z 	c #8B959D",
"` 	c #868686",
" .	c #BABABA",
"..	c #DCDCDC",
"+.	c #D6C0C0",
"@.	c #EDEDED",
"#.	c #E0E0E0",
"$.	c #D9C2C2",
"%.	c #EFEFEF",
"&.	c #BEBEBE",
"*.	c #869EB3",
"=.	c #85B0D8",
"-.	c #83AED6",
";.	c #88ADCF",
">.	c #949494",
",.	c #CDCDCD",
"'.	c #DFDFDF",
").	c #CC8E8E",
"!.	c #D22828",
"~.	c #CD9090",
"{.	c #F3F3F3",
"].	c #DDD9D9",
"^.	c #CD5B5B",
"/.	c #D23636",
"(.	c #D1B7B7",
"_.	c #EAEAEA",
":.	c #D5D5D5",
"<.	c #B3B3B3",
"[.	c #8B9299",
"}.	c #7DAAD3",
"|.	c #7BA8D2",
"1.	c #8DA2B5",
"2.	c #C0C0C0",
"3.	c #CABCBC",
"4.	c #D22525",
"5.	c #EF2929",
"6.	c #DB2727",
"7.	c #CB8D8D",
"8.	c #D6D2D2",
"9.	c #CD5A5A",
"0.	c #E62727",
"a.	c #ED2929",
"b.	c #CC3232",
"c.	c #D7D6D6",
"d.	c #B5B5B5",
"e.	c #9B9C9C",
"f.	c #779FC3",
"g.	c #73A1CC",
"h.	c #8F9DAA",
"i.	c #9E9E9E",
"j.	c #ACACAC",
"k.	c #B8B8B8",
"l.	c #DDDDDD",
"m.	c #D4D4D4",
"n.	c #C67D7D",
"o.	c #DE2626",
"p.	c #DA2626",
"q.	c #CD4C4C",
"r.	c #D33232",
"s.	c #C9A9A9",
"t.	c #E1E1E1",
"u.	c #DEDEDE",
"v.	c #B4B4B4",
"w.	c #7E9CB9",
"x.	c #6B9BC7",
"y.	c #929CA5",
"z.	c #C1C1C1",
"A.	c #C9C9C9",
"B.	c #D3D3D3",
"C.	c #C57C7C",
"D.	c #DF2626",
"E.	c #EE2929",
"F.	c #D23131",
"G.	c #C6A8A8",
"H.	c #C2C2C2",
"I.	c #829DB6",
"J.	c #6394C2",
"K.	c #949FAA",
"L.	c #CCCCCC",
"M.	c #C3C3C3",
"N.	c #DADADA",
"O.	c #C4C2C2",
"P.	c #CE3C3C",
"Q.	c #E72828",
"R.	c #C57272",
"S.	c #7E9BB6",
"T.	c #5B8EBD",
"U.	c #8E9EAE",
"V.	c #B0B0B0",
"W.	c #C8C8C8",
"X.	c #CACACA",
"Y.	c #B8B4B4",
"Z.	c #C75555",
"`.	c #E92828",
" +	c #C38585",
".+	c #D1D1D1",
"++	c #CBCBCB",
"@+	c #7094B6",
"#+	c #5387B8",
"$+	c #7D99B3",
"%+	c #B2B2B2",
"&+	c #BAB7B7",
"*+	c #C14F4F",
"=+	c #D32E2E",
"-+	c #C27373",
";+	c #B37575",
">+	c #C7C8C9",
",+	c #5485B3",
"'+	c #4B81B3",
")+	c #5587B4",
"!+	c #AEAEAF",
"~+	c #BEA8A8",
"{+	c #D02E2E",
"]+	c #EC2828",
"^+	c #D13030",
"/+	c #B09191",
"(+	c #B6B6B6",
"_+	c #B76C6C",
":+	c #EA2828",
"<+	c #C63E3E",
"[+	c #A8B5C1",
"}+	c #457CB0",
"|+	c #437AAE",
"1+	c #90A2B2",
"2+	c #C5C5C5",
"3+	c #BEA0A0",
"4+	c #C93A3A",
"5+	c #BA9B9B",
"6+	c #BC7272",
"7+	c #C74747",
"8+	c #BEB7B7",
"9+	c #668DB1",
"0+	c #3D76AA",
"a+	c #3B74A9",
"b+	c #4D7EAD",
"c+	c #B9BBBC",
"d+	c #E3E3E3",
"e+	c #CBC9C9",
"f+	c #D7D7D7",
"g+	c #CECECE",
"h+	c #C9C7C7",
"i+	c #E4E4E4",
"j+	c #AFBECB",
"k+	c #3670A6",
"l+	c #356FA5",
"m+	c #336EA4",
"n+	c #336DA3",
"o+	c #336DA4",
"p+	c #6188AC",
"q+	c #C8C8C9",
"r+	c #E2E2E2",
"s+	c #CBD4DB",
"t+	c #3A70A3",
"u+	c #2E69A1",
"v+	c #2D69A1",
"w+	c #2B679F",
"x+	c #2A679F",
"y+	c #5F86AB",
"z+	c #CCCED0",
"A+	c #E8E8E8",
"B+	c #C6D1DB",
"C+	c #3B70A1",
"D+	c #25639C",
"E+	c #25629B",
"F+	c #25629C",
"G+	c #23609A",
"H+	c #22609A",
"I+	c #236099",
"J+	c #226099",
"K+	c #4073A2",
"L+	c #B7C2CC",
"M+	c #E5E6E7",
"N+	c #7F9FBE",
"O+	c #205E97",
"P+	c #1F5D96",
"Q+	c #1D5C96",
"R+	c #1E5C97",
"S+	c #1B5A95",
"T+	c #1B5A94",
"U+	c #1A5A94",
"V+	c #1A5994",
"W+	c #1A5993",
"X+	c #4C79A5",
"Y+	c #8BA5BE",
"Z+	c #C1CDD9",
"`+	c #DCE0E4",
" @	c #D3DAE0",
".@	c #BBC9D7",
"+@	c #789ABB",
"@@	c #2E679B",
"#@	c #175692",
"$@	c #175691",
"%@	c #165792",
"&@	c #165691",
"*@	c #155692",
"=@	c #135490",
"-@	c #135390",
";@	c #125390",
">@	c #12528F",
",@	c #12538F",
"'@	c #12528E",
")@	c #11528F",
"!@	c #11528E",
"~@	c #10518E",
"{@	c #10518D",
"]@	c #0F518D",
"^@	c #0F508D",
"/@	c #0E4F8C",
"(@	c #0E508C",
"_@	c #0D4F8C",
". . . . . + . . . . @ # $ % & & & * = - - ; ",
"> , ' ) ! ! ~ { ] ^ / ( _ : < [ } } } | 1 1 ",
"2 3 3 4 4 5 6 7 8 9 0 0 a b c _ d e f g g g ",
"h i i i j k l m n o o p p o o q r s t u u u ",
"v w v x y z A B C 9 D E E n F C G H I J K L ",
"M N O P Q R m S C D o p p o D C S T z U V W ",
"X Y Z `  ...m m +.@.n n n #.$.C %.G &.( *.=.",
"-.;.y >.,...'.).!.~.A {.].^./.(._._.:.<.[.}.",
"|.1.>.l 2.'.3.4.5.6.7.8.9.0.a.b.c.A '.d.e.f.",
"g.h.i.j.k.l.m.n.o.5.p.q.0.a.r.s.'.t.u.v.z w.",
"x.y.r d.z.A...B.C.D.5.5.E.F.G.l.'.l.,.H.d.I.",
"J.K.H 2.L.M.N...O.P.5.5.Q.R.T u...N.M.,.c S.",
"T.U.V.W.B.X.M.Y.Z.0.E.`.5.6. +.+L.M.++m.W.@+",
"#+$+%+++N.T &+*+0.a.=+-+o.5.6.;+&.L.B...>+,+",
"'+)+!+X.'.N.~+{+]+^+/+(+_+o.:+<+2.:...#.[+}+",
"|+|+1+2+'.#.q 3+4+5+A.L.z.6+7+8+R u.#.t.9+0+",
"a+a+b+c+R d+t.l.e+R R f+f+g+h+l.'.t.i+j+k+l+",
"m+n+o+p+q+G i+d+t.#.'.'.'.#.#.r+d+G s+t+u+v+",
"w+w+x+x+y+z+A+m G i+d+d+d+d+i+G A B+C+D+E+F+",
"G+H+I+H+J+K+L+_.b A+A A A A A+M+N+O+P+Q+Q+R+",
"S+T+T+U+V+V+W+X+Y+Z+`+b  @.@+@@@#@$@%@&@&@*@",
"=@-@-@;@>@,@'@)@!@!@!@~@~@{@]@{@^@^@/@(@/@_@"};
