/* XPM */
static char * closeun_xpm[] = {
"22 22 332 2",
"  	c None",
". 	c #FFFFFE",
"+ 	c #FEFFFE",
"@ 	c #FEFFFF",
"# 	c #FFFEFF",
"$ 	c #FFFFFF",
"% 	c #FEFEFF",
"& 	c #F1F1F1",
"* 	c #E4E4E4",
"= 	c #F6F6F6",
"- 	c #F7F9F9",
"; 	c #F8F8F9",
"> 	c #F7F8F9",
", 	c #F6F7F7",
"' 	c #BABABA",
") 	c #909192",
"! 	c #737374",
"~ 	c #797979",
"{ 	c #898989",
"] 	c #818181",
"^ 	c #808080",
"/ 	c #A3A4A4",
"( 	c #CACACB",
"_ 	c #F9F9FA",
": 	c #F8FAFA",
"< 	c #F9FAFB",
"[ 	c #FAF9FA",
"} 	c #F0F2F3",
"| 	c #F1F2F3",
"1 	c #F1F3F4",
"2 	c #F2F3F4",
"3 	c #C8C8C9",
"4 	c #6A6A6A",
"5 	c #6E6F6E",
"6 	c #A3A3A4",
"7 	c #D1D1D1",
"8 	c #DBDCDC",
"9 	c #DCDCDC",
"0 	c #DAD9D9",
"a 	c #C6C6C6",
"b 	c #9B9C9C",
"c 	c #7A7A7A",
"d 	c #898A8A",
"e 	c #E1E1E2",
"f 	c #F2F4F5",
"g 	c #F2F3F5",
"h 	c #F3F3F4",
"i 	c #EAECEE",
"j 	c #EBECEE",
"k 	c #EAEDEE",
"l 	c #A9AAAB",
"m 	c #5D5D5E",
"n 	c #787878",
"o 	c #BBBBBC",
"p 	c #CCCCCD",
"q 	c #CECECF",
"r 	c #CECFCE",
"s 	c #D0CFCF",
"t 	c #CFCFCF",
"u 	c #CECFCF",
"v 	c #AFAEAE",
"w 	c #7C7C7D",
"x 	c #737373",
"y 	c #CDCFD0",
"z 	c #EBEDF0",
"A 	c #ECEDEF",
"B 	c #EBEEEF",
"C 	c #E3E6E9",
"D 	c #E4E6E9",
"E 	c #A6A7A8",
"F 	c #575757",
"G 	c #B5B5B5",
"H 	c #BCBCBC",
"I 	c #C1C0C0",
"J 	c #C3C3C3",
"K 	c #C4C5C4",
"L 	c #C7C7C6",
"M 	c #C7C6C6",
"N 	c #C5C5C5",
"O 	c #C3C3C4",
"P 	c #C1C1C1",
"Q 	c #B3B4B4",
"R 	c #7B7B7C",
"S 	c #6E6E70",
"T 	c #CED0D2",
"U 	c #E5E7EA",
"V 	c #E5E8EA",
"W 	c #DDE0E3",
"X 	c #CBCDCF",
"Y 	c #444344",
"Z 	c #616161",
"` 	c #9F9F9F",
" .	c #ADADAD",
"..	c #B3B3B4",
"+.	c #B9B9BA",
"@.	c #BDBDBE",
"#.	c #C0C0C1",
"$.	c #C1C1C2",
"%.	c #C1C0C1",
"&.	c #BDBEBE",
"*.	c #B4B3B4",
"=.	c #99999A",
"-.	c #717272",
";.	c #727474",
">.	c #DCDFE1",
",.	c #DEE1E5",
"'.	c #D6D9DD",
").	c #D6DADD",
"!.	c #727374",
"~.	c #454647",
"{.	c #7A797A",
"].	c #9C9B9D",
"^.	c #A6A6A6",
"/.	c #A6A6A7",
"(.	c #7D7C7E",
"_.	c #B7B7B7",
":.	c #B7B7B8",
"<.	c #A0A0A0",
"[.	c #89898A",
"}.	c #B2B3B2",
"|.	c #B0AFB0",
"1.	c #A6A5A6",
"2.	c #7E7E7F",
"3.	c #666666",
"4.	c #A0A3A5",
"5.	c #D7DBDF",
"6.	c #CFD4D8",
"7.	c #C2C6CA",
"8.	c #414242",
"9.	c #4C4C4D",
"0.	c #868586",
"a.	c #959595",
"b.	c #989898",
"c.	c #424242",
"d.	c #000000",
"e.	c #3F3F41",
"f.	c #A0A0A1",
"g.	c #ACACAD",
"h.	c #929293",
"i.	c #1B1B1C",
"j.	c #0C0C0D",
"k.	c #787879",
"l.	c #A4A3A4",
"m.	c #8E8E8F",
"n.	c #6D6D6D",
"o.	c #666868",
"p.	c #D1D5D9",
"q.	c #C9CED2",
"r.	c #95979A",
"s.	c #464546",
"t.	c #545455",
"u.	c #727172",
"v.	c #919191",
"w.	c #6E6D6E",
"x.	c #373738",
"y.	c #848484",
"z.	c #010102",
"A.	c #9A999A",
"B.	c #929192",
"C.	c #686868",
"D.	c #4E4E4F",
"E.	c #BBBFC3",
"F.	c #C2C8CD",
"G.	c #77797B",
"H.	c #494849",
"I.	c #575657",
"J.	c #636263",
"K.	c #888788",
"L.	c #7E7F80",
"M.	c #232324",
"N.	c #575758",
"O.	c #8A8A8B",
"P.	c #8C8C8D",
"Q.	c #5F5F60",
"R.	c #565656",
"S.	c #A4A7AC",
"T.	c #BBC1C8",
"U.	c #66676A",
"V.	c #4B4A4B",
"W.	c #585859",
"X.	c #646565",
"Y.	c #6D6C6D",
"Z.	c #7F7F80",
"`.	c #777677",
" +	c #1B1B1D",
".+	c #474648",
"++	c #818182",
"@+	c #838383",
"#+	c #717172",
"$+	c #666667",
"%+	c #59595A",
"&+	c #979B9E",
"*+	c #B4BCC2",
"=+	c #67696B",
"-+	c #49494A",
";+	c #5C5C5D",
">+	c #686869",
",+	c #605F60",
"'+	c #777777",
")+	c #5E5E5F",
"!+	c #020303",
"~+	c #6E6F70",
"{+	c #7B7A7C",
"]+	c #777778",
"^+	c #606060",
"/+	c #696A6B",
"(+	c #AEB6BD",
"_+	c #727476",
":+	c #454546",
"<+	c #696869",
"[+	c #59585A",
"}+	c #121213",
"|+	c #676668",
"1+	c #616262",
"2+	c #9AA0A5",
"3+	c #A7B0B7",
"4+	c #878C91",
"5+	c #404040",
"6+	c #606061",
"7+	c #4C4C4E",
"8+	c #5B5A5B",
"9+	c #626163",
"0+	c #6A6A6C",
"a+	c #5B5C5D",
"b+	c #A2A9B1",
"c+	c #A1A9B2",
"d+	c #9EA5AD",
"e+	c #363637",
"f+	c #515052",
"g+	c #656667",
"h+	c #616162",
"i+	c #302F31",
"j+	c #181919",
"k+	c #3E3D3E",
"l+	c #474748",
"m+	c #5C5C5E",
"n+	c #636364",
"o+	c #757779",
"p+	c #A2AAB3",
"q+	c #99A3AC",
"r+	c #696D71",
"s+	c #454545",
"t+	c #5F5F5F",
"u+	c #5F6061",
"v+	c #212122",
"w+	c #1C1C1D",
"x+	c #4D4C4D",
"y+	c #373637",
"z+	c #616163",
"A+	c #8E969C",
"B+	c #9BA5AE",
"C+	c #939DA7",
"D+	c #919AA3",
"E+	c #3A3B3C",
"F+	c #505152",
"G+	c #5B5B5D",
"H+	c #595A5B",
"I+	c #565657",
"J+	c #424243",
"K+	c #515152",
"L+	c #505051",
"M+	c #484749",
"N+	c #404041",
"O+	c #595859",
"P+	c #5E5D5E",
"Q+	c #75777B",
"R+	c #949EA8",
"S+	c #959FA9",
"T+	c #8C97A2",
"U+	c #8C97A1",
"V+	c #818990",
"W+	c #3C3E3E",
"X+	c #555557",
"Y+	c #545556",
"Z+	c #535354",
"`+	c #515253",
" @	c #525253",
".@	c #555455",
"+@	c #555556",
"@@	c #6F7173",
"#@	c #8B959E",
"$@	c #8D99A3",
"%@	c #8E98A2",
"&@	c #86919C",
"*@	c #85919C",
"=@	c #7C838B",
"-@	c #454547",
";@	c #504F50",
">@	c #4E4F50",
",@	c #4E4E50",
"'@	c #4F4F50",
")@	c #525254",
"!@	c #6E7173",
"~@	c #858F99",
"{@	c #87929D",
"]@	c #7E8B97",
"^@	c #7F8B96",
"/@	c #7F8B97",
"(@	c #7F8C97",
"_@	c #7C868F",
":@	c #585B5D",
"<@	c #4D4E4F",
"[@	c #4C4D4E",
"}@	c #4B4B4D",
"|@	c #4B4A4C",
"1@	c #4B4B4C",
"2@	c #4B4A4D",
"3@	c #4C4B4E",
"4@	c #80878E",
"5@	c #7E8B95",
"6@	c #808C97",
"7@	c #808C98",
"8@	c #808D98",
"9@	c #788591",
"0@	c #77818B",
"a@	c #6F767B",
"b@	c #65676B",
"c@	c #535356",
"d@	c #464748",
"e@	c #57585B",
"f@	c #696B70",
"g@	c #7D848A",
"h@	c #7A8590",
"i@	c #798692",
"j@	c #7A8692",
"k@	c #7A8792",
"l@	c #717F8C",
"m@	c #717F8B",
"n@	c #727F8C",
"o@	c #72808C",
"p@	c #72808D",
"q@	c #73808D",
". + @ . # $ % $ $ # & * = $ $ $ $ $ $ $ $ $ ",
"- ; ; > ; ; , ' ) ! ~ { ] ^ / ( _ _ : _ < [ ",
"} | | 1 2 3 4 5 6 7 8 9 0 a b c d e f f g h ",
"i i j k l m n o p q r s t u r v w x y z A B ",
"C D D E F n G H I J K L M N O P Q R S T U V ",
"W W X Y Z `  ...+.@.#.$.$.%.&.+.*.=.-.;.>.,.",
"'.).!.~.{.].^./.(. ._._.:.<.[.}.|.1.2.3.4.5.",
"6.7.8.9.0.a.b.c.d.e.f.g.h.i.j.k.6 l.m.n.o.p.",
"q.r.s.t.u.v.w.d.d.d.x.y.d.d.d.z.[.A.B.C.D.E.",
"F.G.H.I.J.K.L.M.d.d.d.d.d.d.d.N.O.P.d Q.R.S.",
"T.U.V.W.X.Y.Z.`. +d.d.d.d.d..+++@+++#+$+%+&+",
"*+=+-+;+>+,+'+k.)+d.d.d.d.!+~+{+k.]+^+/+;+&+",
"(+_+:+m <+Q.[+-+d.d.d.d.d.d.}+|+1+%+Z 4 )+2+",
"3+4+5+%+>+6+:+d.d.d.d.d.d.d.d.d.7+8+9+0+a+b+",
"c+d+e+f+g+h+i+d.d.d.j+k+d.d.d.d.l+m+n+>+o+p+",
"q+q+r+s+t+u+[+v+d.w+-+x+8.d.d.y+[+)+h+z+A+B+",
"C+C+D+E+F+G+H+I+J+K+K+L+L+M+N+I+O+8+P+Q+R+S+",
"T+U+U+V+W+I.X+Y+Z+`+K+K+K+ @ @.@+@N.@@#@$@%@",
"&@*@*@&@=@-@ @L+;@>@D.D.,@D.'@L+)@!@~@{@{@{@",
"]@^@/@(@/@_@:@<@[@}@|@1@|@2@3@F+4@5@6@7@8@7@",
"9@9@9@9@9@9@9@0@a@b@c@d@e@f@g@h@i@j@i@k@i@j@",
"l@l@m@l@l@n@l@n@n@n@n@o@o@o@o@o@o@p@q@p@o@o@"};
