/* XPM */
static char * hi_xpm[] = {
"32 22 338 2",
"  	c None",
". 	c #B8D9F8",
"+ 	c #B8DAF8",
"@ 	c #B7D9F8",
"# 	c #B8D9F7",
"$ 	c #B7D9F7",
"% 	c #B6D8F7",
"& 	c #B6D7F7",
"* 	c #B6D7F6",
"= 	c #B5D7F6",
"- 	c #B5D6F6",
"; 	c #B3D5F5",
"> 	c #B2D4F5",
", 	c #B2D5F4",
"' 	c #B2D4F4",
") 	c #B1D4F4",
"! 	c #B1D4F3",
"~ 	c #B0D4F3",
"{ 	c #B0D3F4",
"] 	c #B0D2F4",
"^ 	c #B0D2F3",
"/ 	c #B0D3F3",
"( 	c #AFD3F3",
"_ 	c #AFD2F3",
": 	c #B0D2F2",
"< 	c #AFD2F2",
"[ 	c #AFD1F2",
"} 	c #AED2F2",
"| 	c #AED1F2",
"1 	c #ADD0F2",
"2 	c #ADD0F1",
"3 	c #AACEF0",
"4 	c #AACEEF",
"5 	c #AACDEF",
"6 	c #A9CDEF",
"7 	c #A9CCEF",
"8 	c #A9CDEE",
"9 	c #A8CDEE",
"0 	c #A7CCEE",
"a 	c #A7CCED",
"b 	c #A8CCED",
"c 	c #A7CBED",
"d 	c #A6CBED",
"e 	c #A6CAEC",
"f 	c #A5CAED",
"g 	c #A5CAEC",
"h 	c #A3C8EB",
"i 	c #A2C7EA",
"j 	c #A1C7EA",
"k 	c #A0C6E9",
"l 	c #9FC6E9",
"m 	c #9FC5E9",
"n 	c #A0C5E8",
"o 	c #9FC5E8",
"p 	c #9EC5E8",
"q 	c #9EC4E8",
"r 	c #9DC3E7",
"s 	c #9AC1E5",
"t 	c #9BC2E6",
"u 	c #9BC1E5",
"v 	c #99C1E5",
"w 	c #9AC0E5",
"x 	c #99C0E4",
"y 	c #98BFE4",
"z 	c #98BFE3",
"A 	c #97BEE3",
"B 	c #96BEE3",
"C 	c #96BEE2",
"D 	c #96BDE3",
"E 	c #95BDE2",
"F 	c #95BDE1",
"G 	c #92BBE0",
"H 	c #92BBE1",
"I 	c #92BAE0",
"J 	c #91BAE0",
"K 	c #92BADF",
"L 	c #91B9DF",
"M 	c #91BADF",
"N 	c #90B9DF",
"O 	c #90B8DF",
"P 	c #8FB8DF",
"Q 	c #8FB9DF",
"R 	c #8FB8DE",
"S 	c #8EB7DE",
"T 	c #8EB7DD",
"U 	c #8DB7DD",
"V 	c #8DB6DD",
"W 	c #8AB5DB",
"X 	c #8BB5DB",
"Y 	c #8AB4DB",
"Z 	c #8AB4DA",
"` 	c #89B3DB",
" .	c #89B3DA",
"..	c #89B2DA",
"+.	c #88B3DA",
"@.	c #88B2D9",
"#.	c #87B2DA",
"$.	c #87B2D9",
"%.	c #87B1D8",
"&.	c #86B1D8",
"*.	c #85B1D8",
"=.	c #85B0D8",
"-.	c #83AED6",
";.	c #82AED6",
">.	c #82ADD5",
",.	c #82ADD6",
"'.	c #82ACD5",
").	c #81ADD5",
"!.	c #81ACD5",
"~.	c #80ACD5",
"{.	c #7FABD4",
"].	c #7FAAD3",
"^.	c #7EABD4",
"/.	c #7EAAD4",
"(.	c #7EAAD3",
"_.	c #7EA9D3",
":.	c #7DAAD3",
"<.	c #7BA8D2",
"[.	c #7BA8D1",
"}.	c #7AA7D1",
"|.	c #7AA7D0",
"1.	c #7AA6D0",
"2.	c #79A6D0",
"3.	c #78A6D0",
"4.	c #79A6CF",
"5.	c #78A6CF",
"6.	c #78A5D0",
"7.	c #77A5D0",
"8.	c #77A4CF",
"9.	c #77A4CE",
"0.	c #76A3CE",
"a.	c #75A3CD",
"b.	c #73A1CC",
"c.	c #72A1CC",
"d.	c #73A0CC",
"e.	c #72A0CB",
"f.	c #71A0CB",
"g.	c #719FCB",
"h.	c #709FCB",
"i.	c #709FCA",
"j.	c #709ECB",
"k.	c #709ECA",
"l.	c #6F9FCA",
"m.	c #6F9ECA",
"n.	c #6E9ECA",
"o.	c #6E9DCA",
"p.	c #6E9DC9",
"q.	c #6D9DC9",
"r.	c #6E9CC9",
"s.	c #6B9BC7",
"t.	c #6A9AC7",
"u.	c #6A9AC6",
"v.	c #699AC7",
"w.	c #6999C6",
"x.	c #6898C6",
"y.	c #6798C6",
"z.	c #6798C5",
"A.	c #6799C5",
"B.	c #6898C5",
"C.	c #6897C5",
"D.	c #6797C4",
"E.	c #6697C5",
"F.	c #6697C4",
"G.	c #6696C4",
"H.	c #6596C4",
"I.	c #6394C2",
"J.	c #6393C2",
"K.	c #6294C2",
"L.	c #6294C1",
"M.	c #6193C1",
"N.	c #6192C1",
"O.	c #6193C0",
"P.	c #6092C1",
"Q.	c #6192C0",
"R.	c #6092C0",
"S.	c #6091C0",
"T.	c #5F91C0",
"U.	c #5E91BF",
"V.	c #5E90BF",
"W.	c #5F91BF",
"X.	c #5D90BF",
"Y.	c #5E8FBF",
"Z.	c #5D8FBE",
"`.	c #5B8EBD",
" +	c #5A8EBD",
".+	c #5B8DBD",
"++	c #5A8DBD",
"@+	c #598DBD",
"#+	c #598DBC",
"$+	c #598CBC",
"%+	c #588CBB",
"&+	c #588BBB",
"*+	c #588CBC",
"=+	c #578BBB",
"-+	c #578ABB",
";+	c #578ABA",
">+	c #568ABA",
",+	c #5689BA",
"'+	c #5589BA",
")+	c #5387B8",
"!+	c #5287B8",
"~+	c #5286B8",
"{+	c #5286B7",
"]+	c #5186B8",
"^+	c #5186B7",
"/+	c #5285B6",
"(+	c #5185B6",
"_+	c #5085B7",
":+	c #5085B6",
"<+	c #5084B6",
"[+	c #4F84B6",
"}+	c #4F84B5",
"|+	c #4E83B5",
"1+	c #4D82B5",
"2+	c #4B81B3",
"3+	c #4A81B3",
"4+	c #4A80B3",
"5+	c #4A80B2",
"6+	c #4980B2",
"7+	c #497FB2",
"8+	c #487EB1",
"9+	c #487FB1",
"0+	c #477EB0",
"a+	c #477DB0",
"b+	c #467EB0",
"c+	c #467DB0",
"d+	c #467CAF",
"e+	c #457CB0",
"f+	c #437AAE",
"g+	c #437AAD",
"h+	c #4279AD",
"i+	c #417AAD",
"j+	c #4179AD",
"k+	c #4178AC",
"l+	c #4178AD",
"m+	c #4078AC",
"n+	c #3F77AC",
"o+	c #3F77AB",
"p+	c #3E77AB",
"q+	c #3E76AB",
"r+	c #3D76AA",
"s+	c #3B74A9",
"t+	c #3A73A8",
"u+	c #3A74A8",
"v+	c #3973A8",
"w+	c #3973A7",
"x+	c #3872A8",
"y+	c #3872A7",
"z+	c #3972A7",
"A+	c #3971A7",
"B+	c #3871A6",
"C+	c #3871A7",
"D+	c #3771A6",
"E+	c #3770A7",
"F+	c #3670A6",
"G+	c #3770A6",
"H+	c #366FA6",
"I+	c #356FA5",
"J+	c #336EA4",
"K+	c #336DA3",
"L+	c #336DA4",
"M+	c #326CA3",
"N+	c #316CA3",
"O+	c #316CA2",
"P+	c #306BA2",
"Q+	c #306BA1",
"R+	c #306AA2",
"S+	c #2F6BA1",
"T+	c #2F6BA2",
"U+	c #2E6AA1",
"V+	c #2E69A1",
"W+	c #2F6AA1",
"X+	c #2E69A0",
"Y+	c #2D69A1",
"Z+	c #2B679F",
"`+	c #2A679F",
" @	c #2A669E",
".@	c #29669D",
"+@	c #29659D",
"@@	c #28649D",
"#@	c #28649C",
"$@	c #28659D",
"%@	c #27649D",
"&@	c #27639C",
"*@	c #26639C",
"=@	c #26639B",
"-@	c #25639C",
";@	c #25629B",
">@	c #25629C",
",@	c #23609A",
"'@	c #22609A",
")@	c #236099",
"!@	c #226099",
"~@	c #215F99",
"{@	c #225F98",
"]@	c #215F98",
"^@	c #205F99",
"/@	c #205E98",
"(@	c #205D98",
"_@	c #1F5D97",
":@	c #1F5E97",
"<@	c #1F5D96",
"[@	c #1D5C96",
"}@	c #1E5C97",
"|@	c #1B5A95",
"1@	c #1B5A94",
"2@	c #1A5A94",
"3@	c #1A5994",
"4@	c #1A5993",
"5@	c #1A5894",
"6@	c #195894",
"7@	c #185894",
"8@	c #185893",
"9@	c #195793",
"0@	c #195892",
"a@	c #185793",
"b@	c #175692",
"c@	c #175792",
"d@	c #175691",
"e@	c #165792",
"f@	c #165691",
"g@	c #155692",
"h@	c #135490",
"i@	c #135390",
"j@	c #125390",
"k@	c #12528F",
"l@	c #12538F",
"m@	c #12528E",
"n@	c #11528F",
"o@	c #11528E",
"p@	c #10528E",
"q@	c #10518E",
"r@	c #10518D",
"s@	c #0F518D",
"t@	c #0F508D",
"u@	c #0E4F8C",
"v@	c #0E508C",
"w@	c #0D4F8C",
". . . . . . . . + . . . . . . . @ @ . # $ % % % % & & * = = = - ",
"; ; > , , ' ) ) ) ! ! ~ { ] ^ / ( _ : < < [ } } | | | | 1 1 2 2 ",
"3 3 4 4 4 5 5 5 5 6 6 7 8 8 9 0 0 a b c c c d d d e e f g g g g ",
"h h i i i i j j i j j j k k k k l m n o o o o o p q q q r r r r ",
"s s t u s v w w x x x x x x y y y y z A A A A A B B B C D D E F ",
"G G H I I I I I J K K L M M N O P Q O R R R R R S T T U U U U V ",
"W W X W W Y Z Z ` ` `  ..... .+.@.@.#.#.#.$.$.$.%.&.&.&.*.*.&.=.",
"-.-.;.;.;.>.;.,.'.>.>.).!.!.~.~.~.~.{.{.{.].^.^.^./././.(.(._.:.",
"<.<.[.}.}.|.1.1.2.2.2.2.3.3.2.4.5.6.6.7.7.8.8.8.9.0.0.0.0.0.0.a.",
"b.b.c.d.d.e.e.e.e.f.f.g.h.h.i.h.j.k.l.m.m.m.n.n.o.n.n.p.q.q.p.r.",
"s.s.t.t.t.t.u.u.u.v.v.w.w.w.w.x.y.z.A.B.C.D.z.z.E.F.F.F.G.G.G.H.",
"I.I.I.J.J.K.L.L.M.N.N.M.O.O.P.Q.Q.R.R.S.S.T.U.U.V.W.W.V.X.X.Y.Z.",
"`.`. +.+.+++@+@+#+#+#+$+$+$+%+&+*+*+&+=+=+-+;+;+-+>+>+>+,+,+,+'+",
")+)+!+!+!+!+~+~+{+]+^+/+(+(+_+_+:+:+<+<+<+[+[+[+}+|+|+|+|+|+|+1+",
"2+2+2+3+3+4+5+5+5+6+6+7+7+7+7+8+8+9+8+8+8+0+a+a+b+c+c+c+d+d+d+e+",
"f+f+f+g+g+f+h+h+i+j+j+j+k+k+l+m+m+m+m+n+n+n+n+n+o+p+p+p+q+q+r+r+",
"s+s+s+t+t+u+v+v+t+v+v+w+v+v+x+y+z+A+B+C+C+B+D+D+E+F+F+G+H+H+F+I+",
"J+J+K+L+L+K+M+M+N+N+N+N+N+N+O+P+P+P+Q+R+R+S+T+T+U+V+V+W+X+X+V+Y+",
"Z+Z+Z+`+`+`+ @ @ @.@.@.@+@+@+@@@#@#@$@#@#@%@&@&@&@*@*@=@-@-@;@>@",
",@,@'@)@)@'@!@!@~@{@{@~@]@]@^@/@/@/@/@(@(@_@:@:@_@_@_@<@[@[@[@}@",
"|@|@1@1@1@2@3@3@3@4@4@5@6@7@8@9@0@0@a@a@a@b@c@c@b@d@d@e@f@f@f@g@",
"h@h@i@i@i@j@k@k@l@m@m@n@o@o@o@o@p@q@q@r@r@s@r@r@t@t@t@u@v@v@u@w@"};
