/* XPM */
static char * iconp_xpm[] = {
"22 22 268 2",
"  	c None",
". 	c #B8D9F8",
"+ 	c #B8DAF8",
"@ 	c #B2CFEA",
"# 	c #B0CAE2",
"$ 	c #B3D3F1",
"% 	c #B7D9F7",
"& 	c #B6D8F7",
"* 	c #B6D7F7",
"= 	c #B6D7F6",
"- 	c #B5D7F6",
"; 	c #B5D6F6",
"> 	c #B3D5F5",
", 	c #B2D4F5",
"' 	c #B2D5F4",
") 	c #B2D4F4",
"! 	c #B1D4F4",
"~ 	c #B0D2F1",
"{ 	c #9FB1C0",
"] 	c #9399A0",
"^ 	c #8D8E8E",
"/ 	c #959595",
"( 	c #9A9A9A",
"_ 	c #9D9D9D",
": 	c #98999B",
"< 	c #A1ABB5",
"[ 	c #A9C2D8",
"} 	c #AED1F2",
"| 	c #ADD0F2",
"1 	c #ADD0F1",
"2 	c #AACEF0",
"3 	c #AACEEF",
"4 	c #AACDEF",
"5 	c #9DB3C8",
"6 	c #87898A",
"7 	c #929292",
"8 	c #B1B1B1",
"9 	c #E4E4E4",
"0 	c #F3F3F3",
"a 	c #FDFDFD",
"b 	c #F5F5F5",
"c 	c #E8E8E8",
"d 	c #BDBDBD",
"e 	c #9C9C9C",
"f 	c #9EAAB5",
"g 	c #A5C7E7",
"h 	c #A5CAED",
"i 	c #A5CAEC",
"j 	c #A3C8EB",
"k 	c #A2C7EA",
"l 	c #8D9FAF",
"m 	c #898989",
"n 	c #9B9B9B",
"o 	c #CFCFCF",
"p 	c #F9F9F9",
"q 	c #FAFAFA",
"r 	c #FBFBFB",
"s 	c #DDDDDD",
"t 	c #A7A7A7",
"u 	c #989A9C",
"v 	c #9EBBD6",
"w 	c #9DC3E7",
"x 	c #9AC1E5",
"y 	c #9BC2E6",
"z 	c #899CAE",
"A 	c #8A8A8A",
"B 	c #A0A0A0",
"C 	c #F0F0F0",
"D 	c #F6F6F6",
"E 	c #F7F7F7",
"F 	c #F8F8F8",
"G 	c #E6E6E6",
"H 	c #AFAFAF",
"I 	c #999B9D",
"J 	c #97B8D7",
"K 	c #95BDE2",
"L 	c #95BDE1",
"M 	c #92BBE0",
"N 	c #92BBE1",
"O 	c #8EACC9",
"P 	c #7C7C7C",
"Q 	c #CACACA",
"R 	c #EEEEEE",
"S 	c #F2F2F2",
"T 	c #EDEDED",
"U 	c #D9D9D9",
"V 	c #A9A9A9",
"W 	c #989DA2",
"X 	c #8DB7DC",
"Y 	c #8DB6DD",
"Z 	c #8AB5DB",
"` 	c #8BB5DB",
" .	c #848D95",
"..	c #888888",
"+.	c #E7E7E7",
"@.	c #F4F4F4",
"#.	c #EFEFEF",
"$.	c #C1C1C1",
"%.	c #A3A3A3",
"&.	c #8BA4BA",
"*.	c #85B0D8",
"=.	c #83AED6",
"-.	c #82A6C6",
";.	c #8B8B8B",
">.	c #949494",
",.	c #C9C9C9",
"'.	c #DEDEDE",
").	c #EBEBEB",
"!.	c #F1F1F1",
"~.	c #EAEAEA",
"{.	c #D8D8D8",
"].	c #8F969E",
"^.	c #7DAAD3",
"/.	c #7BA8D2",
"(.	c #869AAD",
"_.	c #969696",
":.	c #A2A2A2",
"<.	c #C4C4C4",
"[.	c #E1E1E1",
"}.	c #E9E9E9",
"|.	c #DFDFDF",
"1.	c #B5B5B5",
"2.	c #9A9B9B",
"3.	c #7BA4C9",
"4.	c #73A1CC",
"5.	c #8996A3",
"6.	c #A1A1A1",
"7.	c #ADADAD",
"8.	c #BBBBBB",
"9.	c #E0E0E0",
"0.	c #E3E3E3",
"a.	c #E5E5E5",
"b.	c #B4B4B4",
"c.	c #82A1BF",
"d.	c #6B9BC7",
"e.	c #8D969F",
"f.	c #AAAAAA",
"g.	c #B8B8B8",
"h.	c #DCDCDC",
"i.	c #E2E2E2",
"j.	c #CDCDCD",
"k.	c #C0C0C0",
"l.	c #B3B3B3",
"m.	c #85A1BB",
"n.	c #6394C2",
"o.	c #8F9AA4",
"p.	c #B0B0B0",
"q.	c #C3C3C3",
"r.	c #CCCCCC",
"s.	c #DADADA",
"t.	c #819EBA",
"u.	c #5B8EBD",
"v.	c #8999A8",
"w.	c #CBCBCB",
"x.	c #D3D3D3",
"y.	c #DBDBDB",
"z.	c #D4D4D4",
"A.	c #C5C5C5",
"B.	c #7397BA",
"C.	c #5387B8",
"D.	c #7893AD",
"E.	c #B6B6B6",
"F.	c #CECECE",
"G.	c #D3CFCF",
"H.	c #C33333",
"I.	c #BF2929",
"J.	c #BE2929",
"K.	c #C12B2B",
"L.	c #C12A2A",
"M.	c #BE2828",
"N.	c #C22828",
"O.	c #CBC2C2",
"P.	c #C6C6C7",
"Q.	c #5687B6",
"R.	c #4B81B3",
"S.	c #5383AF",
"T.	c #B0B0B1",
"U.	c #DEC0C0",
"V.	c #F02424",
"W.	c #EF2929",
"X.	c #F02626",
"Y.	c #D09999",
"Z.	c #A8B5C1",
"`.	c #457CB0",
" +	c #437AAE",
".+	c #8C9DAD",
"++	c #C7C7C7",
"@+	c #E1D9D9",
"#+	c #CA2727",
"$+	c #C72020",
"%+	c #C82020",
"&+	c #C92121",
"*+	c #CA2222",
"=+	c #CA2323",
"-+	c #CE2424",
";+	c #DDCECE",
">+	c #678FB3",
",+	c #3D76AA",
"'+	c #3B74A9",
")+	c #4A7BA8",
"!+	c #B9BBBC",
"~+	c #D7D7D7",
"{+	c #AFBDCA",
"]+	c #3670A6",
"^+	c #356FA5",
"/+	c #336EA4",
"(+	c #336DA3",
"_+	c #336DA4",
":+	c #5F85A9",
"<+	c #CBCBCC",
"[+	c #C8D0D8",
"}+	c #3B71A4",
"|+	c #2E69A1",
"1+	c #2D69A1",
"2+	c #2B679F",
"3+	c #2A679F",
"4+	c #5E85A9",
"5+	c #CED0D2",
"6+	c #C6D1DB",
"7+	c #3B71A2",
"8+	c #25639C",
"9+	c #25629B",
"0+	c #25629C",
"a+	c #23609A",
"b+	c #22609A",
"c+	c #236099",
"d+	c #226099",
"e+	c #4072A1",
"f+	c #B6C1CB",
"g+	c #E5E6E7",
"h+	c #7E9FBD",
"i+	c #215E97",
"j+	c #1F5D96",
"k+	c #1D5C96",
"l+	c #1E5C97",
"m+	c #1B5A95",
"n+	c #1B5A94",
"o+	c #1A5A94",
"p+	c #1A5994",
"q+	c #1A5993",
"r+	c #4B78A4",
"s+	c #8BA6BF",
"t+	c #C1CDD9",
"u+	c #DCE0E4",
"v+	c #D3DAE0",
"w+	c #BBC9D7",
"x+	c #789ABB",
"y+	c #2D669A",
"z+	c #175692",
"A+	c #175691",
"B+	c #165792",
"C+	c #165691",
"D+	c #155692",
"E+	c #135490",
"F+	c #135390",
"G+	c #125390",
"H+	c #12528F",
"I+	c #12538F",
"J+	c #12528E",
"K+	c #11528F",
"L+	c #11528E",
"M+	c #10518E",
"N+	c #10518D",
"O+	c #0F518D",
"P+	c #0F508D",
"Q+	c #0E4F8C",
"R+	c #0E508C",
"S+	c #0D4F8C",
". . . . . + . . . . @ # $ % & & & * = - - ; ",
"> , ' ) ! ! ~ { ] ^ / ( _ : < [ } } } | 1 1 ",
"2 3 3 4 4 5 6 7 8 9 0 a b c d e f g h i i i ",
"j k k k l m n o p q q r r r q s t u v w w w ",
"x y x z A B s C 0 D E F F E D 0 G H I J K L ",
"M N O P n Q c R 0 E p r r q E S T U V W X Y ",
"Z `  ...H s +.C @.D E E E E D b #.G $.%.&.*.",
"=.-.;.>.,.'.).R C !.0 0 0 0 S !.#.~.{.8 ].^.",
"/.(._.:.<.[.+.}.).T R R R R T ).~.+.|.1.2.3.",
"4.5.6.7.8.'.9.0.a.+.c }.}.c +.G 9 [.'.b.t c.",
"d.e.f.g.<.,.h.|.[.i.0.9 9 0.i.[.|.s j.k.l.m.",
"n.o.p.q.r.q.s.h.'.|.9.[.[.9.9.'.h.s.q.j.d t.",
"u.v.b.w.x.Q q.,.y.h.s '.'.s s y.r.q.w.z.A.B.",
"C.D.E.F.s.G.H.I.J.I.K.K.L.L.I.M.N.O.x.h.P.Q.",
"R.S.T.j.|.U.V.W.W.W.W.W.W.W.W.W.X.Y.h.9.Z.`.",
" + +.+++i.@+#+$+$+%+%+%+&+*+*+=+-+;+9.'.>+,+",
"'+'+)+!+y.0.[.|.s s.{.~+~+{.s.s |.[.9 {+]+^+",
"/+(+_+:+<+G 9 0.[.9.|.|.|.9.9.i.0.a.[+}+|+1+",
"2+2+3+3+4+5+c G a.9 0.0.0.0.9 a.+.6+7+8+9+0+",
"a+b+c+b+d+e+f+~.}.c +.+.+.+.c g+h+i+j+k+k+l+",
"m+n+n+o+p+p+q+r+s+t+u+}.v+w+x+y+z+A+B+C+C+D+",
"E+F+F+G+H+I+J+K+L+L+L+M+M+N+O+N+P+P+Q+R+Q+S+"};
