/* XPM */
static char * iconun_xpm[] = {
"22 22 335 2",
"  	c None",
". 	c #FFFFFE",
"+ 	c #FEFFFE",
"@ 	c #FEFFFF",
"# 	c #FFFEFF",
"$ 	c #FFFFFF",
"% 	c #FEFEFF",
"& 	c #EFEFEF",
"* 	c #E5E5E5",
"= 	c #F7F7F7",
"- 	c #F7F9F9",
"; 	c #F8F8F9",
"> 	c #F7F8F9",
", 	c #F5F6F6",
"' 	c #BABABA",
") 	c #909090",
"! 	c #767676",
"~ 	c #7B7B7C",
"{ 	c #808181",
"] 	c #848483",
"^ 	c #838384",
"/ 	c #A8A9A9",
"( 	c #D8D8D9",
"_ 	c #F9F9FA",
": 	c #F8FAFA",
"< 	c #F9FAFB",
"[ 	c #FAF9FA",
"} 	c #F0F2F3",
"| 	c #F1F2F3",
"1 	c #F1F3F4",
"2 	c #F2F3F4",
"3 	c #C2C3C3",
"4 	c #6C6D6D",
"5 	c #727171",
"6 	c #919090",
"7 	c #C3C4C4",
"8 	c #D2D2D2",
"9 	c #DDDCDD",
"0 	c #D4D5D4",
"a 	c #C7C7C7",
"b 	c #9C9C9D",
"c 	c #A6A6A6",
"d 	c #ECECED",
"e 	c #F2F4F5",
"f 	c #F2F3F5",
"g 	c #F3F3F4",
"h 	c #EAECEE",
"i 	c #EBECEE",
"j 	c #EAEDEE",
"k 	c #A1A2A3",
"l 	c #616262",
"m 	c #737374",
"n 	c #A7A7A8",
"o 	c #D1D1D2",
"p 	c #D2D2D3",
"q 	c #D3D3D4",
"r 	c #D3D3D3",
"s 	c #B5B5B5",
"t 	c #7F7F7F",
"u 	c #777878",
"v 	c #D2D5D5",
"w 	c #EBEDF0",
"x 	c #ECEDEF",
"y 	c #EBEEEF",
"z 	c #E3E6E9",
"A 	c #E4E6E9",
"B 	c #9D9EA0",
"C 	c #5B5B5C",
"D 	c #717172",
"E 	c #AEAEAF",
"F 	c #C1C1C1",
"G 	c #C4C4C5",
"H 	c #C8C8C8",
"I 	c #C8C9C9",
"J 	c #C8C7C8",
"K 	c #C6C7C7",
"L 	c #C4C4C4",
"M 	c #B7B7B7",
"N 	c #7F8080",
"O 	c #737272",
"P 	c #D4D6D8",
"Q 	c #E5E7EA",
"R 	c #E5E8EA",
"S 	c #DDE0E3",
"T 	c #BFC1C3",
"U 	c #464646",
"V 	c #656565",
"W 	c #949494",
"X 	c #B2B1B2",
"Y 	c #B8B7B8",
"Z 	c #BDBDBD",
"` 	c #C0C0C1",
" .	c #C2C2C3",
"..	c #C5C5C5",
"+.	c #C4C5C5",
"@.	c #C1C0C1",
"#.	c #BBBBBC",
"$.	c #B6B6B7",
"%.	c #A2A3A3",
"&.	c #727273",
"*.	c #78797A",
"=.	c #DEE1E3",
"-.	c #DEE1E5",
";.	c #D6D9DD",
">.	c #D6DADD",
",.	c #6B6C6E",
"'.	c #4B4B4B",
").	c #A09FA0",
"!.	c #AAAAAA",
"~.	c #B2B3B3",
"{.	c #B6B7B7",
"].	c #B8B8B9",
"^.	c #B9B9BA",
"/.	c #B9BABA",
"(.	c #B8B8B8",
"_.	c #B7B8B8",
":.	c #B1B1B2",
"<.	c #A8A8A8",
"[.	c #838383",
"}.	c #A8AAAD",
"|.	c #D7DBDF",
"1.	c #CFD4D8",
"2.	c #B8BCC0",
"3.	c #464747",
"4.	c #4F4F50",
"5.	c #848485",
"6.	c #9A9A9A",
"7.	c #A6A6A7",
"8.	c #AAA9AA",
"9.	c #ABABAC",
"0.	c #ACACAC",
"a.	c #AEAFAF",
"b.	c #AEAEAE",
"c.	c #ADADAD",
"d.	c #A5A4A5",
"e.	c #929393",
"f.	c #6B6B6C",
"g.	c #6C6D6E",
"h.	c #D1D5D9",
"i.	c #C9CED2",
"j.	c #8C8E91",
"k.	c #4A4B4B",
"l.	c #565657",
"m.	c #797878",
"n.	c #959596",
"o.	c #9B9B9C",
"p.	c #9D9D9D",
"q.	c #9F9FA0",
"r.	c #A1A1A2",
"s.	c #A2A2A2",
"t.	c #A1A2A2",
"u.	c #A2A1A2",
"v.	c #A2A1A3",
"w.	c #A0A0A1",
"x.	c #9F9F9F",
"y.	c #9D9D9F",
"z.	c #9B9A9B",
"A.	c #939393",
"B.	c #686869",
"C.	c #4E4E4F",
"D.	c #C2C6CB",
"E.	c #C2C8CD",
"F.	c #717375",
"G.	c #5A5A5A",
"H.	c #8B8A8C",
"I.	c #8C8D8D",
"J.	c #929293",
"K.	c #949495",
"L.	c #959696",
"M.	c #959495",
"N.	c #949394",
"O.	c #909091",
"P.	c #8D8E8E",
"Q.	c #8A8A8A",
"R.	c #606060",
"S.	c #535354",
"T.	c #ABAEB3",
"U.	c #BBC1C8",
"V.	c #616364",
"W.	c #4F5051",
"X.	c #5E5E5F",
"Y.	c #6A6A6A",
"Z.	c #6E6F6F",
"`.	c #828183",
" +	c #848585",
".+	c #868687",
"++	c #878788",
"@+	c #888889",
"#+	c #89898A",
"$+	c #898A8A",
"%+	c #848484",
"&+	c #828283",
"*+	c #727272",
"=+	c #585859",
"-+	c #9EA1A5",
";+	c #B4BCC2",
">+	c #626366",
",+	c #4F4F4F",
"'+	c #626162",
")+	c #6B6A6B",
"!+	c #616162",
"~+	c #787979",
"{+	c #7A7A7B",
"]+	c #7C7C7D",
"^+	c #7D7D7D",
"/+	c #7E7E7F",
"(+	c #7F7F80",
"_+	c #7E7E80",
":+	c #7B7B7D",
"<+	c #7A797B",
"[+	c #6A6B6C",
"}+	c #5A5A5B",
"|+	c #9BA0A3",
"1+	c #AEB6BD",
"2+	c #6C6E70",
"3+	c #4B4B4C",
"4+	c #626363",
"5+	c #6A6A6B",
"6+	c #616161",
"7+	c #727173",
"8+	c #747375",
"9+	c #757576",
"0+	c #747576",
"a+	c #747475",
"b+	c #595A5A",
"c+	c #626263",
"d+	c #6A6B6B",
"e+	c #9FA5AA",
"f+	c #A7B0B7",
"g+	c #81858A",
"h+	c #464647",
"i+	c #000000",
"j+	c #59585A",
"k+	c #A6ADB5",
"l+	c #A1A9B2",
"m+	c #979EA6",
"n+	c #3A3A3B",
"o+	c #565656",
"p+	c #686768",
"q+	c #636263",
"r+	c #4B4C4C",
"s+	c #646464",
"t+	c #676869",
"u+	c #75777A",
"v+	c #A2AAB3",
"w+	c #99A3AC",
"x+	c #65676B",
"y+	c #494949",
"z+	c #636364",
"A+	c #5B5C5D",
"B+	c #606162",
"C+	c #5F5E60",
"D+	c #91999F",
"E+	c #9BA5AE",
"F+	c #939DA7",
"G+	c #8B949C",
"H+	c #3C3C3D",
"I+	c #555557",
"J+	c #5C5D5E",
"K+	c #59595A",
"L+	c #575758",
"M+	c #545355",
"N+	c #515253",
"O+	c #505051",
"P+	c #515051",
"Q+	c #515152",
"R+	c #545354",
"S+	c #575657",
"T+	c #58585A",
"U+	c #5A5A5C",
"V+	c #5D5E5E",
"W+	c #75767A",
"X+	c #949EA8",
"Y+	c #959FA9",
"Z+	c #8C97A2",
"`+	c #8C97A1",
" @	c #7C848B",
".@	c #414243",
"+@	c #565758",
"@@	c #535454",
"#@	c #535253",
"$@	c #525152",
"%@	c #525153",
"&@	c #525353",
"*@	c #525254",
"=@	c #545456",
"-@	c #6B6D6F",
";@	c #8C96A0",
">@	c #8D99A3",
",@	c #8E98A2",
"'@	c #86919C",
")@	c #85919C",
"!@	c #7A8188",
"~@	c #47474A",
"{@	c #535355",
"]@	c #4E4E50",
"^@	c #525253",
"/@	c #6E7173",
"(@	c #86909A",
"_@	c #87929D",
":@	c #7E8B97",
"<@	c #7F8B96",
"[@	c #7F8B97",
"}@	c #7F8C97",
"|@	c #7B858E",
"1@	c #585A5D",
"2@	c #4D4D4F",
"3@	c #4C4C4D",
"4@	c #4A4B4D",
"5@	c #4C4B4D",
"6@	c #505152",
"7@	c #80878E",
"8@	c #7F8C96",
"9@	c #808C97",
"0@	c #808C98",
"a@	c #808D98",
"b@	c #788591",
"c@	c #767F89",
"d@	c #71767B",
"e@	c #64676B",
"f@	c #535356",
"g@	c #464748",
"h@	c #57585B",
"i@	c #696C6F",
"j@	c #7C838A",
"k@	c #7A8591",
"l@	c #798692",
"m@	c #7A8692",
"n@	c #7A8792",
"o@	c #717F8C",
"p@	c #717F8B",
"q@	c #727F8C",
"r@	c #72808C",
"s@	c #72808D",
"t@	c #73808D",
". + @ . # $ % $ $ # & * = $ $ $ $ $ $ $ $ $ ",
"- ; ; > ; ; , ' ) ! ~ { ] ^ / ( _ _ : _ < [ ",
"} | | 1 2 3 4 5 6 7 8 9 0 a b ~ c d e e f g ",
"h h i j k l m n o p 8 q q r 8 s t u v w x y ",
"z A A B C D E F G a H I I J K L M N O P Q R ",
"S S T U V W X Y Z `  ...+.L @.#.$.%.&.*.=.-.",
";.>.,.'.D ).!.~.{.].^.^.^./.(._.:.<.[.V }.|.",
"1.2.3.4.5.6.7.8.9.0.a.E b.E c.0.!.d.e.f.g.h.",
"i.j.k.l.m.n.o.p.q.r.s.t.u.v.w.x.y.z.A.B.C.D.",
"E.F.C.G.B.H.I.) J.W K.L.n.M.N.e.O.P.Q.R.S.T.",
"U.V.W.X.Y.Z.`. +.+++@+#+$+@+++.+%+&+*+V =+-+",
";+>+,+'+)+!+~+{+]+^+/+(+_+/+/+:+<+u !+[+}+|+",
"1+2+3+4+5+6+}+R.7+m 8+9+0+a+m D 4+b+c+d+C e+",
"f+g+h+X.5+c+i+i+i+i+i+i+i+i+i+i+i+=+c+f.j+k+",
"l+m+n+o+p+q+i+i+i+i+i+i+i+i+i+i+i+r+s+t+u+v+",
"w+w+x+y+z+l i+i+i+i+i+i+i+i+i+i+i+A+B+C+D+E+",
"F+F+G+H+I+J+C K+L+M+N+O+P+Q+R+S+T+U+V+W+X+Y+",
"Z+`+`+ @.@K++@l.@@#@$@%@Q+&@*@=@I+L+-@;@>@,@",
"'@)@)@'@!@~@{@N+O+W.C.]@C.C.4.O+^@/@(@_@_@_@",
":@<@[@}@[@|@1@C.2@3@4@3+3+3+5@6@7@8@9@0@a@0@",
"b@b@b@b@b@b@b@c@d@e@f@g@h@i@j@k@l@m@l@n@l@m@",
"o@o@p@o@o@q@o@q@q@q@q@r@r@r@r@r@r@s@t@s@r@r@"};
