/* XPM */
static char * max_xpm[] = {
"22 22 311 2",
"  	c None",
". 	c #B8D9F8",
"+ 	c #B8DAF8",
"@ 	c #B4D1EC",
"# 	c #B0CAE2",
"$ 	c #B2D2F0",
"% 	c #B7D9F7",
"& 	c #B6D8F7",
"* 	c #B6D7F7",
"= 	c #B6D7F6",
"- 	c #B5D7F6",
"; 	c #B5D6F6",
"> 	c #B3D5F5",
", 	c #B2D4F5",
"' 	c #B2D5F4",
") 	c #B2D4F4",
"! 	c #B1D4F4",
"~ 	c #B0D3F1",
"{ 	c #A0B2C1",
"] 	c #969DA4",
"^ 	c #8E8F8F",
"/ 	c #959595",
"( 	c #A5A5A5",
"_ 	c #9D9D9D",
": 	c #97989A",
"< 	c #9EA8B2",
"[ 	c #9FB6CB",
"} 	c #AED1F2",
"| 	c #ADD0F2",
"1 	c #ADD0F1",
"2 	c #AACEF0",
"3 	c #AACEEF",
"4 	c #AACDEF",
"5 	c #A2B8CE",
"6 	c #888A8B",
"7 	c #929292",
"8 	c #C5C5C5",
"9 	c #F3F3F3",
"0 	c #FFFFFF",
"a 	c #F1F1F1",
"b 	c #C2C2C2",
"c 	c #89939C",
"d 	c #9EBEDD",
"e 	c #A5CAED",
"f 	c #A5CAEC",
"g 	c #A3C8EB",
"h 	c #A2C7EA",
"i 	c #93A6B7",
"j 	c #888888",
"k 	c #A1A1A1",
"l 	c #E4E4E4",
"m 	c #F7F7F7",
"n 	c #F9F9F9",
"o 	c #FAFAFA",
"p 	c #DCDCDC",
"q 	c #A8A8A8",
"r 	c #96989A",
"s 	c #9AB6D1",
"t 	c #9DC3E7",
"u 	c #9AC1E5",
"v 	c #9BC2E6",
"w 	c #90A5B7",
"x 	c #898989",
"y 	c #E6E6E6",
"z 	c #EEEEEE",
"A 	c #F2F2F2",
"B 	c #F4F4F4",
"C 	c #F6F6F6",
"D 	c #F8F8F8",
"E 	c #F5F5F5",
"F 	c #E7E7E7",
"G 	c #AEAEAE",
"H 	c #979A9C",
"I 	c #94B3D2",
"J 	c #95BDE2",
"K 	c #95BDE1",
"L 	c #92BBE0",
"M 	c #92BBE1",
"N 	c #96B6D4",
"O 	c #7D7D7D",
"P 	c #9A9A9A",
"Q 	c #D6D6D6",
"R 	c #ECECEC",
"S 	c #D4D4D4",
"T 	c #AAAAAA",
"U 	c #949A9F",
"V 	c #8CB5DB",
"W 	c #8DB6DD",
"X 	c #8AB5DB",
"Y 	c #8BB5DB",
"Z 	c #8B959D",
"` 	c #868686",
" .	c #B7B7B7",
"..	c #4E4E4E",
"+.	c #171717",
"@.	c #191919",
"#.	c #161616",
"$.	c #141414",
"%.	c #252525",
"&.	c #A2A2A2",
"*.	c #BFBFBF",
"=.	c #869EB3",
"-.	c #85B0D8",
";.	c #83AED6",
">.	c #88ADCF",
",.	c #939393",
"'.	c #CCCCCC",
").	c #050505",
"!.	c #262726",
"~.	c #3C3D3B",
"{.	c #3B3C3A",
"].	c #393937",
"^.	c #373836",
"/.	c #353634",
"(.	c #464645",
"_.	c #1E1E1D",
":.	c #505050",
"<.	c #EAEAEA",
"[.	c #B3B3B3",
"}.	c #8B9299",
"|.	c #7DAAD3",
"1.	c #7BA8D2",
"2.	c #8DA2B5",
"3.	c #949494",
"4.	c #C0C0C0",
"5.	c #DFDFDF",
"6.	c #040404",
"7.	c #767874",
"8.	c #BABDB6",
"9.	c #50514E",
"0.	c #494949",
"a.	c #B5B5B5",
"b.	c #9B9C9C",
"c.	c #779FC3",
"d.	c #73A1CC",
"e.	c #8F9DAA",
"f.	c #9E9E9E",
"g.	c #ACACAC",
"h.	c #B8B8B8",
"i.	c #DDDDDD",
"j.	c #030303",
"k.	c #3B3C3B",
"l.	c #595A57",
"m.	c #565755",
"n.	c #535451",
"o.	c #50514F",
"p.	c #4D4E4C",
"q.	c #4B4C49",
"r.	c #484946",
"s.	c #222322",
"t.	c #414141",
"u.	c #E1E1E1",
"v.	c #DEDEDE",
"w.	c #7E9CB9",
"x.	c #6B9BC7",
"y.	c #929CA5",
"z.	c #A7A7A7",
"A.	c #C1C1C1",
"B.	c #C9C9C9",
"C.	c #020202",
"D.	c #1B1B1B",
"E.	c #4E4E4D",
"F.	c #6D6F6B",
"G.	c #6B6D69",
"H.	c #696A67",
"I.	c #676865",
"J.	c #646662",
"K.	c #2E2F2E",
"L.	c #3B3B3B",
"M.	c #CDCDCD",
"N.	c #829DB6",
"O.	c #6394C2",
"P.	c #949FAA",
"Q.	c #ADADAD",
"R.	c #C3C3C3",
"S.	c #1D1D1D",
"T.	c #787A76",
"U.	c #555653",
"V.	c #343434",
"W.	c #DADADA",
"X.	c #7E9BB6",
"Y.	c #5B8EBD",
"Z.	c #8E9EAE",
"`.	c #B0B0B0",
" +	c #C8C8C8",
".+	c #D3D3D3",
"++	c #CACACA",
"@+	c #060606",
"#+	c #1E1E1E",
"$+	c #7A7B78",
"%+	c #575956",
"&+	c #2C2C2C",
"*+	c #CBCBCB",
"=+	c #7094B6",
"-+	c #5387B8",
";+	c #7D99B3",
">+	c #B2B2B2",
",+	c #D2D2D2",
"'+	c #0A0A0A",
")+	c #1F1F1F",
"!+	c #7C7D79",
"~+	c #5A5B58",
"{+	c #070707",
"]+	c #272727",
"^+	c #C7C8C9",
"/+	c #5485B3",
"(+	c #4B81B3",
"_+	c #5587B4",
":+	c #AEAEAF",
"<+	c #0E0E0E",
"[+	c #7D7F7B",
"}+	c #5C5D5A",
"|+	c #090909",
"1+	c #262626",
"2+	c #D5D5D5",
"3+	c #E0E0E0",
"4+	c #A8B5C1",
"5+	c #457CB0",
"6+	c #437AAE",
"7+	c #90A2B2",
"8+	c #131313",
"9+	c #101010",
"0+	c #424341",
"a+	c #60615E",
"b+	c #5F605D",
"c+	c #5E5F5C",
"d+	c #5B5C59",
"e+	c #2F302F",
"f+	c #242424",
"g+	c #668DB1",
"h+	c #3D76AA",
"i+	c #3B74A9",
"j+	c #4D7EAD",
"k+	c #B9BBBC",
"l+	c #D8D8D8",
"m+	c #E3E3E3",
"n+	c #696969",
"o+	c #121212",
"p+	c #0F0F0F",
"q+	c #0D0D0D",
"r+	c #646464",
"s+	c #AFBECB",
"t+	c #3670A6",
"u+	c #356FA5",
"v+	c #336EA4",
"w+	c #336DA3",
"x+	c #336DA4",
"y+	c #6188AC",
"z+	c #C8C8C9",
"A+	c #E5E5E5",
"B+	c #E2E2E2",
"C+	c #CBD4DB",
"D+	c #3A70A3",
"E+	c #2E69A1",
"F+	c #2D69A1",
"G+	c #2B679F",
"H+	c #2A679F",
"I+	c #5F86AB",
"J+	c #CCCED0",
"K+	c #E8E8E8",
"L+	c #C6D1DB",
"M+	c #3B70A1",
"N+	c #25639C",
"O+	c #25629B",
"P+	c #25629C",
"Q+	c #23609A",
"R+	c #22609A",
"S+	c #236099",
"T+	c #226099",
"U+	c #4073A2",
"V+	c #B7C2CC",
"W+	c #E9E9E9",
"X+	c #E5E6E7",
"Y+	c #7F9FBE",
"Z+	c #205E97",
"`+	c #1F5D96",
" @	c #1D5C96",
".@	c #1E5C97",
"+@	c #1B5A95",
"@@	c #1B5A94",
"#@	c #1A5A94",
"$@	c #1A5994",
"%@	c #1A5993",
"&@	c #4C79A5",
"*@	c #8BA5BE",
"=@	c #C1CDD9",
"-@	c #DCE0E4",
";@	c #D3DAE0",
">@	c #BBC9D7",
",@	c #789ABB",
"'@	c #2E679B",
")@	c #175692",
"!@	c #175691",
"~@	c #165792",
"{@	c #165691",
"]@	c #155692",
"^@	c #135490",
"/@	c #135390",
"(@	c #125390",
"_@	c #12528F",
":@	c #12538F",
"<@	c #12528E",
"[@	c #11528F",
"}@	c #11528E",
"|@	c #10518E",
"1@	c #10518D",
"2@	c #0F518D",
"3@	c #0F508D",
"4@	c #0E4F8C",
"5@	c #0E508C",
"6@	c #0D4F8C",
". . . . . + . . . . @ # $ % & & & * = - - ; ",
"> , ' ) ! ! ~ { ] ^ / ( _ : < [ } } } | 1 1 ",
"2 3 3 4 4 5 6 7 8 9 0 0 0 a b _ c d e f f f ",
"g h h h i j k l m n n o o n n p q r s t t t ",
"u v u w x q y z A B C D D m E A F G H I J K ",
"L M N O P Q y R A C n o o n C A R S T U V W ",
"X Y Z `  .p ..+.@.+.#.$.$.#.+.%.&.y *.( =.-.",
";.>.x ,.'.p ).!.~.{.].^./.~.(._.:.<.Q [.}.|.",
"1.2.3.&.4.5.6.7.8.8.8.8.8.8.8.9.0.F 5.a.b.c.",
"d.e.f.g.h.i.j.k.l.m.n.o.p.q.r.s.t.u.v.a.T w.",
"x.y.z.a.A.B.C.D.E.F.G.H.I.J.K.j.L.i.M.b a.N.",
"O.P.Q.4.'.R.j.S.T.8.8.8.8.8.U.j.V.W.R.M.*.X.",
"Y.Z.`. +.+++@+#+$+8.8.8.8.8.%+).&+R.*+S  +=+",
"-+;+>+*+W.,+'+)+!+8.8.8.8.8.~+{+]+'..+p ^+/+",
"(+_+:+++5.W.<+#+[+8.8.8.8.8.}+|+1+2+p 3+4+5+",
"6+6+7+8 5.3+8+9+0+a+b+c+}+d+e+{+f+v.3+u.g+h+",
"i+i+j+k+l+m+n+D.o+9+p+q+<+<+<+<+r+u.l s+t+u+",
"v+w+x+y+z+A+l m+u.3+5.5.5.3+3+B+m+A+C+D+E+F+",
"G+G+H+H+I+J+K+y A+l m+m+m+m+l A+F L+M+N+O+P+",
"Q+R+S+R+T+U+V+<.W+K+F F F F K+X+Y+Z+`+ @ @.@",
"+@@@@@#@$@$@%@&@*@=@-@W+;@>@,@'@)@!@~@{@{@]@",
"^@/@/@(@_@:@<@[@}@}@}@|@|@1@2@1@3@3@4@5@4@6@"};
