/* XPM */
static char * maxun_xpm[] = {
"22 22 315 2",
"  	c None",
". 	c #FFFFFE",
"+ 	c #FEFFFE",
"@ 	c #FEFFFF",
"# 	c #FFFEFF",
"$ 	c #FFFFFF",
"% 	c #FEFEFF",
"& 	c #F0F0F0",
"* 	c #E4E4E4",
"= 	c #F6F6F6",
"- 	c #F7F9F9",
"; 	c #F8F8F9",
"> 	c #F7F8F9",
", 	c #F6F7F7",
"' 	c #B9BABA",
") 	c #909191",
"! 	c #727272",
"~ 	c #767777",
"{ 	c #878787",
"] 	c #7F7F7F",
"^ 	c #7E7F7F",
"/ 	c #A3A3A4",
"( 	c #CACACA",
"_ 	c #F9F9FA",
": 	c #F8FAFA",
"< 	c #F9FAFB",
"[ 	c #FAF9FA",
"} 	c #F0F2F3",
"| 	c #F1F2F3",
"1 	c #F1F3F4",
"2 	c #F2F3F4",
"3 	c #C7C8C9",
"4 	c #696969",
"5 	c #6D6C6D",
"6 	c #A0A0A0",
"7 	c #CECECE",
"8 	c #D9DADA",
"9 	c #DAD9DA",
"0 	c #DAD9DB",
"a 	c #CCCCCC",
"b 	c #9D9C9D",
"c 	c #787878",
"d 	c #898989",
"e 	c #E1E1E2",
"f 	c #F2F4F5",
"g 	c #F2F3F5",
"h 	c #F3F3F4",
"i 	c #EAECEE",
"j 	c #EBECEE",
"k 	c #EAEDEE",
"l 	c #A8AAAA",
"m 	c #5B5B5B",
"n 	c #747475",
"o 	c #B7B7B8",
"p 	c #CBCACB",
"q 	c #CDCDCD",
"r 	c #CCCDCD",
"s 	c #CDCECE",
"t 	c #CECDCE",
"u 	c #CDCDCE",
"v 	c #B0B0B0",
"w 	c #7C7B7C",
"x 	c #CCCFD0",
"y 	c #EBEDF0",
"z 	c #ECEDEF",
"A 	c #EBEEEF",
"B 	c #E3E6E9",
"C 	c #E4E6E9",
"D 	c #A5A6A8",
"E 	c #555556",
"F 	c #747474",
"G 	c #B2B2B3",
"H 	c #BABABB",
"I 	c #BEBEBF",
"J 	c #C0C1C1",
"K 	c #C3C3C3",
"L 	c #C5C4C5",
"M 	c #C4C4C5",
"N 	c #C4C4C4",
"O 	c #C2C2C2",
"P 	c #BFBFC0",
"Q 	c #B4B4B4",
"R 	c #7A7B7B",
"S 	c #6D6E6E",
"T 	c #CED0D2",
"U 	c #E5E7EA",
"V 	c #E5E8EA",
"W 	c #DDE0E3",
"X 	c #CACDCF",
"Y 	c #424242",
"Z 	c #5F5F60",
"` 	c #9B9B9C",
" .	c #ABACAC",
"..	c #B1B2B2",
"+.	c #B7B8B8",
"@.	c #BBBBBB",
"#.	c #BFBEBF",
"$.	c #BFC0C0",
"%.	c #BEBFBF",
"&.	c #BCBCBC",
"*.	c #B8B8B8",
"=.	c #9A9A9B",
"-.	c #707070",
";.	c #717272",
">.	c #DCDFE1",
",.	c #DEE1E5",
"'.	c #D6D9DD",
").	c #D6DADD",
"!.	c #444445",
"~.	c #757575",
"{.	c #0C0C0D",
"].	c #000000",
"^.	c #606161",
"/.	c #A4A4A5",
"(.	c #7E7E7F",
"_.	c #646464",
":.	c #A0A2A4",
"<.	c #D7DBDF",
"[.	c #CFD4D8",
"}.	c #C2C6CA",
"|.	c #404041",
"1.	c #4A494B",
"2.	c #838384",
"3.	c #939394",
"4.	c #070809",
"5.	c #A1A2A2",
"6.	c #8D8D8E",
"7.	c #6B6A6B",
"8.	c #656667",
"9.	c #D1D5D9",
"0.	c #C9CED2",
"a.	c #949699",
"b.	c #434445",
"c.	c #525252",
"d.	c #706F71",
"e.	c #8F8F90",
"f.	c #262825",
"g.	c #696D67",
"h.	c #6A6D66",
"i.	c #6A6D67",
"j.	c #6A6E67",
"k.	c #010100",
"l.	c #979798",
"m.	c #909091",
"n.	c #666567",
"o.	c #4C4D4E",
"p.	c #BABFC3",
"q.	c #C2C8CD",
"r.	c #77787A",
"s.	c #474748",
"t.	c #555456",
"u.	c #616062",
"v.	c #868686",
"w.	c #020301",
"x.	c #8B8A8B",
"y.	c #888888",
"z.	c #5E5E60",
"A.	c #535454",
"B.	c #A4A7AB",
"C.	c #BBC1C8",
"D.	c #656768",
"E.	c #484949",
"F.	c #565757",
"G.	c #636363",
"H.	c #6B6B6B",
"I.	c #0F110E",
"J.	c #0D0F0C",
"K.	c #0B0C0A",
"L.	c #090A08",
"M.	c #060805",
"N.	c #7F7F80",
"O.	c #6F6F70",
"P.	c #646565",
"Q.	c #585758",
"R.	c #979B9E",
"S.	c #B4BCC2",
"T.	c #656769",
"U.	c #474848",
"V.	c #5A5A5C",
"W.	c #666667",
"X.	c #5D5E5E",
"Y.	c #121512",
"Z.	c #555852",
"`.	c #555752",
" +	c #555851",
".+	c #757576",
"++	c #5E5E5F",
"@+	c #686869",
"#+	c #5A5A5B",
"$+	c #969A9E",
"%+	c #AEB6BD",
"&+	c #707376",
"*+	c #434444",
"=+	c #5C5C5C",
"-+	c #5E5D5E",
";+	c #0E0F0D",
">+	c #4E514A",
",+	c #4D514B",
"'+	c #4D504B",
")+	c #4E514B",
"!+	c #575758",
"~+	c #5D5C5D",
"{+	c #9AA0A4",
"]+	c #A7B0B7",
"^+	c #878B91",
"/+	c #3E3E3F",
"(+	c #676667",
"_+	c #080A06",
":+	c #474A43",
"<+	c #474943",
"[+	c #464944",
"}+	c #59595A",
"|+	c #606061",
"1+	c #69696A",
"2+	c #A2A9B1",
"3+	c #A1A9B2",
"4+	c #9EA5AD",
"5+	c #343435",
"6+	c #4F4F50",
"7+	c #656465",
"8+	c #020401",
"9+	c #40433C",
"0+	c #3F423C",
"a+	c #3F423D",
"b+	c #3F433C",
"c+	c #626263",
"d+	c #737678",
"e+	c #A2AAB3",
"f+	c #99A3AC",
"g+	c #686C6F",
"h+	c #434344",
"i+	c #5D5D5F",
"j+	c #5D5C5E",
"k+	c #5E5F60",
"l+	c #8E969B",
"m+	c #9BA5AE",
"n+	c #939DA7",
"o+	c #919AA3",
"p+	c #39393A",
"q+	c #5A595B",
"r+	c #585959",
"s+	c #5C5C5D",
"t+	c #74767A",
"u+	c #949EA8",
"v+	c #959FA9",
"w+	c #8C97A2",
"x+	c #8C97A1",
"y+	c #80888F",
"z+	c #3B3C3D",
"A+	c #535455",
"B+	c #535354",
"C+	c #515152",
"D+	c #505052",
"E+	c #504F51",
"F+	c #4F4F51",
"G+	c #505051",
"H+	c #505151",
"I+	c #515051",
"J+	c #525253",
"K+	c #545355",
"L+	c #555657",
"M+	c #6D6F72",
"N+	c #8B959E",
"O+	c #8D99A3",
"P+	c #8E98A2",
"Q+	c #86919C",
"R+	c #85919C",
"S+	c #7B838A",
"T+	c #505152",
"U+	c #4E4E50",
"V+	c #4D4D4E",
"W+	c #4C4C4D",
"X+	c #4C4C4E",
"Y+	c #4D4C4E",
"Z+	c #4D4E4E",
"`+	c #4F4E4F",
" @	c #6D6F73",
".@	c #858F99",
"+@	c #87929D",
"@@	c #7E8B97",
"#@	c #7F8B96",
"$@	c #7F8B97",
"%@	c #7F8C97",
"&@	c #7C868F",
"*@	c #575A5C",
"=@	c #4B4B4C",
"-@	c #4A4A4B",
";@	c #49494A",
">@	c #49494B",
",@	c #4A4A4C",
"'@	c #4E4F51",
")@	c #80878E",
"!@	c #7E8B95",
"~@	c #808C97",
"{@	c #808C98",
"]@	c #808D98",
"^@	c #788591",
"/@	c #77818A",
"(@	c #6F757A",
"_@	c #636669",
":@	c #515254",
"<@	c #454546",
"[@	c #565859",
"}@	c #686B6E",
"|@	c #7C838A",
"1@	c #7A8590",
"2@	c #798692",
"3@	c #7A8692",
"4@	c #7A8792",
"5@	c #717F8C",
"6@	c #717F8B",
"7@	c #727F8C",
"8@	c #72808C",
"9@	c #72808D",
"0@	c #73808D",
". + @ . # $ % $ $ # & * = $ $ $ $ $ $ $ $ $ ",
"- ; ; > ; ; , ' ) ! ~ { ] ^ / ( _ _ : _ < [ ",
"} | | 1 2 3 4 5 6 7 8 9 0 a b c d e f f g h ",
"i i j k l m n o p q r s t q u v w ! x y z A ",
"B C C D E F G H I J K L M N O P Q R S T U V ",
"W W X Y Z `  ...+.@.#.$.P %.&.*.G =.-.;.>.,.",
"'.).;.!.~.=.{.].].].].].].].].].^./.(._.:.<.",
"[.}.|.1.2.3.].].].].].].].].].].4.5.6.7.8.9.",
"0.a.b.c.d.e.].f.g.h.i.j.i.i.i.k.].l.m.n.o.p.",
"q.r.s.t.u.v.].].w.].].].].].].].].x.y.z.A.B.",
"C.D.E.F.G.H.].].].I.J.K.L.M.].].].N.O.P.Q.R.",
"S.T.U.V.W.X.].].Y.Z.`. +Z.`.].].]..+++@+#+$+",
"%+&+*+=+W.-+].].;+>+,+'+)+)+].].].!+Z @+~+{+",
"]+^+/+Q.(+z.].]._+:+:+<+[+[+].].].}+|+1+#+2+",
"3+4+5+6+7+Z ].].8+9+0+a+a+b+].].].#+c+8.d+e+",
"f+f+g+h+i+++].].].].].].].].].].].j+k+|+l+m+",
"n+n+o+p+6+q+].].].].].].].].].].].r+s+t+u+v+",
"w+x+x+y+z+E A+B+C+D+E+F+G+H+I+J+K+L+M+N+O+P+",
"Q+R+R+Q+S+b.T+6+U+V+W+X+Y+Y+Z+`+G+ @.@+@+@+@",
"@@#@$@%@$@&@*@X+=@-@;@;@>@>@,@'@)@!@~@{@]@{@",
"^@^@^@^@^@^@^@/@(@_@:@<@[@}@|@1@2@3@2@4@2@3@",
"5@5@6@5@5@7@5@7@7@7@7@8@8@8@8@8@8@9@0@9@8@8@"};
