/* XPM */
static char * selected_xpm[] = {
"24 24 43 1",
" 	c None",
".	c #D3D7CF",
"+	c #7292B5",
"@	c #4974AB",
"#	c #7B9BC2",
"$	c #7A9AC1",
"%	c #7898C1",
"&	c #7C9BC2",
"*	c #809FC4",
"=	c #688AB2",
"-	c #D6E0ED",
";	c #E6ECF4",
">	c #BACBE0",
",	c #7292B7",
"'	c #D6E0EC",
")	c #7493B8",
"!	c #CCD8E8",
"~	c #C6D4E5",
"{	c #BCCCE1",
"]	c #7191B6",
"^	c #B5C7DE",
"/	c #ACC0DA",
"(	c #6A8BB3",
"_	c #A2B9D5",
":	c #A3BAD6",
"<	c #94AECF",
"[	c #87A4C9",
"}	c #93ADCE",
"|	c #7A9AC3",
"1	c #6288B9",
"2	c #82A0C7",
"3	c #5A82B5",
"4	c #3E6CA8",
"5	c #7193BF",
"6	c #7092BF",
"7	c #3969A6",
"8	c #3465A4",
"9	c #4371AB",
"0	c #6087B8",
"a	c #6187B8",
"b	c #3566A5",
"c	c #3F6DA9",
"d	c #4370A8",
"                        ",
"                        ",
"  ....................  ",
"  .+@#$%%%%%%%%%%&*@+.  ",
"  .=-;;;;;;;;;;;;;;>=.  ",
"  .,;;;;;;;;;;;;;;;'=.  ",
"  .)---------------!=.  ",
"  .,~~~~~~~~~~~~~~~{=.  ",
"  .]^^^^^^^^^^^^^^^/=.  ",
"  .(_::::::::::::::<=.  ",
"  .=[}}}}}}}}}}}}}}|=.  ",
"  .=1222222222222223=.  ",
"  .=4555555555555567=.  ",
"  .=890aaaaaaaaaa098=.  ",
"  .=88bccccccccccb88=.  ",
"  .=8888888888888888=.  ",
"  .=8888888888888888=.  ",
"  .=8888888888888888=.  ",
"  .=8888888888888888=.  ",
"  .=8888888888888888=.  ",
"  .+dddddddddddddddd+.  ",
"  ....................  ",
"                        ",
"                        "};
