/* XPM */
static char * selectedhi_xpm[] = {
"24 24 42 1",
" 	c None",
".	c #D3D7CF",
"+	c #A5A8A2",
"@	c #92948F",
"#	c #B1B2AF",
"$	c #B0B1AD",
"%	c #AFB0AD",
"&	c #B3B5B1",
"*	c #A1A39D",
"=	c #E7E7E6",
"-	c #F0F0F0",
";	c #D7D7D6",
">	c #A7A9A3",
",	c #A8AAA5",
"'	c #E7E8E7",
")	c #E1E1E0",
"!	c #A7A9A4",
"~	c #DDDEDD",
"{	c #D8D8D7",
"]	c #A6A8A3",
"^	c #D4D4D3",
"/	c #CECFCD",
"(	c #A2A49E",
"_	c #C9C9C7",
":	c #C9CAC8",
"<	c #C0C1BF",
"[	c #B9BAB7",
"}	c #C0C1BE",
"|	c #A3A4A1",
"1	c #B6B7B4",
"2	c #9EA09C",
"3	c #8E908B",
"4	c #ACADAA",
"5	c #ABACA9",
"6	c #8B8D88",
"7	c #888A85",
"8	c #91938E",
"9	c #A2A3A0",
"0	c #A2A4A0",
"a	c #898B86",
"b	c #8E908C",
"c	c #8F918C",
"                        ",
"                        ",
"  ....................  ",
"  .+@#$%%%%%%%%%%#&@+.  ",
"  .*=--------------;*.  ",
"  .>---------------=*.  ",
"  .,''''''''''''''')*.  ",
"  .!~~~~~~~~~~~~~~~{*.  ",
"  .]^^^^^^^^^^^^^^^/*.  ",
"  .(_::::::::::::::<*.  ",
"  .*[}}}}}}}}}}}}}}#*.  ",
"  .*|111111111111112*.  ",
"  .*3444444444444456*.  ",
"  .*7890000000000087*.  ",
"  .*77a3bbbbbbbbba77*.  ",
"  .*7777777777777777*.  ",
"  .*7777777777777777*.  ",
"  .*7777777777777777*.  ",
"  .*7777777777777777*.  ",
"  .*7777777777777777*.  ",
"  .+cccccccccccccccc+.  ",
"  ....................  ",
"                        ",
"                        "};
