/* XPM */
static char * shade_xpm[] = {
"22 22 289 2",
"  	c None",
". 	c #B8D9F8",
"+ 	c #B8DAF8",
"@ 	c #B4D1EC",
"# 	c #B0CAE2",
"$ 	c #B2D2F0",
"% 	c #B7D9F7",
"& 	c #B6D8F7",
"* 	c #B6D7F7",
"= 	c #B6D7F6",
"- 	c #B5D7F6",
"; 	c #B5D6F6",
"> 	c #B3D5F5",
", 	c #B2D4F5",
"' 	c #B2D5F4",
") 	c #B2D4F4",
"! 	c #B1D4F4",
"~ 	c #B0D3F1",
"{ 	c #A0B2C1",
"] 	c #A7ADB2",
"^ 	c #D5D5D6",
"/ 	c #E9E9E9",
"( 	c #F5F5F5",
"_ 	c #D7D7D8",
": 	c #ACB5BD",
"< 	c #9FB6CB",
"[ 	c #AED1F2",
"} 	c #ADD0F2",
"| 	c #ADD0F1",
"1 	c #AACEF0",
"2 	c #AACEEF",
"3 	c #AACDEF",
"4 	c #A2B8CE",
"5 	c #898B8C",
"6 	c #C4C4C4",
"7 	c #F6F6F6",
"8 	c #F7F7F7",
"9 	c #F8F8F8",
"0 	c #C5C5C5",
"a 	c #89939C",
"b 	c #9EBEDD",
"c 	c #A5CAED",
"d 	c #A5CAEC",
"e 	c #A3C8EB",
"f 	c #A2C7EA",
"g 	c #93A6B7",
"h 	c #8D8D8D",
"i 	c #D3D3D3",
"j 	c #EBEBEB",
"k 	c #EDEDED",
"l 	c #F0F0F0",
"m 	c #F2F2F2",
"n 	c #F3F3F3",
"o 	c #EEEEEE",
"p 	c #D5D5D5",
"q 	c #999B9D",
"r 	c #9AB6D1",
"s 	c #9DC3E7",
"t 	c #9AC1E5",
"u 	c #9BC2E6",
"v 	c #90A5B7",
"w 	c #898989",
"x 	c #C2C2C2",
"y 	c #E0E0E0",
"z 	c #E6E6E6",
"A 	c #EFEFEF",
"B 	c #F4F4F4",
"C 	c #C7C7C7",
"D 	c #979A9C",
"E 	c #94B3D2",
"F 	c #95BDE2",
"G 	c #95BDE1",
"H 	c #92BBE0",
"I 	c #92BBE1",
"J 	c #96B6D4",
"K 	c #7D7D7D",
"L 	c #A3A3A3",
"M 	c #DEDEDE",
"N 	c #DDDDDD",
"O 	c #B0B0B0",
"P 	c #949A9F",
"Q 	c #8CB5DB",
"R 	c #8DB6DD",
"S 	c #8AB5DB",
"T 	c #8BB5DB",
"U 	c #8B959D",
"V 	c #868686",
"W 	c #BFBFBF",
"X 	c #F1F1F1",
"Y 	c #E4E4E4",
"Z 	c #686868",
"` 	c #CCCCCC",
" .	c #ECECEC",
"..	c #CBCBCB",
"+.	c #A5A5A5",
"@.	c #869EB3",
"#.	c #85B0D8",
"$.	c #83AED6",
"%.	c #88ADCF",
"&.	c #949494",
"*.	c #E5E5E5",
"=.	c #7C7C7C",
"-.	c #080808",
";.	c #4F4F4F",
">.	c #B4B4B4",
",.	c #8B9299",
"'.	c #7DAAD3",
").	c #7BA8D2",
"!.	c #8DA2B5",
"~.	c #A0A0A0",
"{.	c #B7B7B7",
"].	c #DADADA",
"^.	c #E2E2E2",
"/.	c #E7E7E7",
"(.	c #A1A1A1",
"_.	c #1B1B1B",
":.	c #0F0F0F",
"<.	c #0A0A0A",
"[.	c #838383",
"}.	c #E8E8E8",
"|.	c #E3E3E3",
"1.	c #DBDBDB",
"2.	c #B6B6B6",
"3.	c #9B9C9C",
"4.	c #779FC3",
"5.	c #73A1CC",
"6.	c #8F9DAA",
"7.	c #9E9E9E",
"8.	c #AAAAAA",
"9.	c #E1E1E1",
"0.	c #BABABA",
"a.	c #343434",
"b.	c #1A1A1A",
"c.	c #151515",
"d.	c #101010",
"e.	c #1C1C1C",
"f.	c #B1B1B1",
"g.	c #DFDFDF",
"h.	c #DCDCDC",
"i.	c #7E9CB9",
"j.	c #6B9BC7",
"k.	c #929CA5",
"l.	c #A7A7A7",
"m.	c #B5B5B5",
"n.	c #C1C1C1",
"o.	c #C9C9C9",
"p.	c #525252",
"q.	c #242424",
"r.	c #212121",
"s.	c #171717",
"t.	c #121212",
"u.	c #414141",
"v.	c #CDCDCD",
"w.	c #829DB6",
"x.	c #6394C2",
"y.	c #949FAA",
"z.	c #ADADAD",
"A.	c #C0C0C0",
"B.	c #C3C3C3",
"C.	c #D2D2D2",
"D.	c #717171",
"E.	c #2C2C2C",
"F.	c #2B2B2B",
"G.	c #262626",
"H.	c #222222",
"I.	c #1D1D1D",
"J.	c #181818",
"K.	c #111111",
"L.	c #6F6F6F",
"M.	c #D7D7D7",
"N.	c #7E9BB6",
"O.	c #5B8EBD",
"P.	c #8E9EAE",
"Q.	c #C8C8C8",
"R.	c #818181",
"S.	c #2F2F2F",
"T.	c #323232",
"U.	c #2D2D2D",
"V.	c #282828",
"W.	c #232323",
"X.	c #1E1E1E",
"Y.	c #939393",
"Z.	c #D4D4D4",
"`.	c #7094B6",
" +	c #5387B8",
".+	c #7D99B3",
"++	c #B2B2B2",
"@+	c #BBBBBB",
"#+	c #5A5A5A",
"$+	c #505050",
"%+	c #4E4E4E",
"&+	c #545454",
"*+	c #515151",
"=+	c #4B4B4B",
"-+	c #444444",
";+	c #3D3D3D",
">+	c #585858",
",+	c #BCBCBC",
"'+	c #C7C8C9",
")+	c #5485B3",
"!+	c #4B81B3",
"~+	c #5587B4",
"{+	c #AEAEAF",
"]+	c #CACACA",
"^+	c #D9D9D9",
"/+	c #C6C6C6",
"(+	c #BDBDBD",
"_+	c #B9B9B9",
":+	c #B8B8B8",
"<+	c #BEBEBE",
"[+	c #A8B5C1",
"}+	c #457CB0",
"|+	c #437AAE",
"1+	c #90A2B2",
"2+	c #D0D0D0",
"3+	c #CECECE",
"4+	c #D8D8D8",
"5+	c #668DB1",
"6+	c #3D76AA",
"7+	c #3B74A9",
"8+	c #4D7EAD",
"9+	c #B9BBBC",
"0+	c #AFBECB",
"a+	c #3670A6",
"b+	c #356FA5",
"c+	c #336EA4",
"d+	c #336DA3",
"e+	c #336DA4",
"f+	c #6188AC",
"g+	c #C8C8C9",
"h+	c #CBD4DB",
"i+	c #3A70A3",
"j+	c #2E69A1",
"k+	c #2D69A1",
"l+	c #2B679F",
"m+	c #2A679F",
"n+	c #5F86AB",
"o+	c #CCCED0",
"p+	c #C6D1DB",
"q+	c #3B70A1",
"r+	c #25639C",
"s+	c #25629B",
"t+	c #25629C",
"u+	c #23609A",
"v+	c #22609A",
"w+	c #236099",
"x+	c #226099",
"y+	c #4073A2",
"z+	c #B7C2CC",
"A+	c #EAEAEA",
"B+	c #E5E6E7",
"C+	c #7F9FBE",
"D+	c #205E97",
"E+	c #1F5D96",
"F+	c #1D5C96",
"G+	c #1E5C97",
"H+	c #1B5A95",
"I+	c #1B5A94",
"J+	c #1A5A94",
"K+	c #1A5994",
"L+	c #1A5993",
"M+	c #4C79A5",
"N+	c #8BA5BE",
"O+	c #C1CDD9",
"P+	c #DCE0E4",
"Q+	c #D3DAE0",
"R+	c #BBC9D7",
"S+	c #789ABB",
"T+	c #2E679B",
"U+	c #175692",
"V+	c #175691",
"W+	c #165792",
"X+	c #165691",
"Y+	c #155692",
"Z+	c #135490",
"`+	c #135390",
" @	c #125390",
".@	c #12528F",
"+@	c #12538F",
"@@	c #12528E",
"#@	c #11528F",
"$@	c #11528E",
"%@	c #10518E",
"&@	c #10518D",
"*@	c #0F518D",
"=@	c #0F508D",
"-@	c #0E4F8C",
";@	c #0E508C",
">@	c #0D4F8C",
". . . . . + . . . . @ # $ % & & & * = - - ; ",
"> , ' ) ! ! ~ { ] ^ / ( / _ : < [ [ [ } | | ",
"1 2 2 3 3 4 5 6 7 8 9 9 9 9 7 0 a b c d d d ",
"e f f f g h i j k l m n n m l o p q r s s s ",
"t u t v w x y z j A m B B m l j z C D E F G ",
"H I J K L p M z k n 8 m 9 8 n k z N O P Q R ",
"S T U V W i y j X n Y Z ` ( B m  .y ..+.@.#.",
"$.%.w &.0 p *.j k / =.-.;.y A o j z p >.,.'.",
").!.&.~.{.].^.*./.(._.:.<.[./.}.z |.1.2.3.4.",
"5.6.7.8.>.1.M 9.0.a.b.c.d.e.f.Y ^.g.h.>.8.i.",
"j.k.l.m.n.o.h.` p.q.r.e.s.t.u.v.g.N v.x m.w.",
"x.y.z.A.` B.C.D.E.F.G.H.I.J.K.L.M.].B.v.W N.",
"O.P.O Q.i Q.R.S.T.T.U.V.W.X.b.e.Y.B...Z.Q.`.",
" +.+++..].@+#+$+%+$+&+*+;.=+-+;+>+,+i h.'+)+",
"!+~+{+]+g.^+` /+n.(+0._+:+_+@+<+x p h.y [+}+",
"|+|+1+0 g.y N M.i 2+v.` ` 3+2+i 4+M y 9.5+6+",
"7+7+8+9+4+|.9.g.N ].4+M.M.4+].N g.9.Y 0+a+b+",
"c+d+e+f+g+*.Y |.9.y g.g.g.y y ^.|.*.h+i+j+k+",
"l+l+m+m+n+o+}.z *.Y |.|.|.|.Y *./.p+q+r+s+t+",
"u+v+w+v+x+y+z+A+/ }././././.}.B+C+D+E+F+F+G+",
"H+I+I+J+K+K+L+M+N+O+P+/ Q+R+S+T+U+V+W+X+X+Y+",
"Z+`+`+ @.@+@@@#@$@$@$@%@%@&@*@&@=@=@-@;@-@>@"};
