/* XPM */
static char * shadeun_xpm[] = {
"22 22 335 2",
"  	c None",
". 	c #FFFFFE",
"+ 	c #FEFFFE",
"@ 	c #FEFFFF",
"# 	c #FFFEFF",
"$ 	c #FFFFFF",
"% 	c #FEFEFF",
"& 	c #F1F1F1",
"* 	c #E4E4E4",
"= 	c #F6F6F6",
"- 	c #F7F9F9",
"; 	c #F8F8F9",
"> 	c #F7F8F9",
", 	c #F6F7F7",
"' 	c #BABBBB",
") 	c #9E9E9E",
"! 	c #BABABA",
"~ 	c #CDCDCD",
"{ 	c #D9D9D9",
"] 	c #BBBCBC",
"^ 	c #ADACAD",
"/ 	c #CACACB",
"( 	c #F9F9FA",
"_ 	c #F8FAFA",
": 	c #F9FAFB",
"< 	c #FAF9FA",
"[ 	c #F0F2F3",
"} 	c #F1F2F3",
"| 	c #F1F3F4",
"1 	c #F2F3F4",
"2 	c #C8C8C9",
"3 	c #6C6C6D",
"4 	c #A1A1A2",
"5 	c #D3D4D4",
"6 	c #D4D4D5",
"7 	c #D5D5D5",
"8 	c #D5D4D5",
"9 	c #D3D2D3",
"0 	c #A1A2A2",
"a 	c #898A8A",
"b 	c #E1E1E2",
"c 	c #F2F4F5",
"d 	c #F2F3F5",
"e 	c #F3F3F4",
"f 	c #EAECEE",
"g 	c #EBECEE",
"h 	c #EAEDEE",
"i 	c #A9ABAB",
"j 	c #636363",
"k 	c #AAA9A9",
"l 	c #C1C1C2",
"m 	c #C4C3C3",
"n 	c #C6C6C7",
"o 	c #C8C8C8",
"p 	c #C9C9C9",
"q 	c #C7C8C8",
"r 	c #C5C6C6",
"s 	c #C3C3C3",
"t 	c #AAABAA",
"u 	c #767676",
"v 	c #CDCFD0",
"w 	c #EBEDF0",
"x 	c #ECEDEF",
"y 	c #EBEEEF",
"z 	c #E3E6E9",
"A 	c #E4E6E9",
"B 	c #A6A7A9",
"C 	c #595858",
"D 	c #919292",
"E 	c #AFAFB0",
"F 	c #B5B5B6",
"G 	c #BEBEBE",
"H 	c #C1C0C1",
"I 	c #C2C3C3",
"J 	c #C1C1C1",
"K 	c #BFBEBF",
"L 	c #B9B9B9",
"M 	c #B4B4B4",
"N 	c #959596",
"O 	c #6E6E70",
"P 	c #CED0D2",
"Q 	c #E5E7EA",
"R 	c #E5E8EA",
"S 	c #DDE0E3",
"T 	c #CBCDD0",
"U 	c #454546",
"V 	c #6B6B6C",
"W 	c #9D9D9E",
"X 	c #A6A6A7",
"Y 	c #AEAEAE",
"Z 	c #B5B5B5",
"` 	c #BBBABB",
" .	c #BFBFBF",
"..	c #B9BABB",
"+.	c #C0C0C0",
"@.	c #BEBFBF",
"#.	c #B5B4B5",
"$.	c #ADADAE",
"%.	c #A4A4A5",
"&.	c #777777",
"*.	c #727274",
"=.	c #DCDFE1",
"-.	c #DEE1E5",
";.	c #D6D9DD",
">.	c #D6DADD",
",.	c #737575",
"'.	c #474748",
").	c #808181",
"!.	c #959495",
"~.	c #A1A1A1",
"{.	c #ACACAD",
"].	c #B2B2B3",
"^.	c #B4B4B5",
"/.	c #A5A5A5",
"(.	c #28292A",
"_.	c #8D8D8D",
":.	c #B4B5B4",
"<.	c #ACACAC",
"[.	c #A0A0A0",
"}.	c #8B8B8C",
"|.	c #656565",
"1.	c #A0A2A4",
"2.	c #D7DBDF",
"3.	c #CFD4D8",
"4.	c #C2C7CA",
"5.	c #434444",
"6.	c #4E4F4E",
"7.	c #7F7F80",
"8.	c #8F8F8F",
"9.	c #9FA0A0",
"0.	c #A5A5A6",
"a.	c #A7A7A7",
"b.	c #A3A3A3",
"c.	c #353636",
"d.	c #000000",
"e.	c #090809",
"f.	c #99999A",
"g.	c #A8A9A9",
"h.	c #A8A7A7",
"i.	c #9F9F9F",
"j.	c #8E8E8E",
"k.	c #6D6D6D",
"l.	c #656767",
"m.	c #D1D5D9",
"n.	c #C9CED2",
"o.	c #95979A",
"p.	c #484748",
"q.	c #535354",
"r.	c #6A6B6B",
"s.	c #8D8D8E",
"t.	c #959595",
"u.	c #989898",
"v.	c #9A9A9A",
"w.	c #545354",
"x.	c #353536",
"y.	c #999A9A",
"z.	c #9A9A9B",
"A.	c #989899",
"B.	c #676768",
"C.	c #4E4D4F",
"D.	c #BABFC3",
"E.	c #C2C8CD",
"F.	c #797B7D",
"G.	c #4A4B4B",
"H.	c #575657",
"I.	c #616161",
"J.	c #878788",
"K.	c #8A8A8B",
"L.	c #8D8C8E",
"M.	c #666666",
"N.	c #5C5C5D",
"O.	c #8F8F90",
"P.	c #878687",
"Q.	c #5F5F5F",
"R.	c #555455",
"S.	c #A4A7AB",
"T.	c #BBC1C8",
"U.	c #68696B",
"V.	c #4C4C4D",
"W.	c #5A5A5B",
"X.	c #666667",
"Y.	c #6E6E6E",
"Z.	c #808182",
"`.	c #717171",
" +	c #838384",
".+	c #818182",
"++	c #666566",
"@+	c #585959",
"#+	c #979B9E",
"$+	c #B4BCC2",
"%+	c #696A6D",
"&+	c #4B4B4C",
"*+	c #5E5E5F",
"=+	c #6A6A6B",
"-+	c #616162",
";+	c #707071",
">+	c #0F0F10",
",+	c #0C0B0D",
"'+	c #747475",
")+	c #777678",
"!+	c #5F6061",
"~+	c #69696B",
"{+	c #5C5C5C",
"]+	c #969A9E",
"^+	c #AEB6BD",
"/+	c #727578",
"(+	c #5F5F60",
"_+	c #5F5E60",
":+	c #171819",
"<+	c #292829",
"[+	c #595959",
"}+	c #606161",
"|+	c #6A696A",
"1+	c #5D5E5E",
"2+	c #9AA0A5",
"3+	c #A7B0B7",
"4+	c #888C92",
"5+	c #424243",
"6+	c #5B5B5C",
"7+	c #A2A9B1",
"8+	c #A1A9B2",
"9+	c #9EA5AE",
"0+	c #383839",
"a+	c #686869",
"b+	c #626263",
"c+	c #555456",
"d+	c #4E4F50",
"e+	c #4A494B",
"f+	c #454547",
"g+	c #424244",
"h+	c #424142",
"i+	c #404041",
"j+	c #414142",
"k+	c #424344",
"l+	c #464647",
"m+	c #4A4A4A",
"n+	c #5D5C5D",
"o+	c #636365",
"p+	c #747779",
"q+	c #A2AAB3",
"r+	c #99A3AC",
"s+	c #6A6E71",
"t+	c #606162",
"u+	c #5E5F60",
"v+	c #555555",
"w+	c #525153",
"x+	c #4E4F4F",
"y+	c #4D4D4E",
"z+	c #4F4F50",
"A+	c #515152",
"B+	c #545454",
"C+	c #58585A",
"D+	c #606061",
"E+	c #616263",
"F+	c #8F969C",
"G+	c #9BA5AE",
"H+	c #939DA7",
"I+	c #919AA3",
"J+	c #3C3D3E",
"K+	c #5E5D5F",
"L+	c #59595B",
"M+	c #575759",
"N+	c #525253",
"O+	c #515253",
"P+	c #545455",
"Q+	c #565758",
"R+	c #58595A",
"S+	c #5D5D5E",
"T+	c #75777A",
"U+	c #949EA8",
"V+	c #959FA9",
"W+	c #8C97A2",
"X+	c #8C97A1",
"Y+	c #818990",
"Z+	c #3F4041",
"`+	c #59595A",
" @	c #565757",
".@	c #545556",
"+@	c #535355",
"@@	c #525254",
"#@	c #535254",
"$@	c #535353",
"%@	c #545456",
"&@	c #565556",
"*@	c #585759",
"=@	c #6F7073",
"-@	c #8B959E",
";@	c #8D99A3",
">@	c #8E98A2",
",@	c #86919C",
"'@	c #85919C",
")@	c #7D848B",
"!@	c #474749",
"~@	c #525354",
"{@	c #525152",
"]@	c #505052",
"^@	c #4F5051",
"/@	c #505151",
"(@	c #6E7173",
"_@	c #859099",
":@	c #87929D",
"<@	c #7E8B97",
"[@	c #7F8B96",
"}@	c #7F8B97",
"|@	c #7F8C97",
"1@	c #7C868F",
"2@	c #5A5B5F",
"3@	c #4F4F51",
"4@	c #4E4E4F",
"5@	c #4D4D4F",
"6@	c #4C4C4E",
"7@	c #4C4B4D",
"8@	c #80878E",
"9@	c #7E8B95",
"0@	c #808C97",
"a@	c #808C98",
"b@	c #808D98",
"c@	c #788591",
"d@	c #78818B",
"e@	c #70767C",
"f@	c #66686B",
"g@	c #545557",
"h@	c #48484A",
"i@	c #58595D",
"j@	c #6A6D70",
"k@	c #7A8590",
"l@	c #798692",
"m@	c #7A8692",
"n@	c #7A8792",
"o@	c #717F8C",
"p@	c #717F8B",
"q@	c #727F8C",
"r@	c #72808C",
"s@	c #72808D",
"t@	c #73808D",
". + @ . # $ % $ $ # & * = $ $ $ $ $ $ $ $ $ ",
"- ; ; > ; ; , ' ) ! ~ { ~ ] ^ / ( ( _ ( : < ",
"[ } } | 1 2 3 4 5 6 7 7 8 8 9 0 a b c c d e ",
"f f g h i j k l m n o p p q r s t u v w x y ",
"z A A B C D E F ! G H I I J K L M N O P Q R ",
"S S T U V W X Y Z `  ...+.@.` #.$.%.&.*.=.-.",
";.>.,.'.).!.~.{.].^./.(._.F :.].<.[.}.|.1.2.",
"3.4.5.6.7.8.9.0.a.b.c.d.e.f.g.h.%.i.j.k.l.m.",
"n.o.p.q.r.s.t.u.v.w.d.d.d.x.y.z.A.t.s.B.C.D.",
"E.F.G.H.I.J.K.L.M.d.d.d.d.d.N.O._.K.P.Q.R.S.",
"T.U.V.W.X.Y.Z.`.d.d.d.d.d.d.d.`. +.+`.++@+#+",
"$+%+&+*+=+-+;+>+d.d.d.d.d.d.d.,+'+)+!+~+{+]+",
"^+/+p.(+=+_+:+d.d.d.d.d.d.d.d.d.<+[+}+|+1+2+",
"3+4+5+6+=+&+d.d.d.d.d.d.d.d.d.d.d.&+-+r.6+7+",
"8+9+0+q.a+b+c+d+e+f+g+h+i+j+k+l+m+n+o+B.p+q+",
"r+r+s+'.t+b+u+@+v+w+x+y+y+z+A+B+C+_+D+E+F+G+",
"H+H+I+J+q.K+N.L+M+R.N+A+A+O+P+Q+R+W.S+T+U+V+",
"W+X+X+Y+Z+`+M+ @.@+@N+@@w+#@$@%@&@*@=@-@;@>@",
",@'@'@,@)@!@c+~@{@]@z+z+z+d+^@/@#@(@_@:@:@:@",
"<@[@}@|@}@1@2@3@4@5@V.6@7@V.y+O+8@9@0@a@b@a@",
"c@c@c@c@c@c@c@d@e@f@g@h@i@j@)@k@l@m@l@n@l@m@",
"o@o@p@o@o@q@o@q@q@q@q@r@r@r@r@r@r@s@t@s@r@r@"};
