/* XPM */
static char * stick_xpm[] = {
"22 22 251 2",
"  	c None",
". 	c #B8D9F8",
"+ 	c #B8DAF8",
"@ 	c #B4D1EC",
"# 	c #B0CAE2",
"$ 	c #B2D2F0",
"% 	c #B7D9F7",
"& 	c #B6D8F7",
"* 	c #B6D7F7",
"= 	c #B6D7F6",
"- 	c #B5D7F6",
"; 	c #B5D6F6",
"> 	c #B3D5F5",
", 	c #B2D4F5",
"' 	c #B2D5F4",
") 	c #B2D4F4",
"! 	c #B1D4F4",
"~ 	c #B0D3F1",
"{ 	c #A0B2C1",
"] 	c #A7ADB2",
"^ 	c #D5D5D6",
"/ 	c #E9E9E9",
"( 	c #F5F5F5",
"_ 	c #D7D7D8",
": 	c #ACB5BD",
"< 	c #9FB6CB",
"[ 	c #AED1F2",
"} 	c #ADD0F2",
"| 	c #ADD0F1",
"1 	c #AACEF0",
"2 	c #AACEEF",
"3 	c #AACDEF",
"4 	c #A2B8CE",
"5 	c #898B8C",
"6 	c #C4C4C4",
"7 	c #F6F6F6",
"8 	c #F7F7F7",
"9 	c #F8F8F8",
"0 	c #C5C5C5",
"a 	c #89939C",
"b 	c #9EBEDD",
"c 	c #A5CAED",
"d 	c #A5CAEC",
"e 	c #A3C8EB",
"f 	c #A2C7EA",
"g 	c #93A6B7",
"h 	c #8D8D8D",
"i 	c #D3D3D3",
"j 	c #EBEBEB",
"k 	c #EDEDED",
"l 	c #F0F0F0",
"m 	c #F2F2F2",
"n 	c #F3F3F3",
"o 	c #EEEEEE",
"p 	c #D5D5D5",
"q 	c #999B9D",
"r 	c #9AB6D1",
"s 	c #9DC3E7",
"t 	c #9AC1E5",
"u 	c #9BC2E6",
"v 	c #90A5B7",
"w 	c #898989",
"x 	c #C2C2C2",
"y 	c #E0E0E0",
"z 	c #E6E6E6",
"A 	c #EFEFEF",
"B 	c #F4F4F4",
"C 	c #C7C7C7",
"D 	c #979A9C",
"E 	c #94B3D2",
"F 	c #95BDE2",
"G 	c #95BDE1",
"H 	c #92BBE0",
"I 	c #92BBE1",
"J 	c #96B6D4",
"K 	c #7D7D7D",
"L 	c #A3A3A3",
"M 	c #DEDEDE",
"N 	c #F9F9F9",
"O 	c #DDDDDD",
"P 	c #B0B0B0",
"Q 	c #949A9F",
"R 	c #8CB5DB",
"S 	c #8DB6DD",
"T 	c #8AB5DB",
"U 	c #8BB5DB",
"V 	c #8B959D",
"W 	c #868686",
"X 	c #BFBFBF",
"Y 	c #F1F1F1",
"Z 	c #ECECEC",
"` 	c #CBCBCB",
" .	c #A5A5A5",
"..	c #869EB3",
"+.	c #85B0D8",
"@.	c #83AED6",
"#.	c #88ADCF",
"$.	c #949494",
"%.	c #E5E5E5",
"&.	c #B4B4B4",
"*.	c #8B9299",
"=.	c #7DAAD3",
"-.	c #7BA8D2",
";.	c #8DA2B5",
">.	c #A0A0A0",
",.	c #B7B7B7",
"'.	c #DADADA",
").	c #E2E2E2",
"!.	c #E8E8E8",
"~.	c #EAEAEA",
"{.	c #E3E3E3",
"].	c #DBDBDB",
"^.	c #B6B6B6",
"/.	c #9B9C9C",
"(.	c #779FC3",
"_.	c #73A1CC",
":.	c #8F9DAA",
"<.	c #9E9E9E",
"[.	c #AAAAAA",
"}.	c #CACACA",
"|.	c #CDCDCD",
"1.	c #CFCFCF",
"2.	c #D0D0D0",
"3.	c #D1D1D1",
"4.	c #D2D2D2",
"5.	c #DCDCDC",
"6.	c #7E9CB9",
"7.	c #6B9BC7",
"8.	c #929CA5",
"9.	c #A7A7A7",
"0.	c #B5B5B5",
"a.	c #C1C1C1",
"b.	c #2E3335",
"c.	c #303537",
"d.	c #595C5D",
"e.	c #829DB6",
"f.	c #6394C2",
"g.	c #949FAA",
"h.	c #ADADAD",
"i.	c #C0C0C0",
"j.	c #CCCCCC",
"k.	c #AFAFAF",
"l.	c #2A2F31",
"m.	c #2E3436",
"n.	c #535859",
"o.	c #C3C3C3",
"p.	c #7E9BB6",
"q.	c #5B8EBD",
"r.	c #8E9EAE",
"s.	c #C8C8C8",
"t.	c #4B4F50",
"u.	c #4D5152",
"v.	c #515556",
"w.	c #525557",
"x.	c #6A6C6D",
"y.	c #BABABA",
"z.	c #D4D4D4",
"A.	c #7094B6",
"B.	c #5387B8",
"C.	c #7D99B3",
"D.	c #B2B2B2",
"E.	c #CECECE",
"F.	c #BBBBBB",
"G.	c #C7C8C9",
"H.	c #5485B3",
"I.	c #4B81B3",
"J.	c #5587B4",
"K.	c #AEAEAF",
"L.	c #DFDFDF",
"M.	c #C9C9C9",
"N.	c #C6C6C6",
"O.	c #A8B5C1",
"P.	c #457CB0",
"Q.	c #437AAE",
"R.	c #90A2B2",
"S.	c #D7D7D7",
"T.	c #D8D8D8",
"U.	c #E1E1E1",
"V.	c #668DB1",
"W.	c #3D76AA",
"X.	c #3B74A9",
"Y.	c #4D7EAD",
"Z.	c #B9BBBC",
"`.	c #E4E4E4",
" +	c #AFBECB",
".+	c #3670A6",
"++	c #356FA5",
"@+	c #336EA4",
"#+	c #336DA3",
"$+	c #336DA4",
"%+	c #6188AC",
"&+	c #C8C8C9",
"*+	c #CBD4DB",
"=+	c #3A70A3",
"-+	c #2E69A1",
";+	c #2D69A1",
">+	c #2B679F",
",+	c #2A679F",
"'+	c #5F86AB",
")+	c #CCCED0",
"!+	c #E7E7E7",
"~+	c #C6D1DB",
"{+	c #3B70A1",
"]+	c #25639C",
"^+	c #25629B",
"/+	c #25629C",
"(+	c #23609A",
"_+	c #22609A",
":+	c #236099",
"<+	c #226099",
"[+	c #4073A2",
"}+	c #B7C2CC",
"|+	c #E5E6E7",
"1+	c #7F9FBE",
"2+	c #205E97",
"3+	c #1F5D96",
"4+	c #1D5C96",
"5+	c #1E5C97",
"6+	c #1B5A95",
"7+	c #1B5A94",
"8+	c #1A5A94",
"9+	c #1A5994",
"0+	c #1A5993",
"a+	c #4C79A5",
"b+	c #8BA5BE",
"c+	c #C1CDD9",
"d+	c #DCE0E4",
"e+	c #D3DAE0",
"f+	c #BBC9D7",
"g+	c #789ABB",
"h+	c #2E679B",
"i+	c #175692",
"j+	c #175691",
"k+	c #165792",
"l+	c #165691",
"m+	c #155692",
"n+	c #135490",
"o+	c #135390",
"p+	c #125390",
"q+	c #12528F",
"r+	c #12538F",
"s+	c #12528E",
"t+	c #11528F",
"u+	c #11528E",
"v+	c #10518E",
"w+	c #10518D",
"x+	c #0F518D",
"y+	c #0F508D",
"z+	c #0E4F8C",
"A+	c #0E508C",
"B+	c #0D4F8C",
". . . . . + . . . . @ # $ % & & & * = - - ; ",
"> , ' ) ! ! ~ { ] ^ / ( / _ : < [ [ [ } | | ",
"1 2 2 3 3 4 5 6 7 8 9 9 9 9 7 0 a b c d d d ",
"e f f f g h i j k l m n n m l o p q r s s s ",
"t u t v w x y z j A m B B m l j z C D E F G ",
"H I J K L p M z k n 8 N N 8 n k z O P Q R S ",
"T U V W X i y j Y n ( ( ( ( B m Z y `  ...+.",
"@.#.w $.0 p %.j k A l Y Y l A o j z p &.*.=.",
"-.;.$.>.,.'.).%.!.~.j Z Z j ~.!.z {.].^./.(.",
"_.:.<.[.&.p }.|.1.2.3.4.4.3.2.1.1.M 5.&.[.6.",
"7.8.9.0.a.&.b.c.c.c.c.c.c.c.c.c.d.3.|.x 0.e.",
"f.g.h.i.j.k.l.m.m.m.m.m.m.m.m.m.n.1.o.|.X p.",
"q.r.P s.i ^.t.u.v.v.w.w.w.w.w.v.x.y.` z.s.A.",
"B.C.D.` '.2.i.y.0.X E.1.1.E.i.0.F.j.i 5.G.H.",
"I.J.K.}.L.'.z.E.M.N.o.x x o.N.}.1.p 5.y O.P.",
"Q.Q.R.0 L.y O S.i 2.|.j.j.E.2.i T.M y U.V.W.",
"X.X.Y.Z.T.{.U.L.O '.T.S.S.T.'.O L.U.`. +.+++",
"@+#+$+%+&+%.`.{.U.y L.L.L.y y ).{.%.*+=+-+;+",
">+>+,+,+'+)+!.z %.`.{.{.{.{.`.%.!+~+{+]+^+/+",
"(+_+:+_+<+[+}+~./ !.!+!+!+!+!.|+1+2+3+4+4+5+",
"6+7+7+8+9+9+0+a+b+c+d+/ e+f+g+h+i+j+k+l+l+m+",
"n+o+o+p+q+r+s+t+u+u+u+v+v+w+x+w+y+y+z+A+z+B+"};
