/* XPM */
static char * stickun_xpm[] = {
"22 22 334 2",
"  	c None",
". 	c #FFFFFE",
"+ 	c #FEFFFE",
"@ 	c #FEFFFF",
"# 	c #FFFEFF",
"$ 	c #FFFFFF",
"% 	c #FEFEFF",
"& 	c #F1F1F1",
"* 	c #E4E4E4",
"= 	c #F6F6F6",
"- 	c #F7F9F9",
"; 	c #F8F8F9",
"> 	c #F7F8F9",
", 	c #F6F7F7",
"' 	c #BABABB",
") 	c #9E9E9E",
"! 	c #B9BAB9",
"~ 	c #CCCCCC",
"{ 	c #D9D8D8",
"] 	c #CCCCCD",
"^ 	c #BBBCBC",
"/ 	c #ADACAD",
"( 	c #CACACB",
"_ 	c #F9F9FA",
": 	c #F8FAFA",
"< 	c #F9FAFB",
"[ 	c #FAF9FA",
"} 	c #F0F2F3",
"| 	c #F1F2F3",
"1 	c #F1F3F4",
"2 	c #F2F3F4",
"3 	c #C8C8C9",
"4 	c #6B6A6B",
"5 	c #A0A0A0",
"6 	c #D2D2D3",
"7 	c #D3D3D3",
"8 	c #D4D4D4",
"9 	c #D5D4D5",
"0 	c #D3D2D3",
"a 	c #A1A2A1",
"b 	c #8A8A8A",
"c 	c #E1E1E2",
"d 	c #F2F4F5",
"e 	c #F2F3F5",
"f 	c #F3F3F4",
"g 	c #EAECEE",
"h 	c #EBECEE",
"i 	c #EAEDEE",
"j 	c #A8AAAB",
"k 	c #626262",
"l 	c #A7A8A9",
"m 	c #C0C0C1",
"n 	c #C1C2C2",
"o 	c #C5C5C6",
"p 	c #C7C7C7",
"q 	c #C7C8C7",
"r 	c #C5C6C6",
"s 	c #C3C4C3",
"t 	c #AAABAB",
"u 	c #767676",
"v 	c #CDCFD0",
"w 	c #EBEDF0",
"x 	c #ECEDEF",
"y 	c #EBEEEF",
"z 	c #E3E6E9",
"A 	c #E4E6E9",
"B 	c #A6A7A8",
"C 	c #575656",
"D 	c #8F8F90",
"E 	c #AEAEAE",
"F 	c #B4B3B4",
"G 	c #B8B9BA",
"H 	c #BDBCBD",
"I 	c #BFC0C0",
"J 	c #C2C2C2",
"K 	c #BEBEBE",
"L 	c #BABAB9",
"M 	c #B4B4B4",
"N 	c #959596",
"O 	c #6F6E70",
"P 	c #CED0D2",
"Q 	c #E5E7EA",
"R 	c #E5E8EA",
"S 	c #DDE0E3",
"T 	c #CBCDCF",
"U 	c #434344",
"V 	c #6A696A",
"W 	c #9B9C9C",
"X 	c #A4A5A5",
"Y 	c #BAB9BA",
"Z 	c #C0BFC0",
"` 	c #BABABA",
" .	c #ADADAE",
"..	c #A4A4A4",
"+.	c #777778",
"@.	c #727374",
"#.	c #DCDFE1",
"$.	c #DEE1E5",
"%.	c #D6D9DD",
"&.	c #D6DADD",
"*.	c #727274",
"=.	c #454546",
"-.	c #7E7E7F",
";.	c #929293",
">.	c #9F9FA0",
",.	c #ABAAAB",
"'.	c #B0B1B1",
").	c #B2B3B3",
"!.	c #B5B5B5",
"~.	c #B4B4B5",
"{.	c #B5B5B6",
"].	c #B5B4B5",
"^.	c #B3B4B5",
"/.	c #B2B2B2",
"(.	c #ACACAC",
"_.	c #A0A0A1",
":.	c #8B8B8C",
"<.	c #656565",
"[.	c #A0A2A5",
"}.	c #D7DBDF",
"|.	c #CFD4D8",
"1.	c #C2C6CA",
"2.	c #414141",
"3.	c #4C4C4C",
"4.	c #7D7D7E",
"5.	c #8D8D8E",
"6.	c #9D9E9E",
"7.	c #A3A4A4",
"8.	c #A5A5A6",
"9.	c #A7A8A8",
"0.	c #A8A8A9",
"a.	c #A9AAAA",
"b.	c #AAA9AA",
"c.	c #A9A8A9",
"d.	c #A7A7A8",
"e.	c #9F9F9F",
"f.	c #8E8E8E",
"g.	c #6D6D6D",
"h.	c #666767",
"i.	c #D1D5D9",
"j.	c #C9CED2",
"k.	c #959799",
"l.	c #454545",
"m.	c #505152",
"n.	c #686869",
"o.	c #939393",
"p.	c #969697",
"q.	c #99999A",
"r.	c #9C9D9D",
"s.	c #9D9D9E",
"t.	c #9E9D9E",
"u.	c #9C9C9D",
"v.	c #9B9C9D",
"w.	c #9A999A",
"x.	c #979898",
"y.	c #8C8C8E",
"z.	c #676868",
"A.	c #4E4E4E",
"B.	c #BBBFC3",
"C.	c #C2C8CD",
"D.	c #77797B",
"E.	c #474748",
"F.	c #545455",
"G.	c #5D5E5E",
"H.	c #7F7F80",
"I.	c #747374",
"J.	c #777777",
"K.	c #797879",
"L.	c #7A7A7A",
"M.	c #7B7B7C",
"N.	c #7C7C7C",
"O.	c #7D7C7D",
"P.	c #7B7C7C",
"Q.	c #7A7A7B",
"R.	c #79797A",
"S.	c #797A7A",
"T.	c #888889",
"U.	c #878787",
"V.	c #5F5F5F",
"W.	c #A4A7AC",
"X.	c #BBC1C8",
"Y.	c #656769",
"Z.	c #49494A",
"`.	c #585859",
" +	c #636464",
".+	c #575758",
"++	c #000000",
"@+	c #000001",
"#+	c #747575",
"$+	c #707171",
"%+	c #656566",
"&+	c #59595A",
"*+	c #979B9E",
"=+	c #B4BCC2",
"-+	c #66686A",
";+	c #484849",
">+	c #5B5C5C",
",+	c #686868",
"'+	c #4A4A4C",
")+	c #6B6B6C",
"!+	c #5F5F60",
"~+	c #69696A",
"{+	c #969B9E",
"]+	c #AEB6BD",
"^+	c #727376",
"/+	c #444545",
"(+	c #5C5C5E",
"_+	c #676769",
":+	c #4A4B4B",
"<+	c #000103",
"[+	c #4F4F50",
"}+	c #606061",
"|+	c #5D5D5E",
"1+	c #9AA0A5",
"2+	c #A7B0B7",
"3+	c #878C91",
"4+	c #3F3F40",
"5+	c #676768",
"6+	c #4D4D4F",
"7+	c #424343",
"8+	c #4D4D4E",
"9+	c #5B5B5C",
"0+	c #5D5C5D",
"a+	c #5C5B5D",
"b+	c #4E4D4F",
"c+	c #434343",
"d+	c #48494A",
"e+	c #5A595B",
"f+	c #616162",
"g+	c #696A6A",
"h+	c #A2A9B1",
"i+	c #A1A9B2",
"j+	c #9EA5AD",
"k+	c #353536",
"l+	c #505051",
"m+	c #5B5A5B",
"n+	c #545555",
"o+	c #4C4C4D",
"p+	c #494A4A",
"q+	c #484949",
"r+	c #4A4A4B",
"s+	c #4C4D4D",
"t+	c #505052",
"u+	c #565556",
"v+	c #636364",
"w+	c #747679",
"x+	c #A2AAB3",
"y+	c #99A3AC",
"z+	c #686C6F",
"A+	c #444444",
"B+	c #5E5E5F",
"C+	c #5C5C5D",
"D+	c #565657",
"E+	c #525253",
"F+	c #4B4B4C",
"G+	c #4C4B4C",
"H+	c #505050",
"I+	c #585858",
"J+	c #605F61",
"K+	c #616062",
"L+	c #8E969C",
"M+	c #9BA5AE",
"N+	c #939DA7",
"O+	c #919AA3",
"P+	c #3A393B",
"Q+	c #4F5051",
"R+	c #5B5A5C",
"S+	c #555556",
"T+	c #525153",
"U+	c #4F4F51",
"V+	c #595A5A",
"W+	c #74767A",
"X+	c #949EA8",
"Y+	c #959FA9",
"Z+	c #8C97A2",
"`+	c #8C97A1",
" @	c #81898F",
".@	c #3C3D3E",
"+@	c #555557",
"@@	c #535455",
"#@	c #515152",
"$@	c #515153",
"%@	c #535354",
"&@	c #565658",
"*@	c #6E7072",
"=@	c #8B959E",
"-@	c #8D99A3",
";@	c #8E98A2",
">@	c #86919C",
",@	c #85919C",
"'@	c #7B838B",
")@	c #444446",
"!@	c #4E4F50",
"~@	c #4D4E4F",
"{@	c #4D4C4E",
"]@	c #4C4C4E",
"^@	c #6E7073",
"/@	c #858F99",
"(@	c #87929D",
"_@	c #7E8B97",
":@	c #7F8B96",
"<@	c #7F8B97",
"[@	c #7F8C97",
"}@	c #7C868F",
"|@	c #585A5C",
"1@	c #4B4B4D",
"2@	c #4B4A4C",
"3@	c #49494B",
"4@	c #4A494B",
"5@	c #494A4B",
"6@	c #80878E",
"7@	c #7E8B95",
"8@	c #808C97",
"9@	c #808C98",
"0@	c #808D98",
"a@	c #788591",
"b@	c #77818B",
"c@	c #6F757B",
"d@	c #64666A",
"e@	c #515255",
"f@	c #454547",
"g@	c #56585A",
"h@	c #686B6F",
"i@	c #7C838A",
"j@	c #7A8590",
"k@	c #798692",
"l@	c #7A8692",
"m@	c #7A8792",
"n@	c #717F8C",
"o@	c #717F8B",
"p@	c #727F8C",
"q@	c #72808C",
"r@	c #72808D",
"s@	c #73808D",
". + @ . # $ % $ $ # & * = $ $ $ $ $ $ $ $ $ ",
"- ; ; > ; ; , ' ) ! ~ { ] ^ / ( _ _ : _ < [ ",
"} | | 1 2 3 4 5 6 7 8 8 9 9 0 a b c d d e f ",
"g g h i j k l m n o p 3 3 q r s t u v w x y ",
"z A A B C D E F G H I J J m K L M N O P Q R ",
"S S T U V W X / F Y K Z m K ` M  ...+.@.#.$.",
"%.&.*.=.-.;.>.,.'.).!.~.{.].^./.(._.:.<.[.}.",
"|.1.2.3.4.5.6.7.8.9.0.a.b.c.9.d...e.f.g.h.i.",
"j.k.l.m.n.:.o.p.q.W r.s.t.u.v.w.x.N y.z.A.B.",
"C.D.E.F.G.H.I.J.K.L.M.N.O.P.Q.R.S.T.U.V.F.W.",
"X.Y.Z.`. +.+++++++++++++++++++++@+#+$+%+&+*+",
"=+-+;+>+,+'+++++++++++++++++++++++)+!+~+>+{+",
"]+^+/+(+_+:+++++++++++++++++++++<+[+}+V |+1+",
"2+3+4+`.5+|+6+E.7+8+9+(+0+a+b+c+d+e+f+g+9+h+",
"i+j+k+l+%+}+m+n+[+o+p+q+q+r+s+t+u+a+v+5+w+x+",
"y+y+z+A+B+!+C+D+E+[+s+F+G+6+H+E+I+|+J+K+L+M+",
"N+N+O+P+Q+R+&+.+S+T+l+U+[+t+E+S+.+V+C+W+X+Y+",
"Z+`+`+ @.@+@S+@@E+#@l+l+l+#@$@%@F.&@*@=@-@;@",
">@,@,@>@'@)@E+Q+!@~@{@8+]@8+~@[+$@^@/@(@(@(@",
"_@:@<@[@<@}@|@o+1@2@3@4@4@5@F+U+6@7@8@9@0@9@",
"a@a@a@a@a@a@a@b@c@d@e@f@g@h@i@j@k@l@k@m@k@l@",
"n@n@o@n@n@p@n@p@p@p@p@q@q@q@q@q@q@r@s@r@q@q@"};
