/* XPM */
static char * stickp_xpm[] = {
"22 22 279 2",
"  	c None",
". 	c #B8D9F8",
"+ 	c #B8DAF8",
"@ 	c #B4D1EC",
"# 	c #B0CAE2",
"$ 	c #B2D2F0",
"% 	c #B7D9F7",
"& 	c #B6D8F7",
"* 	c #B6D7F7",
"= 	c #B6D7F6",
"- 	c #B5D7F6",
"; 	c #B5D6F6",
"> 	c #B3D5F5",
", 	c #B2D4F5",
"' 	c #B2D5F4",
") 	c #B2D4F4",
"! 	c #B1D4F4",
"~ 	c #B0D3F1",
"{ 	c #A0B2C1",
"] 	c #A7ADB2",
"^ 	c #D5D5D6",
"/ 	c #E9E9E9",
"( 	c #F5F5F5",
"_ 	c #D7D7D8",
": 	c #ACB5BD",
"< 	c #9FB6CB",
"[ 	c #AED1F2",
"} 	c #ADD0F2",
"| 	c #ADD0F1",
"1 	c #AACEF0",
"2 	c #AACEEF",
"3 	c #AACDEF",
"4 	c #A2B8CE",
"5 	c #898B8C",
"6 	c #C4C4C4",
"7 	c #F6F6F6",
"8 	c #F7F7F7",
"9 	c #F8F8F8",
"0 	c #C5C5C5",
"a 	c #89939C",
"b 	c #9EBEDD",
"c 	c #A5CAED",
"d 	c #A5CAEC",
"e 	c #A3C8EB",
"f 	c #A2C7EA",
"g 	c #93A6B7",
"h 	c #8D8D8D",
"i 	c #D3D3D3",
"j 	c #EBEBEB",
"k 	c #EDEDED",
"l 	c #F0F0F0",
"m 	c #F2F2F2",
"n 	c #F3F3F3",
"o 	c #EEEEEE",
"p 	c #D5D5D5",
"q 	c #999B9D",
"r 	c #9AB6D1",
"s 	c #9DC3E7",
"t 	c #9AC1E5",
"u 	c #9BC2E6",
"v 	c #90A5B7",
"w 	c #898989",
"x 	c #C2C2C2",
"y 	c #E0E0E0",
"z 	c #E6E6E6",
"A 	c #EFEFEF",
"B 	c #F4F4F4",
"C 	c #C7C7C7",
"D 	c #979A9C",
"E 	c #94B3D2",
"F 	c #95BDE2",
"G 	c #95BDE1",
"H 	c #92BBE0",
"I 	c #92BBE1",
"J 	c #96B6D4",
"K 	c #7D7D7D",
"L 	c #A3A3A3",
"M 	c #DEDEDE",
"N 	c #DDDDDD",
"O 	c #D4D4D4",
"P 	c #F9F9F9",
"Q 	c #B0B0B0",
"R 	c #949A9F",
"S 	c #8CB5DB",
"T 	c #8DB6DD",
"U 	c #8AB5DB",
"V 	c #8BB5DB",
"W 	c #8B959D",
"X 	c #868686",
"Y 	c #BFBFBF",
"Z 	c #CDCCCC",
"` 	c #AF4242",
" .	c #C4B1B1",
"..	c #ECECEC",
"+.	c #CBCBCB",
"@.	c #A5A5A5",
"#.	c #869EB3",
"$.	c #85B0D8",
"%.	c #83AED6",
"&.	c #88ADCF",
"*.	c #949494",
"=.	c #E5E5E5",
"-.	c #CACACA",
";.	c #C82323",
">.	c #C82C2C",
",.	c #B37D7D",
"'.	c #DBDBDB",
").	c #B4B4B4",
"!.	c #8B9299",
"~.	c #7DAAD3",
"{.	c #7BA8D2",
"].	c #8DA2B5",
"^.	c #A0A0A0",
"/.	c #B7B7B7",
"(.	c #DADADA",
"_.	c #E2E2E2",
":.	c #CB2525",
"<.	c #EF2929",
"[.	c #DC2626",
"}.	c #B34F4F",
"|.	c #C2B6B6",
"1.	c #E8E8E8",
"2.	c #E3E3E3",
"3.	c #B6B6B6",
"4.	c #9B9C9C",
"5.	c #779FC3",
"6.	c #73A1CC",
"7.	c #8F9DAA",
"8.	c #9E9E9E",
"9.	c #AAAAAA",
"0.	c #E1E1E1",
"a.	c #C3C3C3",
"b.	c #CA2626",
"c.	c #EA2828",
"d.	c #C23131",
"e.	c #B08686",
"f.	c #DFDFDF",
"g.	c #DCDCDC",
"h.	c #7E9CB9",
"i.	c #6B9BC7",
"j.	c #929CA5",
"k.	c #A7A7A7",
"l.	c #B5B5B5",
"m.	c #C1C1C1",
"n.	c #C9C9C9",
"o.	c #CA2828",
"p.	c #D62626",
"q.	c #AD5757",
"r.	c #C7C0C0",
"s.	c #CDCDCD",
"t.	c #829DB6",
"u.	c #6394C2",
"v.	c #949FAA",
"w.	c #ADADAD",
"x.	c #C0C0C0",
"y.	c #CCCCCC",
"z.	c #C82828",
"A.	c #E72828",
"B.	c #B63838",
"C.	c #B6A3A3",
"D.	c #7E9BB6",
"E.	c #5B8EBD",
"F.	c #8E9EAE",
"G.	c #C8C8C8",
"H.	c #BEBEBE",
"I.	c #C82A2A",
"J.	c #DB2626",
"K.	c #AD5353",
"L.	c #BCB6B6",
"M.	c #7094B6",
"N.	c #5387B8",
"O.	c #7D99B3",
"P.	c #B2B2B2",
"Q.	c #D2D2D2",
"R.	c #C62A2A",
"S.	c #EE2929",
"T.	c #CB2929",
"U.	c #A97171",
"V.	c #BBBBBB",
"W.	c #C7C8C9",
"X.	c #5485B3",
"Y.	c #4B81B3",
"Z.	c #5587B4",
"`.	c #AEAEAF",
" +	c #CECECE",
".+	c #AFAFAF",
"++	c #C52B2B",
"@+	c #E92828",
"#+	c #B93232",
"$+	c #9E8282",
"%+	c #BCBCBC",
"&+	c #C6C6C6",
"*+	c #CFCFCF",
"=+	c #A8B5C1",
"-+	c #457CB0",
";+	c #437AAE",
">+	c #90A2B2",
",+	c #D7D7D7",
"'+	c #B8B8B8",
")+	c #BB2A2A",
"!+	c #AA4646",
"~+	c #ACA3A3",
"{+	c #D0D0D0",
"]+	c #D8D8D8",
"^+	c #668DB1",
"/+	c #3D76AA",
"(+	c #3B74A9",
"_+	c #4D7EAD",
":+	c #B9BBBC",
"<+	c #A86565",
"[+	c #E4E4E4",
"}+	c #AFBECB",
"|+	c #3670A6",
"1+	c #356FA5",
"2+	c #336EA4",
"3+	c #336DA3",
"4+	c #336DA4",
"5+	c #6188AC",
"6+	c #C8C8C9",
"7+	c #CBD4DB",
"8+	c #3A70A3",
"9+	c #2E69A1",
"0+	c #2D69A1",
"a+	c #2B679F",
"b+	c #2A679F",
"c+	c #5F86AB",
"d+	c #CCCED0",
"e+	c #E7E7E7",
"f+	c #C6D1DB",
"g+	c #3B70A1",
"h+	c #25639C",
"i+	c #25629B",
"j+	c #25629C",
"k+	c #23609A",
"l+	c #22609A",
"m+	c #236099",
"n+	c #226099",
"o+	c #4073A2",
"p+	c #B7C2CC",
"q+	c #EAEAEA",
"r+	c #E5E6E7",
"s+	c #7F9FBE",
"t+	c #205E97",
"u+	c #1F5D96",
"v+	c #1D5C96",
"w+	c #1E5C97",
"x+	c #1B5A95",
"y+	c #1B5A94",
"z+	c #1A5A94",
"A+	c #1A5994",
"B+	c #1A5993",
"C+	c #4C79A5",
"D+	c #8BA5BE",
"E+	c #C1CDD9",
"F+	c #DCE0E4",
"G+	c #D3DAE0",
"H+	c #BBC9D7",
"I+	c #789ABB",
"J+	c #2E679B",
"K+	c #175692",
"L+	c #175691",
"M+	c #165792",
"N+	c #165691",
"O+	c #155692",
"P+	c #135490",
"Q+	c #135390",
"R+	c #125390",
"S+	c #12528F",
"T+	c #12538F",
"U+	c #12528E",
"V+	c #11528F",
"W+	c #11528E",
"X+	c #10518E",
"Y+	c #10518D",
"Z+	c #0F518D",
"`+	c #0F508D",
" @	c #0E4F8C",
".@	c #0E508C",
"+@	c #0D4F8C",
". . . . . + . . . . @ # $ % & & & * = - - ; ",
"> , ' ) ! ! ~ { ] ^ / ( / _ : < [ [ [ } | | ",
"1 2 2 3 3 4 5 6 7 8 9 9 9 9 7 0 a b c d d d ",
"e f f f g h i j k l m n n m l o p q r s s s ",
"t u t v w x y z j A m B B m l j z C D E F G ",
"H I J K L p M z N O 8 P P 8 n k z N Q R S T ",
"U V W X Y i y j Z `  .o ( ( B m ..y +.@.#.$.",
"%.&.w *.0 p =.j -.;.>.,.'.l A o j z p ).!.~.",
"{.].*.^./.(._.=.C :.<.[.}.|.z 1.z 2.'.3.4.5.",
"6.7.8.9.).'.M 0.a.b.<.<.c.d.e.O _.f.g.).9.h.",
"i.j.k.l.m.n.g.f.x o.<.<.<.<.p.q.r.N s.x l.t.",
"u.v.w.x.y.a.(.g.x.z.<.<.<.<.A.B.C.(.a.s.Y D.",
"E.F.Q G.i -.a.n.H.I.<.<.<.J.K.L.y.a.+.O G.M.",
"N.O.P.+.(.Q.+.0 k.R.<.S.T.U.V.x.0 y.i g.W.X.",
"Y.Z.`.-.f.(.O  +.+++@+#+$+%+&+-.*+p g.y =+-+",
";+;+>+0 f.y N ,+'+)+!+~++. +{+i ]+M y 0.^+/+",
"(+(+_+:+]+2.0.f.x <+a.,+,+]+(.N f.0.[+}+|+1+",
"2+3+4+5+6+=.[+2.M (.f.f.f.y y _.2.=.7+8+9+0+",
"a+a+b+b+c+d+1.z =.[+2.2.2.2.[+=.e+f+g+h+i+j+",
"k+l+m+l+n+o+p+q+/ 1.e+e+e+e+1.r+s+t+u+v+v+w+",
"x+y+y+z+A+A+B+C+D+E+F+/ G+H+I+J+K+L+M+N+N+O+",
"P+Q+Q+R+S+T+U+V+W+W+W+X+X+Y+Z+Y+`+`+ @.@ @+@"};
