/* XPM */
static char * stuckun_xpm[] = {
"22 22 363 2",
"  	c None",
". 	c #FFFFFE",
"+ 	c #FEFFFE",
"@ 	c #FEFFFF",
"# 	c #FFFEFF",
"$ 	c #FFFFFF",
"% 	c #FEFEFF",
"& 	c #F1F1F1",
"* 	c #E4E4E4",
"= 	c #F6F6F6",
"- 	c #F7F9F9",
"; 	c #F8F8F9",
"> 	c #F7F8F9",
", 	c #F6F7F7",
"' 	c #BABBBB",
") 	c #9E9E9E",
"! 	c #B9BAB9",
"~ 	c #CCCDCC",
"{ 	c #D8D8D8",
"] 	c #CDCCCD",
"^ 	c #BCBCBB",
"/ 	c #ACADAD",
"( 	c #CACACB",
"_ 	c #F9F9FA",
": 	c #F8FAFA",
"< 	c #F9FAFB",
"[ 	c #FAF9FA",
"} 	c #F0F2F3",
"| 	c #F1F2F3",
"1 	c #F1F3F4",
"2 	c #F2F3F4",
"3 	c #C8C8C9",
"4 	c #6B6B6C",
"5 	c #A1A0A1",
"6 	c #D2D2D2",
"7 	c #D3D3D4",
"8 	c #D4D4D4",
"9 	c #D4D4D5",
"0 	c #D4D5D5",
"a 	c #D5D4D5",
"b 	c #A1A2A2",
"c 	c #89898A",
"d 	c #E1E1E2",
"e 	c #F2F4F5",
"f 	c #F2F3F5",
"g 	c #F3F3F4",
"h 	c #EAECEE",
"i 	c #EBECEE",
"j 	c #EAEDEE",
"k 	c #A9AAAB",
"l 	c #626262",
"m 	c #A8A8A8",
"n 	c #C0C0C1",
"o 	c #C2C2C2",
"p 	c #C5C5C6",
"q 	c #C7C7C8",
"r 	c #C8C8C8",
"s 	c #C7C7C7",
"t 	c #C3C3C4",
"u 	c #AAAAAA",
"v 	c #767676",
"w 	c #CDCFD0",
"x 	c #EBEDF0",
"y 	c #ECEDEF",
"z 	c #EBEEEF",
"A 	c #E3E6E9",
"B 	c #E4E6E9",
"C 	c #A6A7A8",
"D 	c #575757",
"E 	c #909090",
"F 	c #AEAEAE",
"G 	c #B4B4B4",
"H 	c #B9B9B9",
"I 	c #BDBDBE",
"J 	c #C2C1C3",
"K 	c #BFC0C1",
"L 	c #BEBDBE",
"M 	c #959595",
"N 	c #6E6E70",
"O 	c #CED0D2",
"P 	c #E5E7EA",
"Q 	c #E5E8EA",
"R 	c #DDE0E3",
"S 	c #CBCDCF",
"T 	c #444445",
"U 	c #6A6A6A",
"V 	c #9C9C9C",
"W 	c #A5A4A5",
"X 	c #ADADAE",
"Y 	c #B4B3B4",
"Z 	c #B3B3B3",
"` 	c #A6A6A7",
" .	c #A9A9AA",
"..	c #BDBDBD",
"+.	c #BABABB",
"@.	c #A4A3A4",
"#.	c #777777",
"$.	c #727373",
"%.	c #DCDFE1",
"&.	c #DEE1E5",
"*.	c #D6D9DD",
"=.	c #D6DADD",
"-.	c #727374",
";.	c #454647",
">.	c #7E7E7F",
",.	c #939393",
"'.	c #9F9FA0",
").	c #ABAAAB",
"!.	c #B1B0B1",
"~.	c #9B9B9B",
"{.	c #900000",
"].	c #960000",
"^.	c #8D1C1D",
"/.	c #A9A9A9",
"(.	c #B3B4B4",
"_.	c #B2B1B2",
":.	c #ABACAC",
"<.	c #A0A0A0",
"[.	c #8B8A8B",
"}.	c #656565",
"|.	c #A0A2A5",
"1.	c #D7DBDF",
"2.	c #CFD4D8",
"3.	c #C2C6CA",
"4.	c #424242",
"5.	c #4C4C4E",
"6.	c #7D7D7E",
"7.	c #8D8D8E",
"8.	c #9D9D9E",
"9.	c #A3A3A4",
"0.	c #A5A6A6",
"a.	c #918F90",
"b.	c #910000",
"c.	c #A70000",
"d.	c #851314",
"e.	c #9C9C9D",
"f.	c #A7A7A8",
"g.	c #A7A7A7",
"h.	c #A3A4A4",
"i.	c #9F9E9F",
"j.	c #8D8E8E",
"k.	c #6D6D6D",
"l.	c #656667",
"m.	c #D1D5D9",
"n.	c #C9CED2",
"o.	c #95979A",
"p.	c #454546",
"q.	c #525252",
"r.	c #696869",
"s.	c #8B8B8C",
"t.	c #949394",
"u.	c #969796",
"v.	c #999A99",
"w.	c #848384",
"x.	c #890000",
"y.	c #A00000",
"z.	c #7D0B0B",
"A.	c #929292",
"B.	c #9C9B9C",
"C.	c #99999A",
"D.	c #979798",
"E.	c #959495",
"F.	c #8C8C8D",
"G.	c #686768",
"H.	c #4D4D4E",
"I.	c #BABFC3",
"J.	c #C2C8CD",
"K.	c #77797B",
"L.	c #484848",
"M.	c #545454",
"N.	c #5E5E5F",
"O.	c #807F80",
"P.	c #747475",
"Q.	c #79797A",
"R.	c #737172",
"S.	c #820000",
"T.	c #990000",
"U.	c #740203",
"V.	c #777778",
"W.	c #7B7A7A",
"X.	c #7A797A",
"Y.	c #888889",
"Z.	c #868687",
"`.	c #5F5E5E",
" +	c #545555",
".+	c #A4A7AB",
"++	c #BBC1C8",
"@+	c #666769",
"#+	c #4A4A4B",
"$+	c #585859",
"%+	c #646465",
"&+	c #585758",
"*+	c #720000",
"=+	c #790000",
"-+	c #8C0000",
";+	c #920000",
">+	c #6B0000",
",+	c #707071",
"'+	c #656566",
")+	c #979B9E",
"!+	c #B4BCC2",
"~+	c #66696A",
"{+	c #49494A",
"]+	c #5C5B5D",
"^+	c #686868",
"/+	c #4C4A4B",
"(+	c #730000",
"_+	c #8A0000",
":+	c #8B0000",
"<+	c #640000",
"[+	c #6B6B6B",
"}+	c #5E5F60",
"|+	c #69696A",
"1+	c #5B5B5C",
"2+	c #969A9E",
"3+	c #AEB6BD",
"4+	c #717476",
"5+	c #5D5D5D",
"6+	c #676768",
"7+	c #4B4B4B",
"8+	c #570000",
"9+	c #5A0000",
"0+	c #5E0000",
"a+	c #5F0000",
"b+	c #780000",
"c+	c #840000",
"d+	c #6A0000",
"e+	c #5D0000",
"f+	c #510000",
"g+	c #4F4F50",
"h+	c #605F60",
"i+	c #5C5D5E",
"j+	c #9AA0A4",
"k+	c #A7B0B7",
"l+	c #878C91",
"m+	c #3F4040",
"n+	c #595959",
"o+	c #686769",
"p+	c #5D5D5F",
"q+	c #484749",
"r+	c #424243",
"s+	c #404041",
"t+	c #650000",
"u+	c #7D0000",
"v+	c #540000",
"w+	c #4D4E4F",
"x+	c #424244",
"y+	c #49484A",
"z+	c #5A595A",
"A+	c #606162",
"B+	c #696A6A",
"C+	c #5A5B5C",
"D+	c #A2A9B1",
"E+	c #A1A9B2",
"F+	c #9EA5AD",
"G+	c #353637",
"H+	c #505051",
"I+	c #606161",
"J+	c #555456",
"K+	c #505050",
"L+	c #3A383A",
"M+	c #750000",
"N+	c #460000",
"O+	c #4D4C4E",
"P+	c #505151",
"Q+	c #555556",
"R+	c #5B5C5D",
"S+	c #626364",
"T+	c #666767",
"U+	c #737678",
"V+	c #A2AAB3",
"W+	c #99A3AC",
"X+	c #696C70",
"Y+	c #444446",
"Z+	c #5F5F60",
"`+	c #5C5C5D",
" @	c #565657",
".@	c #525253",
"+@	c #3B3B3B",
"@@	c #6F0000",
"#@	c #420000",
"$@	c #444345",
"%@	c #4F4F51",
"&@	c #525353",
"*@	c #575758",
"=@	c #5D5D5E",
"-@	c #606062",
";@	c #8E969C",
">@	c #9BA5AE",
",@	c #939DA7",
"'@	c #919AA3",
")@	c #3A3A3B",
"!@	c #59595A",
"~@	c #3E3E3F",
"{@	c #400000",
"]@	c #3A0000",
"^@	c #474748",
"/@	c #74767A",
"(@	c #949EA8",
"_@	c #959FA9",
":@	c #8C97A2",
"<@	c #8C97A1",
"[@	c #81898F",
"}@	c #3C3D3E",
"|@	c #545455",
"1@	c #525254",
"2@	c #4E4F50",
"3@	c #434445",
"4@	c #515152",
"5@	c #515052",
"6@	c #535254",
"7@	c #535455",
"8@	c #6E6F72",
"9@	c #8B959E",
"0@	c #8D99A3",
"a@	c #8E98A2",
"b@	c #86919C",
"c@	c #85919C",
"d@	c #7C838B",
"e@	c #434546",
"f@	c #525153",
"g@	c #4F5051",
"h@	c #4E4E4F",
"i@	c #505152",
"j@	c #6E6F73",
"k@	c #858F99",
"l@	c #87929D",
"m@	c #7E8B97",
"n@	c #7F8B96",
"o@	c #7F8B97",
"p@	c #7F8C97",
"q@	c #7C868F",
"r@	c #585A5D",
"s@	c #4C4C4D",
"t@	c #4B4C4D",
"u@	c #4B4A4C",
"v@	c #494A4B",
"w@	c #49494B",
"x@	c #4A4A4C",
"y@	c #80878E",
"z@	c #7E8B95",
"A@	c #808C97",
"B@	c #808C98",
"C@	c #808D98",
"D@	c #788591",
"E@	c #77818B",
"F@	c #6F757B",
"G@	c #646769",
"H@	c #525355",
"I@	c #454646",
"J@	c #565859",
"K@	c #686B6F",
"L@	c #7C838A",
"M@	c #7A8590",
"N@	c #798692",
"O@	c #7A8692",
"P@	c #7A8792",
"Q@	c #717F8C",
"R@	c #717F8B",
"S@	c #727F8C",
"T@	c #72808C",
"U@	c #72808D",
"V@	c #73808D",
". + @ . # $ % $ $ # & * = $ $ $ $ $ $ $ $ $ ",
"- ; ; > ; ; , ' ) ! ~ { ] ^ / ( _ _ : _ < [ ",
"} | | 1 2 3 4 5 6 7 8 9 0 a 6 b c d e e f g ",
"h h i j k l m n o p q r r s p t u v w x y z ",
"A B B C D E F G H I n J o K L H G M N O P Q ",
"R R S T U V W X Y Z `  . ...+.G / @.#.$.%.&.",
"*.=.-.;.>.,.'.).!.~.{.].^./.(._.:.<.[.}.|.1.",
"2.3.4.5.6.7.8.9.0.a.b.c.d.e.f.g.h.i.j.k.l.m.",
"n.o.p.q.r.s.t.u.v.w.x.y.z.A.B.C.D.E.F.G.H.I.",
"J.K.L.M.N.O.P.#.Q.R.S.T.U.V.W.Q.X.Y.Z.`. +.+",
"++@+#+$+%+&+*+=+=+=+-+;+S.=+=+=+>+P.,+'+$+)+",
"!+~+{+]+^+/+(+_+:+:+:+_+:+_+:+:+<+[+}+|+1+2+",
"3+4+p.5+6+7+8+9+0+a+b+c+d+a+a+e+f+g+h+|+i+j+",
"k+l+m+n+o+p+H.q+r+s+t+u+v+ +w+x+y+z+A+B+C+D+",
"E+F+G+H+'+I+C+J+K+L+0+M+N+s+O+P+Q+R+S+T+U+V+",
"W+W+X+Y+N.Z+`+ @.@+@8+@@#@$@%@&@*@=@Z+-@;@>@",
",@,@'@)@H+1+!@*@Q+~@{@{@]@^@.@Q+*@!@`+/@(@_@",
":@<@<@[@}@ @Q+|@1@2@T $@3@4@5@6@7@ @8@9@0@a@",
"b@c@c@b@d@e@f@g@g+h@5.H.H.H.h@g+i@j@k@l@l@l@",
"m@n@o@p@o@q@r@s@t@u@v@w@w@w@x@g@y@z@A@B@C@B@",
"D@D@D@D@D@D@D@E@F@G@H@I@J@K@L@M@N@O@N@P@N@O@",
"Q@Q@R@Q@Q@S@Q@S@S@S@S@T@T@T@T@T@T@U@V@U@T@T@"};
