/* XPM */
static char * stuck_xpm[] = {
"22 22 271 2",
"  	c None",
". 	c #B8D9F8",
"+ 	c #B8DAF8",
"@ 	c #B4D1EC",
"# 	c #B0CAE2",
"$ 	c #B2D2F0",
"% 	c #B7D9F7",
"& 	c #B6D8F7",
"* 	c #B6D7F7",
"= 	c #B6D7F6",
"- 	c #B5D7F6",
"; 	c #B5D6F6",
"> 	c #B3D5F5",
", 	c #B2D4F5",
"' 	c #B2D5F4",
") 	c #B2D4F4",
"! 	c #B1D4F4",
"~ 	c #B0D3F1",
"{ 	c #A0B2C1",
"] 	c #A7ADB2",
"^ 	c #D5D5D6",
"/ 	c #E9E9E9",
"( 	c #F5F5F5",
"_ 	c #D7D7D8",
": 	c #ACB5BD",
"< 	c #9FB6CB",
"[ 	c #AED1F2",
"} 	c #ADD0F2",
"| 	c #ADD0F1",
"1 	c #AACEF0",
"2 	c #AACEEF",
"3 	c #AACDEF",
"4 	c #A2B8CE",
"5 	c #898B8C",
"6 	c #C4C4C4",
"7 	c #F6F6F6",
"8 	c #F7F7F7",
"9 	c #F8F8F8",
"0 	c #C5C5C5",
"a 	c #89939C",
"b 	c #9EBEDD",
"c 	c #A5CAED",
"d 	c #A5CAEC",
"e 	c #A3C8EB",
"f 	c #A2C7EA",
"g 	c #93A6B7",
"h 	c #8D8D8D",
"i 	c #D3D3D3",
"j 	c #EBEBEB",
"k 	c #EDEDED",
"l 	c #F0F0F0",
"m 	c #F2F2F2",
"n 	c #F3F3F3",
"o 	c #EEEEEE",
"p 	c #D5D5D5",
"q 	c #999B9D",
"r 	c #9AB6D1",
"s 	c #9DC3E7",
"t 	c #9AC1E5",
"u 	c #9BC2E6",
"v 	c #90A5B7",
"w 	c #898989",
"x 	c #C2C2C2",
"y 	c #E0E0E0",
"z 	c #E6E6E6",
"A 	c #EFEFEF",
"B 	c #F4F4F4",
"C 	c #C7C7C7",
"D 	c #979A9C",
"E 	c #94B3D2",
"F 	c #95BDE2",
"G 	c #95BDE1",
"H 	c #92BBE0",
"I 	c #92BBE1",
"J 	c #96B6D4",
"K 	c #7D7D7D",
"L 	c #A3A3A3",
"M 	c #DEDEDE",
"N 	c #ECECEC",
"O 	c #E2E2E2",
"P 	c #E3E3E3",
"Q 	c #DDDDDD",
"R 	c #B0B0B0",
"S 	c #949A9F",
"T 	c #8CB5DB",
"U 	c #8DB6DD",
"V 	c #8AB5DB",
"W 	c #8BB5DB",
"X 	c #8B959D",
"Y 	c #868686",
"Z 	c #BFBFBF",
"` 	c #F1F1F1",
" .	c #DBDBDB",
"..	c #D02626",
"+.	c #D72828",
"@.	c #CE5D5D",
"#.	c #CBCBCB",
"$.	c #A5A5A5",
"%.	c #869EB3",
"&.	c #85B0D8",
"*.	c #83AED6",
"=.	c #88ADCF",
"-.	c #949494",
";.	c #E5E5E5",
">.	c #D8D7D7",
",.	c #D82525",
"'.	c #EF2929",
").	c #CD5B5B",
"!.	c #E4E4E4",
"~.	c #B4B4B4",
"{.	c #8B9299",
"].	c #7DAAD3",
"^.	c #7BA8D2",
"/.	c #8DA2B5",
"(.	c #A0A0A0",
"_.	c #B7B7B7",
":.	c #DADADA",
"<.	c #E8E8E8",
"[.	c #D3D2D2",
"}.	c #CC5959",
"|.	c #EAEAEA",
"1.	c #B6B6B6",
"2.	c #9B9C9C",
"3.	c #779FC3",
"4.	c #73A1CC",
"5.	c #8F9DAA",
"6.	c #9E9E9E",
"7.	c #AAAAAA",
"8.	c #CACACA",
"9.	c #CDCDCD",
"0.	c #CFCFCF",
"a.	c #C8C7C7",
"b.	c #CA5858",
"c.	c #D0D0D0",
"d.	c #DCDCDC",
"e.	c #7E9CB9",
"f.	c #6B9BC7",
"g.	c #929CA5",
"h.	c #A7A7A7",
"i.	c #B5B5B5",
"j.	c #C1C1C1",
"k.	c #B5B4B4",
"l.	c #CF2B2B",
"m.	c #D62C2C",
"n.	c #E92828",
"o.	c #DF2929",
"p.	c #C85555",
"q.	c #D1D1D1",
"r.	c #829DB6",
"s.	c #6394C2",
"t.	c #949FAA",
"u.	c #ADADAD",
"v.	c #C0C0C0",
"w.	c #CCCCCC",
"x.	c #B0AEAE",
"y.	c #C85151",
"z.	c #C3C3C3",
"A.	c #7E9BB6",
"B.	c #5B8EBD",
"C.	c #8E9EAE",
"D.	c #C8C8C8",
"E.	c #B7B6B6",
"F.	c #C24848",
"G.	c #C54A4A",
"H.	c #C94E4E",
"I.	c #CA4E4E",
"J.	c #E42727",
"K.	c #D53333",
"L.	c #BD6767",
"M.	c #BABABA",
"N.	c #D4D4D4",
"O.	c #7094B6",
"P.	c #5387B8",
"Q.	c #7D99B3",
"R.	c #B2B2B2",
"S.	c #B3B2B2",
"T.	c #C75555",
"U.	c #BBBBBB",
"V.	c #C7C8C9",
"W.	c #5485B3",
"X.	c #4B81B3",
"Y.	c #5587B4",
"Z.	c #AEAEAF",
"`.	c #DFDFDF",
" +	c #CECECE",
".+	c #C9C9C9",
"++	c #C04E4E",
"@+	c #C6C6C6",
"#+	c #A8B5C1",
"$+	c #457CB0",
"%+	c #437AAE",
"&+	c #90A2B2",
"*+	c #D7D7D7",
"=+	c #BCBBBB",
"-+	c #C35050",
";+	c #D8D8D8",
">+	c #E1E1E1",
",+	c #668DB1",
"'+	c #3D76AA",
")+	c #3B74A9",
"!+	c #4D7EAD",
"~+	c #B9BBBC",
"{+	c #C84C4C",
"]+	c #C26E6E",
"^+	c #AFBECB",
"/+	c #3670A6",
"(+	c #356FA5",
"_+	c #336EA4",
":+	c #336DA3",
"<+	c #336DA4",
"[+	c #6188AC",
"}+	c #C8C8C9",
"|+	c #CBD4DB",
"1+	c #3A70A3",
"2+	c #2E69A1",
"3+	c #2D69A1",
"4+	c #2B679F",
"5+	c #2A679F",
"6+	c #5F86AB",
"7+	c #CCCED0",
"8+	c #E7E7E7",
"9+	c #C6D1DB",
"0+	c #3B70A1",
"a+	c #25639C",
"b+	c #25629B",
"c+	c #25629C",
"d+	c #23609A",
"e+	c #22609A",
"f+	c #236099",
"g+	c #226099",
"h+	c #4073A2",
"i+	c #B7C2CC",
"j+	c #E5E6E7",
"k+	c #7F9FBE",
"l+	c #205E97",
"m+	c #1F5D96",
"n+	c #1D5C96",
"o+	c #1E5C97",
"p+	c #1B5A95",
"q+	c #1B5A94",
"r+	c #1A5A94",
"s+	c #1A5994",
"t+	c #1A5993",
"u+	c #4C79A5",
"v+	c #8BA5BE",
"w+	c #C1CDD9",
"x+	c #DCE0E4",
"y+	c #D3DAE0",
"z+	c #BBC9D7",
"A+	c #789ABB",
"B+	c #2E679B",
"C+	c #175692",
"D+	c #175691",
"E+	c #165792",
"F+	c #165691",
"G+	c #155692",
"H+	c #135490",
"I+	c #135390",
"J+	c #125390",
"K+	c #12528F",
"L+	c #12538F",
"M+	c #12528E",
"N+	c #11528F",
"O+	c #11528E",
"P+	c #10518E",
"Q+	c #10518D",
"R+	c #0F518D",
"S+	c #0F508D",
"T+	c #0E4F8C",
"U+	c #0E508C",
"V+	c #0D4F8C",
". . . . . + . . . . @ # $ % & & & * = - - ; ",
"> , ' ) ! ! ~ { ] ^ / ( / _ : < [ [ [ } | | ",
"1 2 2 3 3 4 5 6 7 8 9 9 9 9 7 0 a b c d d d ",
"e f f f g h i j k l m n n m l o p q r s s s ",
"t u t v w x y z j A m B B m l j z C D E F G ",
"H I J K L p M z k N y O P 7 n k z Q R S T U ",
"V W X Y Z i y j `  ...+.@./ B m N y #.$.%.&.",
"*.=.w -.0 p ;.j k >.,.'.).!.A o j z p ~.{.].",
"^./.-.(._.:.O ;.<.[.,.'.}.y |.<.z P  .1.2.3.",
"4.5.6.7.~.p 8.9.0.a.,.'.b.9.c.0.0.M d.~.7.e.",
"f.g.h.i.j.k.l.m.m.m.n.'.o.m.m.m.p.q.9.x i.r.",
"s.t.u.v.w.x.,.'.'.'.'.'.'.'.'.'.y.0.z.9.Z A.",
"B.C.R D.i E.F.G.H.I.J.'.K.I.I.H.L.M.#.N.D.O.",
"P.Q.R.#.:.c.v.M.i.S.,.'.T.C v.i.U.w.i d.V.W.",
"X.Y.Z.8.`.:.N. +.+S.,.'.++M.@+8.0.p d.y #+$+",
"%+%+&+0 `.y Q *+i =+,.'.-+6 c.i ;+M y >+,+'+",
")+)+!+~+;+P >+`.Q @+{+{+]+0.:.Q `.>+!.^+/+(+",
"_+:+<+[+}+;.!.P >+M i i i y y O P ;.|+1+2+3+",
"4+4+5+5+6+7+<.z ;.!.P P P P !.;.8+9+0+a+b+c+",
"d+e+f+e+g+h+i+|./ <.8+8+8+8+<.j+k+l+m+n+n+o+",
"p+q+q+r+s+s+t+u+v+w+x+/ y+z+A+B+C+D+E+F+F+G+",
"H+I+I+J+K+L+M+N+O+O+O+P+P+Q+R+Q+S+S+T+U+T+V+"};
