/* XPM */
static char * sub_xpm[] = {
"5 24 40 1",
" 	c None",
".	c #FFAE00",
"+	c #FEAD00",
"@	c #FAAB00",
"#	c #FAAB01",
"$	c #F6A801",
"%	c #F2A502",
"&	c #F2A602",
"*	c #F2A501",
"=	c #F2A601",
"-	c #EEA302",
";	c #EAA003",
">	c #EAA103",
",	c #EAA002",
"'	c #E69D03",
")	c #E69E03",
"!	c #E29B03",
"~	c #E29B04",
"{	c #DE9804",
"]	c #DE9904",
"^	c #DA9604",
"/	c #DA9605",
"(	c #D59305",
"_	c #D19005",
":	c #D19105",
"<	c #CD8E06",
"[	c #C98B06",
"}	c #C58906",
"|	c #C58807",
"1	c #C58907",
"2	c #C18607",
"3	c #BD8307",
"4	c #BD8308",
"5	c #B98108",
"6	c #B98008",
"7	c #B57E09",
"8	c #B57E08",
"9	c #B17C09",
"0	c #B17B09",
"a	c #B07B09",
".....",
".....",
"+++++",
"@@###",
"$$$$$",
"%&*&=",
"-----",
";>,;,",
"'))))",
"!!!!~",
"{]]{{",
"^^^^/",
"(((((",
"_:_::",
"<<<<<",
"[[[[[",
"}|}11",
"22222",
"34344",
"55655",
"78887",
"99900",
"aaaaa",
"aaaaa"};
