/* XPM */
static char * submenu_xpm[] = {
"32 32 135 2",
"  	c None",
". 	c #B2B2B2",
"+ 	c #8E8E8E",
"@ 	c #BBBBBB",
"# 	c #C2C2C2",
"$ 	c #F8F8F8",
"% 	c #FFFFFF",
"& 	c #F9F9F9",
"* 	c #DDDDDD",
"= 	c #B9B9B9",
"- 	c #909090",
"; 	c #D4D4D4",
"> 	c #E6E6E6",
", 	c #868787",
"' 	c #A8A8A8",
") 	c #E3E3E3",
"! 	c #F7F7F7",
"~ 	c #F6F6F6",
"{ 	c #D0D0D0",
"] 	c #999999",
"^ 	c #808080",
"/ 	c #8A8A8A",
"( 	c #D8D8D8",
"_ 	c #E9E9E9",
": 	c #DEDEDE",
"< 	c #6D6F70",
"[ 	c #2A2F2F",
"} 	c #7F8182",
"| 	c #CECECE",
"1 	c #F1F1F1",
"2 	c #EFEFEF",
"3 	c #EDEDED",
"4 	c #979797",
"5 	c #787878",
"6 	c #E5E5E5",
"7 	c #6F7071",
"8 	c #2A2F31",
"9 	c #262B2D",
"0 	c #5B5E5F",
"a 	c #BABABA",
"b 	c #E8E8E8",
"c 	c #EBEBEB",
"d 	c #E4E4E4",
"e 	c #BFBFBF",
"f 	c #989898",
"g 	c #858585",
"h 	c #8F8F8F",
"i 	c #CFCFCF",
"j 	c #DBDBDB",
"k 	c #E1E1E1",
"l 	c #717474",
"m 	c #2A3031",
"n 	c #2E3436",
"o 	c #3C4041",
"p 	c #9E9F9F",
"q 	c #DADADA",
"r 	c #ABABAB",
"s 	c #828282",
"t 	c #898989",
"u 	c #A4A4A4",
"v 	c #ECECEC",
"w 	c #E2E2E2",
"x 	c #717374",
"y 	c #2C3234",
"z 	c #2A2F30",
"A 	c #77797A",
"B 	c #C6C6C6",
"C 	c #C3C3C3",
"D 	c #8D8D8D",
"E 	c #949494",
"F 	c #959595",
"G 	c #D1D1D1",
"H 	c #E7E7E7",
"I 	c #6F7172",
"J 	c #272C2E",
"K 	c #525455",
"L 	c #AAAAAA",
"M 	c #C4C4C4",
"N 	c #9C9C9C",
"O 	c #A1A1A1",
"P 	c #ACACAC",
"Q 	c #D6D6D6",
"R 	c #D9D9D9",
"S 	c #6F7171",
"T 	c #2A3032",
"U 	c #353A3A",
"V 	c #858686",
"W 	c #9E9E9E",
"X 	c #9B9B9B",
"Y 	c #ADADAD",
"Z 	c #BEBEBE",
"` 	c #DCDCDC",
" .	c #DFDFDF",
"..	c #2D3335",
"+.	c #262A2C",
"@.	c #696A6B",
"#.	c #969696",
"$.	c #A0A0A0",
"%.	c #B6B6B6",
"&.	c #C5C5C5",
"*.	c #CDCDCD",
"=.	c #6E7071",
"-.	c #292E30",
";.	c #404344",
">.	c #BDBDBD",
",.	c #6E6F70",
"'.	c #292F31",
").	c #D5D5D5",
"!.	c #B8B8B8",
"~.	c #676969",
"{.	c #676869",
"].	c #B0B0B0",
"^.	c #D7D7D7",
"/.	c #666768",
"(.	c #292F30",
"_.	c #2C3133",
":.	c #2E3334",
"<.	c #7C7D7E",
"[.	c #BCBCBC",
"}.	c #CCCCCC",
"|.	c #6C6D6E",
"1.	c #3B3F3F",
"2.	c #919292",
"3.	c #C9C9C9",
"4.	c #CACACA",
"5.	c #E0E0E0",
"6.	c #717373",
"7.	c #4F5252",
"8.	c #A7A7A7",
"9.	c #757777",
"0.	c #24282A",
"a.	c #696B6B",
"b.	c #808181",
"c.	c #838485",
"d.	c #EAEAEA",
"                                                                ",
"                                                                ",
"                                                                ",
"                                .                               ",
"                        + @ # $ % & * =                         ",
"                      - ; > , ' ) $ ! ~ { ]                     ",
"                  ^ / ( _ : < [ } | 1 2 3 ( 4                   ",
"                  5 @ : 6 * 7 8 9 0 a b c d e f                 ",
"                g h i j > k l m n 8 o p q > ( r s               ",
"              4 t u i : v w x 8 n n y z A B j C D               ",
"              E F ' G d H * I 8 n n n n J K L M N               ",
"              F O P Q : k R S 8 n n n n n T U V ] W             ",
"              X Y = Z `  .Q 7 8 n n n n n n ..+.@.#.            ",
"              $.%.B &.*.` ; =.8 n n n n n n -.;.+ P             ",
"              u >.{ *.M M G ,.'.n n n n n 9 K u | =             ",
"              L e R ).*.B !.~.'.n n n ..J {.].^.( a             ",
"              ].>.( * Q i # /.(.n n _.:.<.[.^. .^.              ",
"                a ; k : R }.|.(.n 8 1.2.3.q  .w G               ",
"                  4.d w 5.Q 6.-.J 7.8.^. .5.) d                 ",
"                  C R > d j 9.0.a.a  .k ) d 6                   ",
"                      : H  .b.c.3.d d 6 H b                     ",
"                        ` d.C ( b b _ _ c                       ",
"                              _ c                               ",
"                                                                ",
"                                                                ",
"                                                                ",
"                                                                ",
"                                                                ",
"                                                                ",
"                                                                ",
"                                                                ",
"                                                                "};
