/* XPM */
static char * submenuhi_xpm[] = {
"32 32 145 2",
"  	c None",
". 	c #B2B2B2",
"+ 	c #8E8E8E",
"@ 	c #BBBBBB",
"# 	c #C2C2C2",
"$ 	c #F8F8F8",
"% 	c #FFFFFF",
"& 	c #F9F9F9",
"* 	c #DDDDDD",
"= 	c #B9B9B9",
"- 	c #909090",
"; 	c #D4D4D4",
"> 	c #E6E6E6",
", 	c #ABACAA",
"' 	c #B6B6B6",
") 	c #E3E3E3",
"! 	c #F7F7F7",
"~ 	c #F6F6F6",
"{ 	c #D0D0D0",
"] 	c #999999",
"^ 	c #808080",
"/ 	c #8A8A8A",
"( 	c #D8D8D8",
"_ 	c #E9E9E9",
": 	c #DEDEDE",
"< 	c #A5A6A4",
"[ 	c #9EA09B",
"} 	c #A9AAA8",
"| 	c #CECECE",
"1 	c #F1F1F1",
"2 	c #EFEFEF",
"3 	c #EDEDED",
"4 	c #979797",
"5 	c #787878",
"6 	c #E5E5E5",
"7 	c #A5A7A4",
"8 	c #BFC3BC",
"9 	c #B0B4AD",
"0 	c #A4A5A1",
"a 	c #BFBFBF",
"b 	c #E8E8E8",
"c 	c #EBEBEB",
"d 	c #E4E4E4",
"e 	c #989898",
"f 	c #858585",
"g 	c #8F8F8F",
"h 	c #CFCFCF",
"i 	c #DBDBDB",
"j 	c #E1E1E1",
"k 	c #A7A9A6",
"l 	c #C1C5BD",
"m 	c #D3D7CF",
"n 	c #A1A49F",
"o 	c #B2B3B2",
"p 	c #DADADA",
"q 	c #ABABAB",
"r 	c #828282",
"s 	c #898989",
"t 	c #A4A4A4",
"u 	c #ECECEC",
"v 	c #E2E2E2",
"w 	c #A6A7A4",
"x 	c #C1C4BD",
"y 	c #CBCFC7",
"z 	c #A6A9A3",
"A 	c #A6A7A5",
"B 	c #C6C6C6",
"C 	c #C3C3C3",
"D 	c #8D8D8D",
"E 	c #949494",
"F 	c #959595",
"G 	c #A8A8A8",
"H 	c #D1D1D1",
"I 	c #E7E7E7",
"J 	c #A4A4A2",
"K 	c #C0C4BC",
"L 	c #D2D6CE",
"M 	c #B3B6AF",
"N 	c #9FA19D",
"O 	c #B0B0B0",
"P 	c #C4C4C4",
"Q 	c #9C9C9C",
"R 	c #A1A1A1",
"S 	c #ACACAC",
"T 	c #D6D6D6",
"U 	c #D9D9D9",
"V 	c #A1A3A0",
"W 	c #C0C3BC",
"X 	c #C2C5BE",
"Y 	c #9FA19C",
"Z 	c #9D9D9D",
"` 	c #9E9E9E",
" .	c #9B9B9B",
"..	c #ADADAD",
"+.	c #BEBEBE",
"@.	c #DCDCDC",
"#.	c #DFDFDF",
"$.	c #A0A19F",
"%.	c #CED2CA",
"&.	c #A2A59F",
"*.	c #8C8D8B",
"=.	c #969696",
"-.	c #A0A0A0",
";.	c #C5C5C5",
">.	c #CDCDCD",
",.	c #9FA09E",
"'.	c #BFC2BB",
").	c #BABEB7",
"!.	c #979A96",
"~.	c #BDBDBD",
"{.	c #9E9F9C",
"].	c #BEC2BB",
"^.	c #B0B3AC",
"/.	c #959794",
"(.	c #A6A6A6",
"_.	c #AAAAAA",
":.	c #D5D5D5",
"<.	c #B8B8B8",
"[.	c #979795",
"}.	c #BEC1BA",
"|.	c #949492",
"1.	c #D7D7D7",
"2.	c #BABABA",
"3.	c #949592",
"4.	c #BDC1BA",
"5.	c #C8CBC4",
"6.	c #979896",
"7.	c #BCBCBC",
"8.	c #CCCCCC",
"9.	c #999997",
"0.	c #BDC0B9",
"a.	c #9B9D99",
"b.	c #9E9F9E",
"c.	c #C9C9C9",
"d.	c #CACACA",
"e.	c #E0E0E0",
"f.	c #9D9F9C",
"g.	c #BCBFB8",
"h.	c #B4B8B1",
"i.	c #9B9C99",
"j.	c #9EA19B",
"k.	c #9FA09D",
"l.	c #A3A4A2",
"m.	c #A3A5A2",
"n.	c #EAEAEA",
"                                                                ",
"                                                                ",
"                                                                ",
"                                .                               ",
"                        + @ # $ % & * =                         ",
"                      - ; > , ' ) $ ! ~ { ]                     ",
"                  ^ / ( _ : < [ } | 1 2 3 ( 4                   ",
"                  5 @ : 6 * 7 8 9 0 a b c d a e                 ",
"                f g h i > j k l m 8 n o p > ( q r               ",
"              4 s t h : u v w x m m y z A B i C D               ",
"              E F G H d I * J K m m m L M N O P Q               ",
"              F R S T : j U V W m m m m m X Y Z ] `             ",
"               ...= +.@.#.T $.8 m m m m m m %.&.*.=.            ",
"              -.' B ;.>.@.; ,.'.m m m m m m ).!.=.S             ",
"              t ~.{ >.P P H {.].m m m m L ^./.(.| =             ",
"              _.a U :.>.B <.[.}.m m m %.z |.O 1.( 2.            ",
"              O ~.( * T h # 3.4.m m 5.Y 6.7.1.#.1.              ",
"                2.; j : U 8.9.0.m '.a.b.c.p #.v H               ",
"                  d.d v e.T f.g.h.i.q 1.#.e.) d                 ",
"                  C U > d i $.j.k.2.#.j ) d 6                   ",
"                      : I #.l.m.c.d d 6 I b                     ",
"                        @.n.C ( b b _ _ c                       ",
"                              _ c                               ",
"                                                                ",
"                                                                ",
"                                                                ",
"                                                                ",
"                                                                ",
"                                                                ",
"                                                                ",
"                                                                ",
"                                                                "};
