/* XPM */
static char * title_xpm[] = {
"22 22 322 2",
"  	c #B8D9F8",
". 	c #B8DAF8",
"+ 	c #B7D9F8",
"@ 	c #B7D9F7",
"# 	c #B6D8F7",
"$ 	c #B6D7F7",
"% 	c #B6D7F6",
"& 	c #B5D7F6",
"* 	c #B5D6F6",
"= 	c #B3D5F5",
"- 	c #B2D4F5",
"; 	c #B2D5F4",
"> 	c #B2D4F4",
", 	c #B1D4F4",
"' 	c #B1D4F3",
") 	c #B0D4F3",
"! 	c #B0D3F4",
"~ 	c #B0D2F3",
"{ 	c #B0D3F3",
"] 	c #AFD2F3",
"^ 	c #B0D2F2",
"/ 	c #AFD2F2",
"( 	c #AFD1F2",
"_ 	c #AED2F2",
": 	c #AED1F2",
"< 	c #ADD0F2",
"[ 	c #ADD0F1",
"} 	c #AACEF0",
"| 	c #AACEEF",
"1 	c #AACDEF",
"2 	c #A9CDEF",
"3 	c #A9CCEF",
"4 	c #A9CDEE",
"5 	c #A8CDEE",
"6 	c #A7CCEE",
"7 	c #A7CCED",
"8 	c #A8CCED",
"9 	c #A7CBED",
"0 	c #A6CBED",
"a 	c #A6CAEC",
"b 	c #A5CAED",
"c 	c #A5CAEC",
"d 	c #A3C8EB",
"e 	c #A2C7EA",
"f 	c #A1C7EA",
"g 	c #A0C6E9",
"h 	c #9FC5E9",
"i 	c #A0C5E8",
"j 	c #9FC5E8",
"k 	c #9EC5E8",
"l 	c #9EC4E8",
"m 	c #9DC3E7",
"n 	c #9AC1E5",
"o 	c #9BC2E6",
"p 	c #99C1E5",
"q 	c #9AC0E5",
"r 	c #99C0E4",
"s 	c #98BFE4",
"t 	c #98BFE3",
"u 	c #97BEE3",
"v 	c #96BEE3",
"w 	c #96BEE2",
"x 	c #96BDE3",
"y 	c #95BDE2",
"z 	c #95BDE1",
"A 	c #92BBE0",
"B 	c #92BBE1",
"C 	c #92BAE0",
"D 	c #91BAE0",
"E 	c #92BADF",
"F 	c #91B9DF",
"G 	c #91BADF",
"H 	c #90B9DF",
"I 	c #90B8DF",
"J 	c #8FB9DF",
"K 	c #8FB8DE",
"L 	c #8EB7DE",
"M 	c #8EB7DD",
"N 	c #8DB7DD",
"O 	c #8DB6DD",
"P 	c #8AB5DB",
"Q 	c #8BB5DB",
"R 	c #8AB4DB",
"S 	c #8AB4DA",
"T 	c #89B3DB",
"U 	c #89B3DA",
"V 	c #89B2DA",
"W 	c #88B3DA",
"X 	c #88B2D9",
"Y 	c #87B2DA",
"Z 	c #87B2D9",
"` 	c #87B1D8",
" .	c #86B1D8",
"..	c #85B1D8",
"+.	c #85B0D8",
"@.	c #83AED6",
"#.	c #82AED6",
"$.	c #82ADD5",
"%.	c #82ACD5",
"&.	c #81ADD5",
"*.	c #81ACD5",
"=.	c #80ACD5",
"-.	c #7FABD4",
";.	c #7FAAD3",
">.	c #7EABD4",
",.	c #7EAAD4",
"'.	c #7EAAD3",
").	c #7EA9D3",
"!.	c #7DAAD3",
"~.	c #7BA8D2",
"{.	c #7BA8D1",
"].	c #7AA7D1",
"^.	c #7AA7D0",
"/.	c #7AA6D0",
"(.	c #79A6D0",
"_.	c #78A6D0",
":.	c #79A6CF",
"<.	c #78A5D0",
"[.	c #77A5D0",
"}.	c #77A4CF",
"|.	c #77A4CE",
"1.	c #76A3CE",
"2.	c #75A3CD",
"3.	c #73A1CC",
"4.	c #72A1CC",
"5.	c #73A0CC",
"6.	c #72A0CB",
"7.	c #71A0CB",
"8.	c #719FCB",
"9.	c #709FCB",
"0.	c #709FCA",
"a.	c #709ECA",
"b.	c #6F9FCA",
"c.	c #6F9ECA",
"d.	c #6E9ECA",
"e.	c #6E9DCA",
"f.	c #6E9DC9",
"g.	c #6D9DC9",
"h.	c #6E9CC9",
"i.	c #6B9BC7",
"j.	c #6A9AC7",
"k.	c #6A9AC6",
"l.	c #699AC7",
"m.	c #6999C6",
"n.	c #6898C6",
"o.	c #6798C5",
"p.	c #6799C5",
"q.	c #6897C5",
"r.	c #6797C4",
"s.	c #6697C5",
"t.	c #6697C4",
"u.	c #6696C4",
"v.	c #6596C4",
"w.	c #6394C2",
"x.	c #6393C2",
"y.	c #6294C2",
"z.	c #6294C1",
"A.	c #6193C1",
"B.	c #6192C1",
"C.	c #6193C0",
"D.	c #6092C1",
"E.	c #6192C0",
"F.	c #6092C0",
"G.	c #6091C0",
"H.	c #5F91C0",
"I.	c #5E91BF",
"J.	c #5E90BF",
"K.	c #5F91BF",
"L.	c #5D90BF",
"M.	c #5E8FBF",
"N.	c #5D8FBE",
"O.	c #5B8EBD",
"P.	c #5A8EBD",
"Q.	c #5B8DBD",
"R.	c #5A8DBD",
"S.	c #598DBD",
"T.	c #598DBC",
"U.	c #598CBC",
"V.	c #588CBB",
"W.	c #588BBB",
"X.	c #588CBC",
"Y.	c #578BBB",
"Z.	c #578ABB",
"`.	c #578ABA",
" +	c #568ABA",
".+	c #5689BA",
"++	c #5589BA",
"@+	c #5387B8",
"#+	c #5287B8",
"$+	c #5286B8",
"%+	c #5286B7",
"&+	c #5186B8",
"*+	c #5285B6",
"=+	c #5185B6",
"-+	c #5085B7",
";+	c #5085B6",
">+	c #5084B6",
",+	c #4F84B6",
"'+	c #4F84B5",
")+	c #4E83B5",
"!+	c #4D82B5",
"~+	c #4B81B3",
"{+	c #4A81B3",
"]+	c #4A80B3",
"^+	c #4A80B2",
"/+	c #4980B2",
"(+	c #497FB2",
"_+	c #487EB1",
":+	c #487FB1",
"<+	c #477EB0",
"[+	c #477DB0",
"}+	c #467EB0",
"|+	c #467DB0",
"1+	c #467CAF",
"2+	c #457CB0",
"3+	c #437AAE",
"4+	c #437AAD",
"5+	c #4279AD",
"6+	c #417AAD",
"7+	c #4179AD",
"8+	c #4178AC",
"9+	c #4178AD",
"0+	c #4078AC",
"a+	c #3F77AC",
"b+	c #3F77AB",
"c+	c #3E77AB",
"d+	c #3E76AB",
"e+	c #3D76AA",
"f+	c #3B74A9",
"g+	c #3A73A8",
"h+	c #3A74A8",
"i+	c #3973A8",
"j+	c #3973A7",
"k+	c #3872A8",
"l+	c #3872A7",
"m+	c #3971A7",
"n+	c #3871A6",
"o+	c #3871A7",
"p+	c #3771A6",
"q+	c #3770A7",
"r+	c #3670A6",
"s+	c #3770A6",
"t+	c #366FA6",
"u+	c #356FA5",
"v+	c #336EA4",
"w+	c #336DA3",
"x+	c #336DA4",
"y+	c #326CA3",
"z+	c #316CA3",
"A+	c #316CA2",
"B+	c #306BA2",
"C+	c #306BA1",
"D+	c #306AA2",
"E+	c #2F6BA1",
"F+	c #2F6BA2",
"G+	c #2E6AA1",
"H+	c #2E69A1",
"I+	c #2F6AA1",
"J+	c #2E69A0",
"K+	c #2D69A1",
"L+	c #2B679F",
"M+	c #2A679F",
"N+	c #2A669E",
"O+	c #29669D",
"P+	c #29659D",
"Q+	c #28649D",
"R+	c #28649C",
"S+	c #28659D",
"T+	c #27649D",
"U+	c #27639C",
"V+	c #26639C",
"W+	c #26639B",
"X+	c #25639C",
"Y+	c #25629B",
"Z+	c #25629C",
"`+	c #23609A",
" @	c #22609A",
".@	c #236099",
"+@	c #226099",
"@@	c #215F99",
"#@	c #225F98",
"$@	c #215F98",
"%@	c #205F99",
"&@	c #205E98",
"*@	c #205D98",
"=@	c #1F5D97",
"-@	c #1F5E97",
";@	c #1F5D96",
">@	c #1D5C96",
",@	c #1E5C97",
"'@	c #1B5A95",
")@	c #1B5A94",
"!@	c #1A5A94",
"~@	c #1A5994",
"{@	c #1A5993",
"]@	c #1A5894",
"^@	c #195894",
"/@	c #185893",
"(@	c #195793",
"_@	c #195892",
":@	c #185793",
"<@	c #175692",
"[@	c #175792",
"}@	c #175691",
"|@	c #165792",
"1@	c #165691",
"2@	c #155692",
"3@	c #135490",
"4@	c #135390",
"5@	c #125390",
"6@	c #12528F",
"7@	c #12538F",
"8@	c #12528E",
"9@	c #11528F",
"0@	c #11528E",
"a@	c #10518E",
"b@	c #10518D",
"c@	c #0F518D",
"d@	c #0F508D",
"e@	c #0E4F8C",
"f@	c #0E508C",
"g@	c #0D4F8C",
"          .           +   @ # # # $ % & & * ",
"= - ; > , , ' ) ! ~ { ] ^ / ( _ : : : < [ [ ",
"} | | 1 1 1 2 3 4 5 6 7 8 9 9 0 0 a b c c c ",
"d e e e f e f f g g g h i j j j k l l m m m ",
"n o n p q r r r r s s s t u u u v v w x y z ",
"A B C C C D E F G H I J I K K K L M N N N O ",
"P Q P R S T T U V U W X Y Y Z Z `  . ... .+.",
"@.#.#.$.#.%.$.&.*.=.=.=.-.-.;.>.>.,.,.'.).!.",
"~.{.].^./.(.(.(._.(.:.<.<.[.}.}.|.1.1.1.1.2.",
"3.4.5.6.6.6.7.8.9.0.9.a.b.c.c.d.e.d.f.g.f.h.",
"i.j.j.j.k.k.l.m.m.m.n.o.p.q.r.o.s.t.t.u.u.v.",
"w.w.x.y.z.A.B.A.C.D.E.F.F.G.H.I.J.K.J.L.M.N.",
"O.P.Q.R.S.T.T.U.U.V.W.X.W.Y.Z.`.Z. + +.+.+++",
"@+#+#+#+$+%+&+*+=+-+-+;+>+>+,+,+'+)+)+)+)+!+",
"~+~+{+]+^+^+/+(+(+(+_+:+_+_+<+[+}+|+|+1+1+2+",
"3+3+4+3+5+6+7+7+8+9+0+0+0+a+a+a+b+c+c+d+e+e+",
"f+f+g+h+i+g+i+j+i+k+l+m+n+o+n+p+q+r+s+t+r+u+",
"v+w+x+w+y+z+z+z+z+A+B+B+C+D+E+F+G+H+I+J+H+K+",
"L+L+M+M+N+N+O+O+P+P+Q+R+S+R+T+U+U+V+W+X+Y+Z+",
"`+ @.@ @+@@@#@@@$@%@&@&@&@*@=@-@=@=@;@>@>@,@",
"'@)@)@!@~@~@{@]@^@/@(@_@:@:@<@[@<@}@|@1@1@2@",
"3@4@4@5@6@7@8@9@0@0@0@a@a@b@c@b@d@d@e@f@e@g@"};
