/* XPM */
static char * titleun_xpm[] = {
"22 22 176 2",
"  	c #FFFFFE",
". 	c #FEFFFE",
"+ 	c #FEFFFF",
"@ 	c #FFFEFF",
"# 	c #FFFFFF",
"$ 	c #FEFEFF",
"% 	c #F7F9F9",
"& 	c #F8F8F9",
"* 	c #F7F8F9",
"= 	c #F8F9F9",
"- 	c #F8F9FA",
"; 	c #F9F9F9",
"> 	c #F9F9FA",
", 	c #F8FAFA",
"' 	c #F9FAFB",
") 	c #FAF9FA",
"! 	c #F0F2F3",
"~ 	c #F1F2F3",
"{ 	c #F1F3F4",
"] 	c #F2F3F4",
"^ 	c #F2F2F3",
"/ 	c #F1F3F5",
"( 	c #F3F3F4",
"_ 	c #F2F4F5",
": 	c #F2F3F5",
"< 	c #EAECEE",
"[ 	c #EBECEE",
"} 	c #EAEDEE",
"| 	c #EBEDEF",
"1 	c #EBEDEE",
"2 	c #EBEEEF",
"3 	c #EBEDF0",
"4 	c #ECEDEF",
"5 	c #E3E6E9",
"6 	c #E4E6E9",
"7 	c #E4E7E9",
"8 	c #E4E7EA",
"9 	c #E5E7E9",
"0 	c #E5E7EA",
"a 	c #E5E8EA",
"b 	c #DDE0E3",
"c 	c #DDE1E4",
"d 	c #DDE0E4",
"e 	c #DEE1E4",
"f 	c #DEE1E5",
"g 	c #DFE2E4",
"h 	c #D6D9DD",
"i 	c #D6DADD",
"j 	c #D6DBDE",
"k 	c #D6DADE",
"l 	c #D7DADE",
"m 	c #D7DBDE",
"n 	c #D6DBDF",
"o 	c #D7DBDF",
"p 	c #D8DBDF",
"q 	c #CFD4D8",
"r 	c #D0D4D9",
"s 	c #D0D4D8",
"t 	c #D0D5D9",
"u 	c #D0D5DA",
"v 	c #D1D5DA",
"w 	c #D1D5D9",
"x 	c #C9CED2",
"y 	c #C9CDD3",
"z 	c #C8CED3",
"A 	c #C9CED3",
"B 	c #CACFD3",
"C 	c #C9CED4",
"D 	c #C9CFD4",
"E 	c #C9CFD3",
"F 	c #CACFD4",
"G 	c #C2C8CD",
"H 	c #C2C8CE",
"I 	c #C3C8CD",
"J 	c #C3C8CE",
"K 	c #C2C9CE",
"L 	c #C3C9CE",
"M 	c #C3C9CF",
"N 	c #C4C9CF",
"O 	c #BBC1C8",
"P 	c #BBC2C8",
"Q 	c #BCC2C8",
"R 	c #BCC2C9",
"S 	c #BCC3C9",
"T 	c #BCC3C8",
"U 	c #BDC3C9",
"V 	c #B4BCC2",
"W 	c #B4BBC2",
"X 	c #B5BCC2",
"Y 	c #B5BCC3",
"Z 	c #B5BDC3",
"` 	c #B6BDC3",
" .	c #B6BCC3",
"..	c #AEB6BD",
"+.	c #AEB5BC",
"@.	c #ADB6BC",
"#.	c #AEB5BD",
"$.	c #AFB6BD",
"%.	c #AEB7BD",
"&.	c #AFB6BE",
"*.	c #AEB6BE",
"=.	c #AEB7BE",
"-.	c #AFB7BE",
";.	c #A7B0B7",
">.	c #A7AFB8",
",.	c #A7AFB7",
"'.	c #A8B0B7",
").	c #A8B0B8",
"!.	c #A7B0B8",
"~.	c #A8B1B8",
"{.	c #A8B0B9",
"].	c #A1A9B2",
"^.	c #A0AAB2",
"/.	c #A0A9B2",
"(.	c #A1AAB2",
"_.	c #A1AAB3",
":.	c #A2AAB2",
"<.	c #A2AAB3",
"[.	c #A1ABB3",
"}.	c #A2ABB3",
"|.	c #99A3AC",
"1.	c #99A3AD",
"2.	c #9AA3AD",
"3.	c #9AA4AD",
"4.	c #99A4AC",
"5.	c #9AA3AC",
"6.	c #9BA4AD",
"7.	c #9BA5AE",
"8.	c #9AA5AE",
"9.	c #9AA5AD",
"0.	c #939DA7",
"a.	c #949EA7",
"b.	c #939EA7",
"c.	c #949DA8",
"d.	c #939EA8",
"e.	c #949EA8",
"f.	c #949FA8",
"g.	c #959FA9",
"h.	c #8C97A2",
"i.	c #8C97A1",
"j.	c #8C98A2",
"k.	c #8D98A1",
"l.	c #8D98A2",
"m.	c #8D98A3",
"n.	c #8D97A2",
"o.	c #8D99A3",
"p.	c #8E98A2",
"q.	c #86919C",
"r.	c #85919C",
"s.	c #86919D",
"t.	c #86929C",
"u.	c #86929D",
"v.	c #87929D",
"w.	c #7E8B97",
"x.	c #7F8B96",
"y.	c #7F8B97",
"z.	c #7F8C97",
"A.	c #7F8B98",
"B.	c #7F8C98",
"C.	c #808C97",
"D.	c #808C98",
"E.	c #808D98",
"F.	c #788591",
"G.	c #788592",
"H.	c #788692",
"I.	c #798691",
"J.	c #798592",
"K.	c #798692",
"L.	c #7A8692",
"M.	c #7A8792",
"N.	c #717F8C",
"O.	c #717F8B",
"P.	c #727F8C",
"Q.	c #72808C",
"R.	c #72808D",
"S.	c #73808D",
"  . +   @ # $ # # @ # # # # # # # # # # # # ",
"% & & * & & = = - - ; > > - > > > > , > ' ) ",
"! ~ ~ { ] ] ^ { ] ] ] ] ] / ] ] ] ( _ _ : ( ",
"< < [ } } [ [ [ } } | 1 | | | | | | 2 3 4 2 ",
"5 6 6 6 7 5 6 7 6 7 7 6 8 8 9 9 0 8 9 9 0 a ",
"b b b b b b c d b b d c e c e e e e f e g f ",
"h i i j k k k l l m l m m n m l o o p m o o ",
"q q r q r q q s r s r t s t t t t t u v t w ",
"x y z y A A A A A B C C A D E B D F B F F F ",
"G G H H G I G G J G H K J K H L L L M M M N ",
"O O O O P P P Q Q Q R R R S S S T S S U S U ",
"V V V W X Y X Y Y Y X Y Z Y Y ` Z `  .` Z ` ",
"..+.@.#.....#.#.$...$.$.%.&.*.=.&.$.&.-.&.-.",
";.>.>.,.'.>.'.).!.!.'.).).).~.).~.~.{.).).{.",
"].].^.].]./.(.].(._.(.(.(._.(.:.<._._.[.}.<.",
"|.|.1.1.2.3.4.1.3.3.5.3.3.6.3.3.7.6.6.8.9.7.",
"0.0.0.0.0.a.b.c.0.0.b.b.c.a.d.e.f.e.e.e.e.g.",
"h.i.i.j.h.j.h.j.k.j.l.l.m.n.l.l.l.l.o.l.o.p.",
"q.r.r.q.q.q.r.r.s.s.s.t.u.s.u.u.u.u.u.v.v.v.",
"w.x.y.z.y.x.y.y.y.z.y.A.y.A.B.C.B.z.C.D.E.D.",
"F.F.F.F.F.F.F.G.H.F.I.F.J.H.K.J.K.L.K.M.K.L.",
"N.N.O.N.N.P.N.P.P.P.P.Q.Q.Q.Q.Q.Q.R.S.R.Q.Q."};
