/* XPM */
static char * unshade_xpm[] = {
"22 22 286 2",
"  	c None",
". 	c #B8D9F8",
"+ 	c #B8DAF8",
"@ 	c #B4D1EC",
"# 	c #B0CAE2",
"$ 	c #B2D2F0",
"% 	c #B7D9F7",
"& 	c #B6D8F7",
"* 	c #B6D7F7",
"= 	c #B6D7F6",
"- 	c #B5D7F6",
"; 	c #B5D6F6",
"> 	c #B3D5F5",
", 	c #B2D4F5",
"' 	c #B2D5F4",
") 	c #B2D4F4",
"! 	c #B1D4F4",
"~ 	c #B0D3F1",
"{ 	c #A0B2C1",
"] 	c #979EA5",
"^ 	c #BABBBB",
"/ 	c #CDCDCD",
"( 	c #DBDBDB",
"_ 	c #D0D0D0",
": 	c #BEBFC0",
"< 	c #9FA9B2",
"[ 	c #9FB6CB",
"} 	c #AED1F2",
"| 	c #ADD0F2",
"1 	c #ADD0F1",
"2 	c #AACEF0",
"3 	c #AACEEF",
"4 	c #AACDEF",
"5 	c #A2B8CE",
"6 	c #888A8B",
"7 	c #AAAAAA",
"8 	c #F4F4F4",
"9 	c #FCFCFC",
"0 	c #FDFDFD",
"a 	c #F3F3F3",
"b 	c #AFAFAF",
"c 	c #89939C",
"d 	c #9EBEDD",
"e 	c #A5CAED",
"f 	c #A5CAEC",
"g 	c #A3C8EB",
"h 	c #A2C7EA",
"i 	c #93A6B7",
"j 	c #888888",
"k 	c #BFBFBF",
"l 	c #EFEFEF",
"m 	c #F2F2F2",
"n 	c #F5F5F5",
"o 	c #F6F6F6",
"p 	c #F0F0F0",
"q 	c #C3C3C3",
"r 	c #96989A",
"s 	c #9AB6D1",
"t 	c #9DC3E7",
"u 	c #9AC1E5",
"v 	c #9BC2E6",
"w 	c #90A5B7",
"x 	c #898989",
"y 	c #BABABA",
"z 	c #E5E5E5",
"A 	c #E9E9E9",
"B 	c #EEEEEE",
"C 	c #F1F1F1",
"D 	c #EAEAEA",
"E 	c #979A9C",
"F 	c #94B3D2",
"G 	c #95BDE2",
"H 	c #95BDE1",
"I 	c #92BBE0",
"J 	c #92BBE1",
"K 	c #96B6D4",
"L 	c #7D7D7D",
"M 	c #9E9E9E",
"N 	c #D7D7D7",
"O 	c #E1E1E1",
"P 	c #F8F8F8",
"Q 	c #FAFAFA",
"R 	c #DEDEDE",
"S 	c #ACACAC",
"T 	c #949A9F",
"U 	c #8CB5DB",
"V 	c #8DB6DD",
"W 	c #8AB5DB",
"X 	c #8BB5DB",
"Y 	c #8B959D",
"Z 	c #868686",
"` 	c #BCBCBC",
" .	c #D6D6D6",
"..	c #E2E2E2",
"+.	c #ECECEC",
"@.	c #EDEDED",
"#.	c #C8C8C8",
"$.	c #A5A5A5",
"%.	c #869EB3",
"&.	c #85B0D8",
"*.	c #83AED6",
"=.	c #88ADCF",
"-.	c #949494",
";.	c #D8D8D8",
">.	c #E7E7E7",
",.	c #B3B3B3",
"'.	c #8B9299",
").	c #7DAAD3",
"!.	c #7BA8D2",
"~.	c #8DA2B5",
"{.	c #A1A1A1",
"].	c #C0C0C0",
"^.	c #BDBDBD",
"/.	c #BBBBBB",
"(.	c #E0E0E0",
"_.	c #DDDDDD",
":.	c #B6B6B6",
"<.	c #9B9C9C",
"[.	c #779FC3",
"}.	c #73A1CC",
"|.	c #8F9DAA",
"1.	c #B4B4B4",
"2.	c #C4C4C4",
"3.	c #3C3C3C",
"4.	c #131313",
"5.	c #0F0F0F",
"6.	c #0C0C0C",
"7.	c #080808",
"8.	c #060606",
"9.	c #1C1C1C",
"0.	c #313131",
"a.	c #474747",
"b.	c #555555",
"c.	c #8F8F8F",
"d.	c #DCDCDC",
"e.	c #7E9CB9",
"f.	c #6B9BC7",
"g.	c #929CA5",
"h.	c #A7A7A7",
"i.	c #B5B5B5",
"j.	c #C1C1C1",
"k.	c #C9C9C9",
"l.	c #2A2A2A",
"m.	c #191919",
"n.	c #141414",
"o.	c #0A0A0A",
"p.	c #050505",
"q.	c #1B1B1B",
"r.	c #323232",
"s.	c #5F5F5F",
"t.	c #CCCCCC",
"u.	c #C2C2C2",
"v.	c #829DB6",
"w.	c #6394C2",
"x.	c #949FAA",
"y.	c #ADADAD",
"z.	c #8B8B8B",
"A.	c #1F1F1F",
"B.	c #1A1A1A",
"C.	c #151515",
"D.	c #101010",
"E.	c #070707",
"F.	c #202020",
"G.	c #AEAEAE",
"H.	c #DADADA",
"I.	c #7E9BB6",
"J.	c #5B8EBD",
"K.	c #8E9EAE",
"L.	c #B0B0B0",
"M.	c #D3D3D3",
"N.	c #CACACA",
"O.	c #696969",
"P.	c #1E1E1E",
"Q.	c #161616",
"R.	c #111111",
"S.	c #0D0D0D",
"T.	c #7C7C7C",
"U.	c #CBCBCB",
"V.	c #D4D4D4",
"W.	c #7094B6",
"X.	c #5387B8",
"Y.	c #7D99B3",
"Z.	c #B2B2B2",
"`.	c #D2D2D2",
" +	c #C5C5C5",
".+	c #212121",
"++	c #1D1D1D",
"@+	c #171717",
"#+	c #4D4D4D",
"$+	c #BEBEBE",
"%+	c #C7C8C9",
"&+	c #5485B3",
"*+	c #4B81B3",
"=+	c #5587B4",
"-+	c #AEAEAF",
";+	c #DFDFDF",
">+	c #CECECE",
",+	c #333333",
"'+	c #232323",
")+	c #2C2C2C",
"!+	c #C6C6C6",
"~+	c #CFCFCF",
"{+	c #D5D5D5",
"]+	c #A8B5C1",
"^+	c #457CB0",
"/+	c #437AAE",
"(+	c #90A2B2",
"_+	c #8D8D8D",
":+	c #282828",
"<+	c #858585",
"[+	c #668DB1",
"}+	c #3D76AA",
"|+	c #3B74A9",
"1+	c #4D7EAD",
"2+	c #B9BBBC",
"3+	c #E3E3E3",
"4+	c #9F9F9F",
"5+	c #E4E4E4",
"6+	c #AFBECB",
"7+	c #3670A6",
"8+	c #356FA5",
"9+	c #336EA4",
"0+	c #336DA3",
"a+	c #336DA4",
"b+	c #6188AC",
"c+	c #C8C8C9",
"d+	c #CBD4DB",
"e+	c #3A70A3",
"f+	c #2E69A1",
"g+	c #2D69A1",
"h+	c #2B679F",
"i+	c #2A679F",
"j+	c #5F86AB",
"k+	c #CCCED0",
"l+	c #E8E8E8",
"m+	c #E6E6E6",
"n+	c #C6D1DB",
"o+	c #3B70A1",
"p+	c #25639C",
"q+	c #25629B",
"r+	c #25629C",
"s+	c #23609A",
"t+	c #22609A",
"u+	c #236099",
"v+	c #226099",
"w+	c #4073A2",
"x+	c #B7C2CC",
"y+	c #E5E6E7",
"z+	c #7F9FBE",
"A+	c #205E97",
"B+	c #1F5D96",
"C+	c #1D5C96",
"D+	c #1E5C97",
"E+	c #1B5A95",
"F+	c #1B5A94",
"G+	c #1A5A94",
"H+	c #1A5994",
"I+	c #1A5993",
"J+	c #4C79A5",
"K+	c #8BA5BE",
"L+	c #C1CDD9",
"M+	c #DCE0E4",
"N+	c #D3DAE0",
"O+	c #BBC9D7",
"P+	c #789ABB",
"Q+	c #2E679B",
"R+	c #175692",
"S+	c #175691",
"T+	c #165792",
"U+	c #165691",
"V+	c #155692",
"W+	c #135490",
"X+	c #135390",
"Y+	c #125390",
"Z+	c #12528F",
"`+	c #12538F",
" @	c #12528E",
".@	c #11528F",
"+@	c #11528E",
"@@	c #10518E",
"#@	c #10518D",
"$@	c #0F518D",
"%@	c #0F508D",
"&@	c #0E4F8C",
"*@	c #0E508C",
"=@	c #0D4F8C",
". . . . . + . . . . @ # $ % & & & * = - - ; ",
"> , ' ) ! ! ~ { ] ^ / ( _ : < [ } } } | 1 1 ",
"2 3 3 4 4 5 6 7 8 9 9 0 0 0 a b c d e f f f ",
"g h h h i j k l m 8 n o o n 8 p q r s t t t ",
"u v u w x y z A B C 8 n n 8 m B D k E F G H ",
"I J K L M N O A l 8 P Q Q P n l A R S T U V ",
"W X Y Z `  ...+.m 8 n o o n n a @...#.$.%.&.",
"*.=.x -.#.;.>.+.B l C m m C p l +.>.N ,.'.).",
"!.~.-.{.y / ].].].k k ^.^.` ` /./.(._.:.<.[.",
"}.|.M 7 1.2.3.4.5.6.7.8.9.0.a.b.c.( d.1.7 e.",
"f.g.h.i.j.k.7 l.m.n.5.o.p.q.r.s.t._./ u.i.v.",
"w.x.y.].t.q ;.z.A.B.C.D.6.E.F.G.d.H.q / k I.",
"J.K.L.#.M.N.q j.O.P.q.Q.R.S.T.;.t.q U.V.#.W.",
"X.Y.Z.U.H.`.U. +G.a..+++@+#+$+]. +t.M.d.%+&+",
"*+=+-+N.;+H.V.>+k.{.,+'+)+{.!+N.~+{+d.(.]+^+",
"/+/+(+ +;+(._.N M.~+_+:+<+/ _ M.;.R (.O [+}+",
"|+|+1+2+;.3+O ;+_.H.M.4+/ ;.H._.;+O 5+6+7+8+",
"9+0+a+b+c+z 5+3+O (.;+;+;+(.(...3+z d+e+f+g+",
"h+h+i+i+j+k+l+m+z 5+3+3+3+3+5+z >.n+o+p+q+r+",
"s+t+u+t+v+w+x+D A l+>.>.>.>.l+y+z+A+B+C+C+D+",
"E+F+F+G+H+H+I+J+K+L+M+A N+O+P+Q+R+S+T+U+U+V+",
"W+X+X+Y+Z+`+ @.@+@+@+@@@@@#@$@#@%@%@&@*@&@=@"};
