/* XPM */
static char * unshadeun_xpm[] = {
"22 22 329 2",
"  	c None",
". 	c #FFFFFE",
"+ 	c #FEFFFE",
"@ 	c #FEFFFF",
"# 	c #FFFEFF",
"$ 	c #FFFFFF",
"% 	c #FEFEFF",
"& 	c #F1F1F1",
"* 	c #E4E4E4",
"= 	c #F6F6F6",
"- 	c #F7F9F9",
"; 	c #F8F8F9",
"> 	c #F7F8F9",
", 	c #F6F7F7",
"' 	c #BABBBB",
") 	c #929293",
"! 	c #9F9F9F",
"~ 	c #B1B1B1",
"{ 	c #BFBFBF",
"] 	c #B4B4B4",
"^ 	c #A4A5A5",
"/ 	c #A4A4A5",
"( 	c #CACACA",
"_ 	c #F9F9FA",
": 	c #F8FAFA",
"< 	c #F9FAFB",
"[ 	c #FAF9FA",
"} 	c #F0F2F3",
"| 	c #F1F2F3",
"1 	c #F1F3F4",
"2 	c #F2F3F4",
"3 	c #C8C8C9",
"4 	c #6C6B6C",
"5 	c #878788",
"6 	c #D1D1D1",
"7 	c #D9D9D9",
"8 	c #DADADA",
"9 	c #CFCFD0",
"0 	c #8B8B8B",
"a 	c #89898A",
"b 	c #E1E1E2",
"c 	c #F2F4F5",
"d 	c #F2F3F5",
"e 	c #F3F3F4",
"f 	c #EAECEE",
"g 	c #EBECEE",
"h 	c #EAEDEE",
"i 	c #A9ABAB",
"j 	c #5F5E5F",
"k 	c #959596",
"l 	c #C5C5C5",
"m 	c #C8C8C8",
"n 	c #C9CACB",
"o 	c #CBCBCB",
"p 	c #CCCCCC",
"q 	c #CCCBCC",
"r 	c #C9C9CA",
"s 	c #C5C6C6",
"t 	c #989898",
"u 	c #737373",
"v 	c #CDCFD0",
"w 	c #EBEDF0",
"x 	c #ECEDEF",
"y 	c #EBEEEF",
"z 	c #E3E6E9",
"A 	c #E4E6E9",
"B 	c #A7A7A9",
"C 	c #585859",
"D 	c #B5B4B4",
"E 	c #B8B8B9",
"F 	c #BDBDBE",
"G 	c #C0BFC1",
"H 	c #C3C3C3",
"I 	c #C4C3C4",
"J 	c #C3C4C4",
"K 	c #C0C0C1",
"L 	c #BCBCBD",
"M 	c #B8B9B9",
"N 	c #8D8D8D",
"O 	c #6E6E70",
"P 	c #CED0D2",
"Q 	c #E5E7EA",
"R 	c #E5E8EA",
"S 	c #DDE0E3",
"T 	c #CBCDD0",
"U 	c #454646",
"V 	c #676667",
"W 	c #9FA0A0",
"X 	c #A9AAA9",
"Y 	c #B1B1B2",
"Z 	c #B7B7B8",
"` 	c #BBBBBD",
" .	c #C0C0C0",
"..	c #C2C2C2",
"+.	c #C1C1C2",
"@.	c #B6B6B7",
"#.	c #B0B0B1",
"$.	c #A5A5A6",
"%.	c #737374",
"&.	c #727273",
"*.	c #DCDFE1",
"=.	c #DEE1E5",
"-.	c #D6D9DD",
";.	c #D6DADD",
">.	c #747575",
",.	c #484748",
"'.	c #7E7D7E",
").	c #979798",
"!.	c #A3A3A3",
"~.	c #ADADAD",
"{.	c #B3B3B3",
"].	c #B5B5B6",
"^.	c #B6B6B6",
"/.	c #B6B7B8",
"(.	c #B5B6B6",
"_.	c #B3B3B4",
":.	c #AEADAD",
"<.	c #A2A2A2",
"[.	c #888888",
"}.	c #656566",
"|.	c #A0A2A4",
"1.	c #D7DBDF",
"2.	c #CFD4D8",
"3.	c #C3C7CA",
"4.	c #444444",
"5.	c #4E4E4F",
"6.	c #828282",
"7.	c #A6A6A6",
"8.	c #A8A8A8",
"9.	c #A9A9A9",
"0.	c #ABAAAB",
"a.	c #ACACAC",
"b.	c #ABACAC",
"c.	c #A9A9AA",
"d.	c #A8A8A9",
"e.	c #A5A5A5",
"f.	c #909091",
"g.	c #656767",
"h.	c #D1D5D9",
"i.	c #C9CED2",
"j.	c #96989B",
"k.	c #474848",
"l.	c #545454",
"m.	c #6D6D6E",
"n.	c #818181",
"o.	c #737273",
"p.	c #727373",
"q.	c #717272",
"r.	c #727172",
"s.	c #707070",
"t.	c #6E6F6F",
"u.	c #6E6E6F",
"v.	c #6D6D6D",
"w.	c #8F8F8F",
"x.	c #686768",
"y.	c #4D4D4E",
"z.	c #BABFC3",
"A.	c #C2C8CD",
"B.	c #797B7C",
"C.	c #4A4B4B",
"D.	c #565757",
"E.	c #606061",
"F.	c #707071",
"G.	c #000000",
"H.	c #000001",
"I.	c #3A3A3B",
"J.	c #868686",
"K.	c #878688",
"L.	c #5E5F60",
"M.	c #555556",
"N.	c #A4A7AB",
"O.	c #BBC1C8",
"P.	c #68696A",
"Q.	c #4C4C4D",
"R.	c #5A5A5B",
"S.	c #666667",
"T.	c #4F4F50",
"U.	c #030304",
"V.	c #808082",
"W.	c #717172",
"X.	c #666666",
"Y.	c #595859",
"Z.	c #979B9E",
"`.	c #B4BCC2",
" +	c #696A6D",
".+	c #4B4B4C",
"++	c #5E5E5F",
"@+	c #6A6A6B",
"#+	c #616161",
"$+	c #767677",
"%+	c #29292A",
"&+	c #79797A",
"*+	c #767777",
"=+	c #69696A",
"-+	c #5C5B5C",
";+	c #979A9E",
">+	c #AEB6BD",
",+	c #727578",
"'+	c #605F60",
")+	c #616162",
"!+	c #5A595B",
"~+	c #121212",
"{+	c #626263",
"]+	c #595959",
"^+	c #616062",
"/+	c #5D5E5E",
"(+	c #9AA0A5",
"_+	c #A7B0B7",
":+	c #888D92",
"<+	c #424343",
"[+	c #5B5B5C",
"}+	c #6A6A6A",
"|+	c #5B5B5B",
"1+	c #3D3E3E",
"2+	c #535455",
"3+	c #5A5B5C",
"4+	c #626162",
"5+	c #6B6A6B",
"6+	c #A2A9B1",
"7+	c #A1A9B2",
"8+	c #9EA5AE",
"9+	c #383939",
"0+	c #535354",
"a+	c #686869",
"b+	c #636264",
"c+	c #5C5C5D",
"d+	c #575758",
"e+	c #525152",
"f+	c #2A2A2B",
"g+	c #28292A",
"h+	c #515252",
"i+	c #5D5D5E",
"j+	c #636364",
"k+	c #676868",
"l+	c #757679",
"m+	c #A2AAB3",
"n+	c #99A3AC",
"o+	c #6A6E71",
"p+	c #474748",
"q+	c #5E5F5F",
"r+	c #59595A",
"s+	c #555455",
"t+	c #505051",
"u+	c #0F0F10",
"v+	c #060607",
"w+	c #505152",
"x+	c #535454",
"y+	c #585959",
"z+	c #606162",
"A+	c #616163",
"B+	c #8E969C",
"C+	c #9BA5AE",
"D+	c #939DA7",
"E+	c #919AA3",
"F+	c #3D3D3E",
"G+	c #525354",
"H+	c #575858",
"I+	c #545456",
"J+	c #1A191A",
"K+	c #525253",
"L+	c #545455",
"M+	c #58595A",
"N+	c #5A5B5B",
"O+	c #5D5D5F",
"P+	c #75787A",
"Q+	c #949EA8",
"R+	c #959FA9",
"S+	c #8C97A2",
"T+	c #8C97A1",
"U+	c #818990",
"V+	c #3F4041",
"W+	c #585858",
"X+	c #565657",
"Y+	c #555555",
"Z+	c #555657",
"`+	c #6F7073",
" @	c #8B959E",
".@	c #8D99A3",
"+@	c #8E98A2",
"@@	c #86919C",
"#@	c #85919C",
"$@	c #7C838B",
"%@	c #474749",
"&@	c #525254",
"*@	c #515152",
"=@	c #505151",
"-@	c #4F4F51",
";@	c #4E4F50",
">@	c #504F51",
",@	c #505052",
"'@	c #6E7174",
")@	c #858F99",
"!@	c #87929D",
"~@	c #7E8B97",
"{@	c #7F8B96",
"]@	c #7F8B97",
"^@	c #7F8C97",
"/@	c #7C868F",
"(@	c #595B5F",
"_@	c #505050",
":@	c #4E4E50",
"<@	c #4D4D4F",
"[@	c #4B4C4D",
"}@	c #4C4D4D",
"|@	c #515153",
"1@	c #80878E",
"2@	c #7E8B95",
"3@	c #808C97",
"4@	c #808C98",
"5@	c #808D98",
"6@	c #788591",
"7@	c #78818B",
"8@	c #71767C",
"9@	c #66686B",
"0@	c #545557",
"a@	c #484849",
"b@	c #57585D",
"c@	c #696D70",
"d@	c #7D848B",
"e@	c #7A8590",
"f@	c #798692",
"g@	c #7A8692",
"h@	c #7A8792",
"i@	c #717F8C",
"j@	c #717F8B",
"k@	c #727F8C",
"l@	c #72808C",
"m@	c #72808D",
"n@	c #73808D",
". + @ . # $ % $ $ # & * = $ $ $ $ $ $ $ $ $ ",
"- ; ; > ; ; , ' ) ! ~ { ] ^ / ( _ _ : _ < [ ",
"} | | 1 2 3 4 5 6 7 7 8 8 8 9 0 a b c c d e ",
"f f g h i j k l m n o p q o r s t u v w x y ",
"z A A B C a D E F G H I J H K L M N O P Q R ",
"S S T U V W X Y Z `  ...+. .L @.#.$.%.&.*.=.",
"-.;.>.,.'.).!.~.{.].^./.@.].(._.:.<.[.}.|.1.",
"2.3.4.5.6.) <.7.8.9.0.a.b.0.c.d.e.W f.4 g.h.",
"i.j.k.l.m.n.u o.p.q.r.s.s.t.u.v.m.) w.x.y.z.",
"A.B.C.D.E.F.G.G.G.G.G.G.G.G.G.H.I.J.K.L.M.N.",
"O.P.Q.R.S.u.T.G.G.G.G.G.G.G.G.U.F.V.W.X.Y.Z.",
"`. +.+++@+#+$+%+G.G.G.G.G.G.G..+&+*+E.=+-+;+",
">+,+,.'+@+)+!+C G.G.G.G.G.G.~+u.{+]+^+=+/+(+",
"_+:+<+[+}+{+|+M.1+G.G.G.G.G.y.T.2+3+4+5+[+6+",
"7+8+9+0+a+b+c+d+e+f+G.G.G.g+5.h+d+i+j+k+l+m+",
"n+n+o+p+)+{+q+r+s+t+u+G.v+5.w+x+y+++z+A+B+C+",
"D+D+E+F+G+++c+!+H+I+y.J+p+K+L+d+M+N+O+P+Q+R+",
"S+T+T+U+V+r+W+X+Y+0+K+K+K+0+0+I+Z+C `+ @.@+@",
"@@#@#@@@$@%@M.&@*@=@T.T.-@;@>@,@0+'@)@!@!@!@",
"~@{@]@^@]@/@(@_@:@<@Q.Q.[@Q.}@|@1@2@3@4@5@4@",
"6@6@6@6@6@6@6@7@8@9@0@a@b@c@d@e@f@g@f@h@f@g@",
"i@i@j@i@i@k@i@k@k@k@k@l@l@l@l@l@l@m@n@m@l@l@"};
