/* XPM */
static char *button1-4[] = {
/* columns rows colors chars-per-pixel */
"16 17 200 2",
"   c black",
".  c #010101",
"X  c #000009",
"o  c #01000A",
"O  c #000209",
"+  c #000309",
"@  c #00020B",
"#  c #00030A",
"$  c #02000B",
"%  c #03010B",
"&  c #00010C",
"*  c #00040D",
"=  c #000310",
"-  c #000710",
";  c #000714",
":  c #000617",
">  c #00081E",
",  c #080D13",
"<  c #0B0F18",
"1  c #0E171E",
"2  c #13181E",
"3  c #18171E",
"4  c #000820",
"5  c #000B2F",
"6  c #050636",
"7  c #00053E",
"8  c #001021",
"9  c #00172C",
"0  c #1F1E22",
"q  c #082B2D",
"w  c #0F2F2E",
"e  c #0A312E",
"r  c #0D312F",
"t  c #0F3234",
"y  c #0F3633",
"u  c #10302F",
"i  c #183B3E",
"p  c gray15",
"a  c #20242D",
"s  c #21262C",
"d  c #202D36",
"f  c #323232",
"g  c #010741",
"h  c #020645",
"j  c #030746",
"k  c #000748",
"l  c #000846",
"z  c #020A4B",
"x  c #021E59",
"c  c #071E58",
"v  c #0F3258",
"b  c #1A2F40",
"n  c #1A364E",
"m  c #292E56",
"M  c #393742",
"N  c #223A78",
"B  c #203E7C",
"V  c #1C4444",
"C  c #124C7C",
"Z  c #1D4B7F",
"A  c #314D4F",
"S  c #3E4346",
"D  c #315050",
"F  c #3F4070",
"G  c #413F4D",
"H  c #474F51",
"J  c #49515C",
"K  c #435C72",
"L  c #5F6B74",
"P  c #5F7076",
"I  c gray46",
"U  c #1C4982",
"Y  c #245286",
"T  c #24518A",
"R  c #2B5E9D",
"E  c #365C80",
"W  c #296299",
"Q  c #336CA3",
"!  c #3568A7",
"~  c #3C7AAB",
"^  c #5A7A8F",
"/  c #427DB5",
"(  c #4C7EB1",
")  c #5277A1",
"_  c #727180",
"`  c #3E8CDF",
"'  c #4C8FA9",
"]  c #4A82B3",
"[  c #4886B7",
"{  c #5387AF",
"}  c #5885AF",
"|  c #5E8BB5",
" . c #5F93BB",
".. c #7D868D",
"X. c #7C9BBA",
"o. c #4D88C0",
"O. c #4891DE",
"+. c #5096DE",
"@. c #4C95E2",
"#. c #4A98EB",
"$. c #4F9DF0",
"%. c #539CE9",
"&. c #5DA3EB",
"*. c #5BA4F1",
"=. c #5AA8FB",
"-. c #619BCB",
";. c #6D9FD2",
":. c #6B9FD8",
">. c #6BA3D4",
",. c #7EA1C7",
"<. c #77A9DC",
"1. c #78A0D1",
"2. c #74BBD1",
"3. c #62A8EE",
"4. c #65AEF2",
"5. c #6BB1F7",
"6. c #6EB2F1",
"7. c #6CB5F9",
"8. c #7AAEE7",
"9. c #7CAEE1",
"0. c #7EB2EB",
"q. c #71B6FB",
"w. c #73B9F5",
"e. c #72B9FB",
"r. c #70B9FD",
"t. c #78BEFF",
"y. c #7AC1FF",
"u. c #7BC1FF",
"i. c #7BC4FF",
"p. c #7DC3FF",
"a. c #7FC4FF",
"s. c #89969F",
"d. c gray60",
"f. c #8FA4B5",
"g. c #90B6B9",
"h. c #90B8B8",
"j. c #8289C0",
"k. c #84A2C8",
"l. c #8FB2D8",
"z. c #92B0D6",
"x. c #97B6D5",
"c. c #92B5DB",
"v. c #91B4DC",
"b. c #95B9DB",
"n. c #96BADC",
"m. c #87AFE0",
"M. c #82B6EF",
"N. c #8FB6E1",
"B. c #92BBE7",
"V. c #96B9E1",
"C. c #98BBE3",
"Z. c #99BEE8",
"A. c #82C6FF",
"S. c #83CFF3",
"D. c #81D0EF",
"F. c #88D4F8",
"G. c #8CD8F2",
"H. c #8EDAF2",
"J. c #8BDAF9",
"K. c #98C1ED",
"L. c #9FC2EA",
"P. c #91D4EE",
"I. c #90D8F0",
"U. c #93DBF4",
"Y. c #94DBF1",
"T. c #92DEFF",
"R. c #93E2FF",
"E. c #9DECFF",
"W. c #A1C5E7",
"Q. c #A3C6EE",
"!. c #A4C7EF",
"~. c #A5C9EB",
"^. c #A0C7F2",
"/. c #A1E8FE",
"(. c #A1EDFF",
"). c #A2EEFF",
"_. c #A5EDFF",
"`. c #A7EFFF",
"'. c #A9ECFF",
"]. c #AAEDFF",
"[. c #A6F2FF",
"{. c #ABF2FF",
"}. c #C8CEFF",
"|. c #CED6FF",
" X c #CFD7FF",
".X c #D2D6FF",
"XX c #D3D9FF",
"oX c #D3DBFF",
"OX c #D6DAFF",
"+X c #D4DCFF",
"@X c #CFF3F1",
"#X c #CEF5F2",
"$X c #CCF4F4",
"%X c #CEF4F7",
"&X c #D3F3F2",
"*X c #D0F4F2",
"=X c #D1F4F6",
"-X c #D4F4F3",
";X c #D1F8F5",
":X c None",
/* pixels */
":X:X:X:X:X:X:X:X:X:X:X:X:Xp   d.",
":X                      I   f :X",
"  0 m 7 l l j j k z g 6 % + _   ",
"  G j.}.oX|.OX.XoX|.OXF % M 3   ",
"  x 1.K.^.!.~.W.Q.L...+ 9 k.c   ",
"  B m.B.N.V.b.n.V.v.1 * ^ z.N   ",
"  Z <.( 2 , ,.c.x.K % d M.0.U   ",
"  Y ;.9.s + v l.X.> - s.8.:.T   ",
"  R O.@.} 9 = J s + C O.#.O.W   ",
"  ! %.*.>.Z : % % < -.&.=.$.Q   ",
"  ~ 4.7.t.6.i : 4 ) w.q.5.3./   ",
"  [ e.p.t.A.f.4 n Z.p.a.u.t.o.  ",
"  | S.F.H.U.P.' 2.Y.H.G.J.D. .  ",
"  } T.).`.`.].{.{./.].).E.R.{   ",
"  L g.%X#X=X-X&X#X@X=X=X$Xh.L   ",
"  S A i y e u w r r q y V D H   ",
"                                "
};
