/* XPM */
static char *green_xpm[] = {
"22 22 230 2",
"  	c None",
"01	c #FFFFFF",
"02	c #F0F0F0",
"03	c #EEEEEE",
"04	c #E9E9E9",
"05	c #E5E5E5",
"06	c #C9C9C9",
"07	c #5B5B59",
"08	c #252523",
"09	c #090A05",
"0A	c #2C2C2C",
"0B	c #565656",
"0C	c #C4C4C4",
"0D	c #F1F1F1",
"0E	c #EAEAEA",
"0F	c #676067",
"10	c #434144",
"11	c #8A8A8C",
"12	c #BFBEC4",
"13	c #CECCD7",
"14	c #C4B3C3",
"15	c #908F94",
"16	c #2C3836",
"17	c #676E74",
"18	c #FEFEFE",
"19	c #F7F7F7",
"1A	c #6B706A",
"1B	c #3F4A3C",
"1C	c #8C9B86",
"1D	c #C6D5C0",
"1E	c #D6E3CF",
"1F	c #EDF8E7",
"20	c #E4E6DB",
"21	c #C8D7C2",
"22	c #8FA78D",
"23	c #3B5041",
"24	c #63676A",
"25	c #EBEBEB",
"26	c #A1A5A0",
"27	c #243D1F",
"28	c #4A703F",
"29	c #7AA369",
"2A	c #A5CB8E",
"2B	c #B9DB9E",
"2C	c #ABCB8C",
"2D	c #B7D49E",
"2E	c #98BF80",
"2F	c #7AA868",
"30	c #42693A",
"31	c #253D27",
"32	c #9A9F9D",
"33	c #E8E8E8",
"34	c #DCDCDC",
"35	c #455441",
"36	c #2F5C23",
"37	c #4F8F39",
"38	c #569837",
"39	c #6AA644",
"3A	c #6CA33D",
"3B	c #74A93F",
"3C	c #72AA49",
"3D	c #69A63F",
"3E	c #53942E",
"3F	c #5A9543",
"40	c #376131",
"41	c #3A4F3E",
"42	c #DBDBDB",
"43	c #ECECEC",
"44	c #1F3818",
"45	c #40802C",
"46	c #40931F",
"47	c #56A62B",
"48	c #6DB138",
"49	c #6CAD2F",
"4A	c #7DC03C",
"4B	c #6FB53B",
"4C	c #6AB330",
"4D	c #5AA725",
"4E	c #489223",
"4F	c #3C782E",
"50	c #1B3E1D",
"51	c #FDFDFD",
"52	c #FBFBFB",
"53	c #E7E7E7",
"54	c #113509",
"55	c #509B34",
"56	c #51AD26",
"57	c #63B32C",
"58	c #7CBE40",
"59	c #99DA58",
"5A	c #86CD43",
"5B	c #90D757",
"5C	c #84CC42",
"5D	c #6FBD2C",
"5E	c #57A626",
"5F	c #589D42",
"60	c #113F10",
"61	c #EFEFEF",
"62	c #EDEDED",
"63	c #DADADA",
"64	c #2D5822",
"65	c #5FAF3C",
"66	c #69C534",
"67	c #8AD24C",
"68	c #95CC55",
"69	c #A7E168",
"6A	c #9BE15D",
"6B	c #99D95F",
"6C	c #9CDE56",
"6D	c #84CC3C",
"6E	c #71BF38",
"6F	c #62AD48",
"70	c #1B5117",
"71	c #E6E6E6",
"72	c #E4E4E4",
"73	c #D2D2D2",
"74	c #2F5F23",
"75	c #5AAE34",
"76	c #77CF3D",
"77	c #99DB57",
"78	c #B4E474",
"79	c #BAEE7F",
"7A	c #B3F57A",
"7B	c #BBF682",
"7C	c #A9E463",
"7D	c #9FE052",
"7E	c #87D04A",
"7F	c #60AB42",
"80	c #326A2B",
"81	c #BEC5BD",
"82	c #E2E2E2",
"83	c #D5D5D5",
"84	c #5C7852",
"85	c #5C8E37",
"86	c #95D857",
"87	c #9EEA56",
"88	c #A7EF65",
"89	c #C3FF8F",
"8A	c #C6FE9D",
"8B	c #C8FA97",
"8C	c #B8F677",
"8D	c #A4F05C",
"8E	c #92DE58",
"8F	c #599440",
"90	c #557754",
"91	c #D0D0D0",
"92	c #F5F5F5",
"93	c #7B946D",
"94	c #558031",
"95	c #7DB746",
"96	c #B3F673",
"97	c #C8FF89",
"98	c #C7FF8F",
"99	c #C2F590",
"9A	c #C8FA89",
"9B	c #C7FF7F",
"9C	c #B9FC6F",
"9D	c #83C24D",
"9E	c #568541",
"9F	c #7B957C",
"A0	c #DEDEDE",
"A1	c #F3F3F3",
"A2	c #D6D6D6",
"A3	c #A3A9A8",
"A4	c #58724F",
"A5	c #5A843C",
"A6	c #96C962",
"A7	c #C2F57C",
"A8	c #CFFF7C",
"A9	c #DCFF84",
"AA	c #D3FF8F",
"AB	c #BDEF74",
"AC	c #9ECF5C",
"AD	c #5E8532",
"AE	c #546E47",
"AF	c #A8AEAA",
"B0	c #DDDDDD",
"B1	c #BBBBBB",
"B2	c #788480",
"B3	c #4D6448",
"B4	c #506F36",
"B5	c #739541",
"B6	c #9CBF57",
"B7	c #B9DC68",
"B8	c #99C067",
"B9	c #5D7835",
"BA	c #556541",
"BB	c #7B817D",
"BC	c #BCBCBC",
"BD	c #D3D3D3",
"BE	c #E0E0E0",
"BF	c #CCCCCC",
"C0	c #B4B4B4",
"C1	c #868F8C",
"C2	c #5B6660",
"C3	c #465246",
"C4	c #3F4C38",
"C5	c #3B492F",
"C6	c #455A33",
"C7	c #445533",
"C8	c #57604F",
"C9	c #848388",
"CA	c #E3E3E3",
"CB	c #BDBDBD",
"CC	c #ACACAE",
"CD	c #858793",
"CE	c #73767F",
"CF	c #6C7079",
"D0	c #6D736F",
"D1	c #8D9091",
"D2	c #ADADAE",
"D3	c #D9D9D9",
"D4	c #D8D8D8",
"D5	c #C8C8C8",
"D6	c #AEAEAE",
"D7	c #A8A8A8",
"D8	c #A6A6A6",
"D9	c #A9A9A9",
"DA	c #B1B1B1",
"DB	c #CECECE",
"DC	c #CBCBCB",
"DD	c #C6C6C6",
"DE	c #BFBFBF",
"DF	c #C1C1C1",
"E0	c #C7C7C7",
"E1	c #CACACA",
"E2	c #6C6C6C",
"E3	c #6D6D6D",
"E4	c #757575",
"E5	c #767676",
"12121212121212121212121212121212121212121212",
"12121212121212121212121212121212121212121212",
"12121212121212121212121212121212121212121212",
"12121212121212120708090A0B121212121212121212",
"1212121212120F101112131415161712121212121212",
"12121212121A1B1C1D1E1F2021222324121212121212",
"12121212122728292A2B2C2D2E2F3031121212121212",
"1212121235363738393A3B3C3D3E3F40411212121212",
"121212124445464748494A4B4C4D4E4F501212121212",
"121212125455565758595A5B5C5D5E5F601212121212",
"121212126465666768696A6B6C6D6E6F701212121212",
"121212127475767778797A7B7C7D7E7F801212121212",
"121212128485868788898A8B8C8D8E8F901212121212",
"12121212939495969798999A9B9C9D9E9F1212121212",
"1212121212A4A5A6A7A8A9AAABACADAE121212121212",
"1212121212B2B3B4B5B6B7B8B5B9BABB121212121212",
"121212121212C1C2C3C4C5C6C7C8C912121212121212",
"12121212121212121212121212121212121212121212",
"12121212121212121212121212121212121212121212",
"12121212121212121212121212121212121212121212",
"12121212121212121212121212121212121212121212",
"12121212121212121212121212121212121212121212"
};
