/* XPM */
static char *red_xpm[] = {
"22 22 228 2",
"  	c None",
"01	c #FFFFFF",
"02	c #F0F0F0",
"03	c #EFEFEF",
"04	c #EEEEEE",
"05	c #E9E9E9",
"06	c #E8E8E8",
"07	c #E3E3E3",
"08	c #A8A8A6",
"09	c #5F5F5D",
"0A	c #242422",
"0B	c #101010",
"0C	c #232323",
"0D	c #575759",
"0E	c #D1D1D2",
"0F	c #E6E6E6",
"10	c #F1F1F1",
"11	c #706667",
"12	c #423D41",
"13	c #9B9599",
"14	c #C8BDC3",
"15	c #D7CAD1",
"16	c #CEBFC6",
"17	c #8F8289",
"18	c #53484E",
"19	c #695E64",
"1A	c #EAEAEA",
"1B	c #FEFEFE",
"1C	c #F7F7F7",
"1D	c #75746F",
"1E	c #67444A",
"1F	c #A89694",
"20	c #DBC7C6",
"21	c #F2DDDC",
"22	c #F9E1E1",
"23	c #FAE0E1",
"24	c #E7CDCE",
"25	c #9D8585",
"26	c #624A4A",
"27	c #7C716D",
"28	c #EBEBEB",
"29	c #ABA4A0",
"2A	c #4D2627",
"2B	c #974B55",
"2C	c #B77A75",
"2D	c #D1948F",
"2E	c #E2A5A0",
"2F	c #D89994",
"30	c #D59691",
"31	c #B87773",
"32	c #93524E",
"33	c #461E1C",
"34	c #B6A7A9",
"35	c #DCDCDC",
"36	c #714F4D",
"37	c #782C30",
"38	c #B13F47",
"39	c #A93832",
"3A	c #BA4943",
"3B	c #C1524B",
"3C	c #C5564F",
"3D	c #B94842",
"3E	c #AC3632",
"3F	c #AE3733",
"40	c #7A3331",
"41	c #7A5052",
"42	c #ECECEC",
"43	c #DBDBDB",
"44	c #541E1C",
"45	c #9F3738",
"46	c #A61E22",
"47	c #C43932",
"48	c #D24C43",
"49	c #D04D43",
"4A	c #CC4C41",
"4B	c #DC594F",
"4C	c #D54F46",
"4D	c #BF342D",
"4E	c #B52620",
"4F	c #9D3735",
"50	c #5D1F20",
"51	c #FDFDFD",
"52	c #FBFBFB",
"53	c #E7E7E7",
"54	c #51100C",
"55	c #B53F3B",
"56	c #CD3E36",
"57	c #D65446",
"58	c #E16354",
"59	c #EA7261",
"5A	c #E3705D",
"5B	c #E26F5C",
"5C	c #DD6453",
"5D	c #D95749",
"5E	c #CD4539",
"5F	c #B23531",
"60	c #5A0E0E",
"61	c #EDEDED",
"62	c #DADADA",
"63	c #67201A",
"64	c #B94035",
"65	c #DE5542",
"66	c #E66A5E",
"67	c #E87264",
"68	c #F78978",
"69	c #F68F7C",
"6A	c #F58C79",
"6B	c #E87968",
"6C	c #E3695C",
"6D	c #D6564B",
"6E	c #CD3F3B",
"6F	c #6E1B17",
"70	c #CECCCB",
"71	c #782F26",
"72	c #C34B3B",
"73	c #E9674D",
"74	c #F4736D",
"75	c #FF867E",
"76	c #FF968B",
"77	c #FD9184",
"78	c #FF978A",
"79	c #FE897F",
"7A	c #F97A73",
"7B	c #EE6763",
"7C	c #D13C36",
"7D	c #832C25",
"7E	c #D2D2D2",
"7F	c #E4E4E4",
"80	c #D3D3D3",
"81	c #876E63",
"82	c #95332A",
"83	c #FF6F6F",
"84	c #F28777",
"85	c #FF9B8D",
"86	c #FFA198",
"87	c #FFA49D",
"88	c #FFA09A",
"89	c #FF9690",
"8A	c #FF8B82",
"8B	c #F0766B",
"8C	c #A03837",
"8D	c #915650",
"8E	c #D3D3D2",
"8F	c #F4F4F4",
"90	c #E0E0E0",
"91	c #BEBEBE",
"92	c #954641",
"93	c #D75B5B",
"94	c #FFA799",
"95	c #FFB49F",
"96	c #F1B9A0",
"97	c #F3B9A1",
"98	c #FEB09C",
"99	c #FD9185",
"9A	c #E4655E",
"9B	c #8E4443",
"9C	c #9F7873",
"9D	c #E1E1E1",
"9E	c #D5D5D5",
"9F	c #ADAAA8",
"A0	c #937C7A",
"A1	c #8A3C3C",
"A2	c #F07879",
"A3	c #FE958F",
"A4	c #FFAD9E",
"A5	c #FFBBA5",
"A6	c #FEBAA3",
"A7	c #F2A190",
"A8	c #D46F67",
"A9	c #AD3B3A",
"AA	c #7A5354",
"AB	c #A99F9C",
"AC	c #DEDEDE",
"AD	c #DDDDDD",
"AE	c #B9B9B9",
"AF	c #A2A2A2",
"B0	c #857576",
"B1	c #573B30",
"B2	c #8E6864",
"B3	c #BD7D7D",
"B4	c #EF7C81",
"B5	c #D66569",
"B6	c #994845",
"B7	c #6E463C",
"B8	c #5F5242",
"B9	c #8F8085",
"BA	c #B8B8B8",
"BB	c #D1D1D1",
"BC	c #CBCBCB",
"BD	c #B4B4B4",
"BE	c #9C9C9C",
"BF	c #685D5D",
"C0	c #463F37",
"C1	c #474538",
"C2	c #4A4C3E",
"C3	c #525449",
"C4	c #9B9B9B",
"C5	c #A1A1A1",
"C6	c #B3B3B3",
"C7	c #CACACA",
"C8	c #BDBDBD",
"C9	c #A9ACAE",
"CA	c #A7A7A7",
"CB	c #A4A4A4",
"CC	c #A3A3A3",
"CD	c #A6A6A6",
"CE	c #A2AAAA",
"CF	c #BCBCBC",
"D0	c #E2E2E2",
"D1	c #D9D9D9",
"D2	c #D8D8D8",
"D3	c #C7C7C7",
"D4	c #BBBBBB",
"D5	c #AEAEAE",
"D6	c #A9A9A9",
"D7	c #A8A8A8",
"D8	c #ACACAC",
"D9	c #B7B7B7",
"DA	c #CECECE",
"DB	c #C5C5C5",
"DC	c #C0C0C0",
"DD	c #C4C4C4",
"DE	c #CCCCCC",
"DF	c #C9C9C9",
"E0	c #C8C8C8",
"E1	c #757575",
"E2	c #6D6D6D",
"E3	c #6C6C6C",
"BABABABABABABABABABABABABABABABABABABABABABA",
"BABABABABABABABABABABABABABABABABABABABABABA",
"BABABABABABABABABABABABABABABABABABABABABABA",
"BABABABABABABABABA0A0B0CBABABABABABABABABABA",
"BABABABABABABA12131415161718BABABABABABABABA",
"BABABABABABA1E1F20212223242526BABABABABABABA",
"BABABABABA2A2B2C2D2E2E2F30313233BABABABABABA",
"BABABABA363738393A3B3C3C3D3E3F4041BABABABABA",
"BABABABA4445464748494A4B4C4D4E4F50BABABABABA",
"BABABABA5455565758595A5B5C5D5E5F60BABABABABA",
"BABABABA636465666768696A6B6C6D6E6FBABABABABA",
"BABABABA7172737475767778797A7B7C7DBABABABABA",
"BABABABA8182838485868788898A8B8C8DBABABABABA",
"BABABABABA92938A9495969798999A9BBABABABABABA",
"BABABABABAA0A1A2A3A4A5A6A7A8A9AABABABABABABA",
"BABABABABABAB0B1B2B3B4B5B6B7B8BABABABABABABA",
"BABABABABABABABABFC0C1C2C3BABABABABABABABABA",
"BABABABABABABABABABABABABABABABABABABABABABA",
"BABABABABABABABABABABABABABABABABABABABABABA",
"BABABABABABABABABABABABABABABABABABABABABABA",
"BABABABABABABABABABABABABABABABABABABABABABA",
"BABABABABABABABABABABABABABABABABABABABABABA"
};
