/* XPM */
static char *dummy[]={
"4 16 16 1",
"m c #dadada",
"n c #dcdcdd",
"j c #e2e2e2",
"k c #e6e6e6",
"a c #e9e9e9",
"l c #e9e9ea",
"d c #eaeaea",
"g c #ebebeb",
"h c #ececec",
"f c #f0f0f0",
"e c #f1f1f1",
"b c #f2f2f2",
"i c #f4f4f4",
"# c #f7f7f7",
"c c #f8f8f8",
". c #ffffff",
"....",
"####",
"aaaa",
"bbbb",
"cccc",
"dddd",
"eefe",
"cccc",
"dddd",
"ghhd",
"iiii",
"jjjj",
"kkkk",
"ddld",
"mmmm",
"nnnn"};
