/* XPM */
static char * test4_xpm[] = {
"22 22 289 2",
"  	c None",
". 	c #AFB0AB",
"+ 	c #AEB0AB",
"@ 	c #B0B2AF",
"# 	c #B0B2B1",
"$ 	c #AEB0AD",
"% 	c #AEAFA9",
"& 	c #AEADA8",
"* 	c #AEA9A6",
"= 	c #B9B3B3",
"- 	c #B2AEAD",
"; 	c #A5A4A2",
"> 	c #AAA9A7",
", 	c #ABABAB",
"' 	c #A9A9A9",
") 	c #ADADAD",
"! 	c #ADADAB",
"~ 	c #AEAFAA",
"{ 	c #AEADA9",
"] 	c #B0AFAB",
"^ 	c #B4B0AD",
"/ 	c #A9AAA5",
"( 	c #ADAEA9",
"_ 	c #AFAFAD",
": 	c #ACAAAD",
"< 	c #AFABA8",
"[ 	c #ABA8A3",
"} 	c #B1AEA9",
"| 	c #A7A6A4",
"1 	c #A2A1A1",
"2 	c #A6A6A6",
"3 	c #AEAEAE",
"4 	c #A7A7A8",
"5 	c #A5A4A7",
"6 	c #A8A6A9",
"7 	c #A1A1A1",
"8 	c #A6A5A3",
"9 	c #A2A19F",
"0 	c #A3A29E",
"a 	c #ACADA8",
"b 	c #B1B0AE",
"c 	c #B2ADB1",
"d 	c #AEA7AF",
"e 	c #B4ADB5",
"f 	c #BAB1B4",
"g 	c #AEAAAA",
"h 	c #707070",
"i 	c #424242",
"j 	c #262626",
"k 	c #090909",
"l 	c #0F0F0F",
"m 	c #464646",
"n 	c #777777",
"o 	c #A5A5A5",
"p 	c #B8B6BB",
"q 	c #B3B1B6",
"r 	c #AAA8AD",
"s 	c #B1B1B3",
"t 	c #B3B3B3",
"u 	c #A8A9A4",
"v 	c #ABA9AA",
"w 	c #A8A3A9",
"x 	c #A69EA9",
"y 	c #B1A9B4",
"z 	c #ACA8A9",
"A 	c #8E8E8E",
"B 	c #4C4C4C",
"C 	c #7F7F7F",
"D 	c #B7B7B7",
"E 	c #C6C6C6",
"F 	c #BBBBBB",
"G 	c #868686",
"H 	c #3E3E3E",
"I 	c #535353",
"J 	c #838383",
"K 	c #ACACAF",
"L 	c #A7A6AB",
"M 	c #A1A1A3",
"N 	c #A8A8A8",
"O 	c #A2A4A1",
"P 	c #B2B2B0",
"Q 	c #B5B3B8",
"R 	c #B1ABB5",
"S 	c #AFA9B5",
"T 	c #B3B1B8",
"U 	c #959595",
"V 	c #5B5B5B",
"W 	c #878787",
"X 	c #D2D2D2",
"Y 	c #E7E7E7",
"Z 	c #E2E2E2",
"` 	c #E9E9E9",
" .	c #D0D0D0",
"..	c #979797",
"+.	c #3D3D3D",
"@.	c #515151",
"#.	c #9C9C9C",
"$.	c #B5B7B6",
"%.	c #A6A7A9",
"&.	c #AFAFAF",
"*.	c #ADAFAC",
"=.	c #AFACB5",
"-.	c #ACABB3",
";.	c #A7A8A9",
">.	c #6F6F6F",
",.	c #1A1A1A",
"'.	c #626262",
").	c #888888",
"!.	c #B4B4B4",
"~.	c #B0B0B0",
"{.	c #A4A4A4",
"].	c #5F5F5F",
"^.	c #272727",
"/.	c #686868",
"(.	c #A0A2A0",
"_.	c #9D9F9C",
":.	c #A5A7A6",
"<.	c #A6A4A9",
"[.	c #A4A3A8",
"}.	c #A6A8A9",
"|.	c #9A9A9A",
"1.	c #2C2C2C",
"2.	c #444444",
"3.	c #5C5C5C",
"4.	c #616161",
"5.	c #717171",
"6.	c #767676",
"7.	c #737373",
"8.	c #7B7B7B",
"9.	c #696969",
"0.	c #545454",
"a.	c #474747",
"b.	c #2A2A2A",
"c.	c #9D9D9D",
"d.	c #9CA09B",
"e.	c #B3B3B1",
"f.	c #B0B0B2",
"g.	c #AAACAB",
"h.	c #AAAEAB",
"i.	c #292929",
"j.	c #575757",
"k.	c #636363",
"l.	c #797979",
"m.	c #757575",
"n.	c #646464",
"o.	c #4E4E4E",
"p.	c #212121",
"q.	c #939393",
"r.	c #A2A4A0",
"s.	c #A8A8AA",
"t.	c #B1B1AF",
"u.	c #A6A8A5",
"v.	c #A5A7A5",
"w.	c #222222",
"x.	c #858585",
"y.	c #8C8C8C",
"z.	c #898989",
"A.	c #848484",
"B.	c #787878",
"C.	c #252525",
"D.	c #A1A2A0",
"E.	c #A7A5A6",
"F.	c #A7A5A8",
"G.	c #B0AEAF",
"H.	c #A8A8A6",
"I.	c #A7A7A7",
"J.	c #828282",
"K.	c #7A7A7A",
"L.	c #808080",
"M.	c #949494",
"N.	c #A2A2A2",
"O.	c #969696",
"P.	c #8D8D8D",
"Q.	c #2F2F2F",
"R.	c #A6A4A7",
"S.	c #A5A5A3",
"T.	c #A9A4A8",
"U.	c #A2A0A1",
"V.	c #A0A0A0",
"W.	c #323232",
"X.	c #9E9E9E",
"Y.	c #B8B8B8",
"Z.	c #BCBCBC",
"`.	c #353535",
" +	c #9F9F9F",
".+	c #A9A7AA",
"++	c #AAA8AB",
"@+	c #B2ABB2",
"#+	c #B0A9B1",
"$+	c #6B6B6B",
"%+	c #C2C2C2",
"&+	c #C4C4C4",
"*+	c #B9B9B9",
"=+	c #ACACAC",
"-+	c #A3A3A3",
";+	c #676767",
">+	c #404040",
",+	c #A9A4AA",
"'+	c #AEAEAC",
")+	c #B0A6B1",
"!+	c #B4A7B8",
"~+	c #A6A5A8",
"{+	c #5E5E5E",
"]+	c #C5C5C5",
"^+	c #C3C3C3",
"/+	c #555555",
"(+	c #929292",
"_+	c #AEA4AF",
":+	c #B5AABA",
"<+	c #A8A4AC",
"[+	c #6E6E6E",
"}+	c #565656",
"|+	c #CCCCCC",
"1+	c #CBCBCB",
"2+	c #3B3B3B",
"3+	c #A09EA0",
"4+	c #AEACB1",
"5+	c #A8A6AB",
"6+	c #A9A7AC",
"7+	c #666666",
"8+	c #383838",
"9+	c #434343",
"0+	c #B2B2B2",
"a+	c #989898",
"b+	c #656565",
"c+	c #3F3F3F",
"d+	c #9FA0A1",
"e+	c #A4A8AB",
"f+	c #AAAEAF",
"g+	c #ABB0AA",
"h+	c #B1B1B1",
"i+	c #4B4B4B",
"j+	c #343434",
"k+	c #2B2B2B",
"l+	c #2D2D2D",
"m+	c #3A3A3A",
"n+	c #4A4A4A",
"o+	c #A5A9AD",
"p+	c #A7ACAF",
"q+	c #AAB0AE",
"r+	c #AAB1A9",
"s+	c #747474",
"t+	c #A9AAAD",
"u+	c #A9ACB1",
"v+	c #A8ACAD",
"w+	c #ABB0AC",
"x+	c #ABB1A7",
"y+	c #8A8A8A",
"z+	c #7D7D7D",
"A+	c #9E9EA1",
"B+	c #A0A3A8",
"C+	c #A0A1A6",
"D+	c #9EA2A3",
"E+	c #A3A5A2",
"F+	c #A1A69F",
"G+	c #AAAAAA",
"H+	c #A9A9AB",
"I+	c #B0AFB7",
"J+	c #A9A9AD",
"K+	c #A1A2A1",
"L+	c #A3A4A6",
"M+	c #A7A8AC",
"N+	c #A6A5AA",
"O+	c #A6A8A7",
"P+	c #A9A9A7",
"Q+	c #A8ABA4",
"R+	c #A9A8AE",
"S+	c #ABAAB2",
"T+	c #AFAEB4",
"U+	c #B2B1B6",
"V+	c #AEAEB0",
"W+	c #ADADAF",
"X+	c #B2B2B4",
"Y+	c #B0B0AE",
"Z+	c #B0B1AC",
"`+	c #B1AFB0",
" @	c #ADABAC",
".@	c #A9A7A8",
"+@	c #A5A3A4",
"@@	c #A6A4A5",
"#@	c #ABAAA8",
"$@	c #AFADAE",
"%@	c #AAA8A9",
"&@	c #A9A8A6",
"*@	c #AFAEAA",
"=@	c #B0AFAA",
"-@	c #AFAEAC",
";@	c #ADACAA",
">@	c #ACABA9",
". + @ # $ % & * = - ; > , ' ) , ! ! ~ { ] ^ ",
"/ ( _ : : < [ } | 1 2 3 ) 4 5 6 : 7 7 8 9 0 ",
"a b c d e f g , h i j k l m n o p q r s t ! ",
"u v w x y z A i B C D E F G H I J K L M N O ",
"P Q R S T U V i W X Y Z `  ...+.@.#.$.%.&.*.",
"3 q =.-.;.>.,.'.)., !.~.t {.).].^./.(._.' :.",
"N <.[.}.|.1.2.3.4.5.6.7.8.n 9.0.a.b.c.d.o {.",
"e.f.g.h...i.I j.k.6.8.l.l.m.n.k.o.p.q.r.N s.",
"t.&.u.v.W w.n./.m.x.y.z.).A.B.m.k.C.G D.E.F.",
"_ G.H.I.J.b.K.L.z.M.N.{.#.O.P.L.7.Q.K.#.R.F.",
"S.T.U.V.8.W.6.M.X.o Y.Z.3 o |.q.5.`.B. +.+++",
"_ @+#+I.W B $+7 !.D %+&+Z.*+=+-+;+>+A.2 ,+o ",
"'+)+!+~+y.{+o.W t %+]+]+&+^+&.x.@./+(+o ,+o ",
") _+:+<+M.[+i }+-+E |+|+1+&+N.I 2+9.#.3+4+*.",
"N 6 5+6+c.J.7+8+9+9.#.0+a+b+9+c+7+P.d+e+f+g+",
"~.~.h+t 3 #.W n.i+j+k+i.l+m+n+/.J X.o+p+q+r+",
"&.3 3 h+~.I.#.W n k.I n+B {+s+P.#.t+u+v+w+x+",
"' N N N N o M #.q.y+x.L.z+x.A O.A+B+C+D+E+F+",
"=+=+=+=+G+' H+I+J+M  +c.c.K+2 L+L M+N+O+P+Q+",
"3 &.h+h+&.&.s R+S+T+U+s V+) W+s X+s f.~.Y+Z+",
"3 ) ~.h+3 3 h+`+G. @.@+@@@#@$@v v v %@.@.@&@",
"h+&.h+~.) =+_ *@=@] *@-@-@;@#@#@#@>@>@v v  @"};
