/* XPM */
static char *yellow_xpm[] = {
"22 22 233 2",
"  	c None",
"01	c #FFFFFF",
"02	c #F0F0F0",
"03	c #EEEEEE",
"04	c #E9E9E9",
"05	c #E5E5E5",
"06	c #C7C7C6",
"07	c #61605E",
"08	c #3D2324",
"09	c #2D1515",
"0A	c #392526",
"0B	c #645655",
"0C	c #CCC9C9",
"0D	c #F1F1F1",
"0E	c #EAEAEA",
"0F	c #906461",
"10	c #6D4546",
"11	c #A49091",
"12	c #D2BEBD",
"13	c #DFCDC9",
"14	c #D0BDB6",
"15	c #A98B89",
"16	c #6C4548",
"17	c #8C696F",
"18	c #F8F8F8",
"19	c #906866",
"1A	c #884C44",
"1B	c #C49083",
"1C	c #F1D0C1",
"1D	c #FADEDA",
"1E	c #FFE7DD",
"1F	c #FEE4D7",
"20	c #F2CDC4",
"21	c #B98987",
"22	c #7B4E55",
"23	c #90707B",
"24	c #ECECEC",
"25	c #C5ADB5",
"26	c #79322C",
"27	c #AD5C41",
"28	c #DD9871",
"29	c #EBB88B",
"2A	c #F1C79F",
"2B	c #ECC59A",
"2C	c #EAC493",
"2D	c #ECBC8C",
"2E	c #E1A581",
"2F	c #9C5D4B",
"30	c #6E3838",
"31	c #CCB3BA",
"32	c #E8E8E8",
"33	c #DDDDDD",
"34	c #8A4D52",
"35	c #B04E35",
"36	c #E07D42",
"37	c #D68738",
"38	c #DD9B47",
"39	c #D79C40",
"3A	c #D7A141",
"3B	c #DEA943",
"3C	c #D69730",
"3D	c #D98C30",
"3E	c #CE7936",
"3F	c #9D4D28",
"40	c #954C3D",
"41	c #DCDCDC",
"42	c #7B3124",
"43	c #CE602B",
"44	c #E5811F",
"45	c #DE911B",
"46	c #E59E2A",
"47	c #F3AC30",
"48	c #E8A729",
"49	c #F1B02E",
"4A	c #EFA51E",
"4B	c #E48B0B",
"4C	c #E98620",
"4D	c #D06D2C",
"4E	c #8E2D0A",
"4F	c #FDFDFD",
"50	c #FBFBFB",
"51	c #82371A",
"52	c #EE8033",
"53	c #F29A1E",
"54	c #F3B127",
"55	c #F4B333",
"56	c #FFC24B",
"57	c #F6B743",
"58	c #F7BB41",
"59	c #FFBC3B",
"5A	c #FCA824",
"5B	c #F79727",
"5C	c #E47F37",
"5D	c #922F06",
"5E	c #EFEFEF",
"5F	c #EDEDED",
"60	c #DADADA",
"61	c #914827",
"62	c #F8923D",
"63	c #F4AC26",
"64	c #F0BF36",
"65	c #FFC753",
"66	c #F9C95A",
"67	c #FBD067",
"68	c #FDD76C",
"69	c #FFD05A",
"6A	c #FEBF3E",
"6B	c #F8AB37",
"6C	c #E89545",
"6D	c #A14F1F",
"6E	c #E6E6E6",
"6F	c #E3E3E3",
"70	c #CECECE",
"71	c #9D5839",
"72	c #F0923B",
"73	c #F8BC38",
"74	c #F9D251",
"75	c #FFD46E",
"76	c #FFE776",
"77	c #FBE67D",
"78	c #F9E87E",
"79	c #F2D962",
"7A	c #F7CF49",
"7B	c #F7C041",
"7C	c #E0A142",
"7D	c #9D5D1D",
"7E	c #D2D2D2",
"7F	c #E4E4E4",
"80	c #E7E7E7",
"81	c #D4D4D4",
"82	c #967556",
"83	c #C89033",
"84	c #FFC643",
"85	c #FED652",
"86	c #FEEA77",
"87	c #FFF07D",
"88	c #FFFA94",
"89	c #FAF591",
"8A	c #F7E169",
"8B	c #FFE052",
"8C	c #FFCC4E",
"8D	c #BB8E4A",
"8E	c #886B59",
"8F	c #D5D5D5",
"90	c #F7F7F7",
"91	c #F4F4F4",
"92	c #E1E1E1",
"93	c #9C847A",
"94	c #A17036",
"95	c #E4B148",
"96	c #FFE263",
"97	c #FCF370",
"98	c #FFFC83",
"99	c #FFFD8C",
"9A	c #FBFB8B",
"9B	c #FFF67B",
"9C	c #FFE566",
"9D	c #DBAC44",
"9E	c #9E7B45",
"9F	c #9A8779",
"A0	c #E2E2E2",
"A1	c #F5F5F5",
"A2	c #D7D7D7",
"A3	c #B0ABB0",
"A4	c #7F604E",
"A5	c #9F7D3E",
"A6	c #D6C55D",
"A7	c #F6F976",
"A8	c #FBF67E",
"A9	c #FFFF8D",
"AA	c #FFFF8E",
"AB	c #F9F780",
"AC	c #E0C864",
"AD	c #9B7C39",
"AE	c #7A6749",
"AF	c #A9A6A3",
"B0	c #D6D6D6",
"B1	c #DEDEDE",
"B2	c #BCBCBC",
"B3	c #897D81",
"B4	c #685841",
"B5	c #6D6729",
"B6	c #8D963B",
"B7	c #CFD648",
"B8	c #D5E551",
"B9	c #BDD042",
"BA	c #949D26",
"BB	c #797224",
"BC	c #6A5B3A",
"BD	c #807B77",
"BE	c #BABABA",
"BF	c #E0E0E0",
"C0	c #CDCDCD",
"C1	c #B4B4B4",
"C2	c #8C8889",
"C3	c #626353",
"C4	c #565B3B",
"C5	c #433453",
"C6	c #494351",
"C7	c #474843",
"C8	c #4A4A42",
"C9	c #625C5C",
"CA	c #8B848B",
"CB	c #B3B3B3",
"CC	c #CBCBCB",
"CD	c #DBDBDB",
"CE	c #BDBDBD",
"CF	c #AAAAAC",
"D0	c #83838D",
"D1	c #827E7F",
"D2	c #757573",
"D3	c #767873",
"D4	c #8D8F8C",
"D5	c #AEAEAF",
"D6	c #D9D9D9",
"D7	c #D8D8D8",
"D8	c #D3D3D3",
"D9	c #C7C7C7",
"DA	c #ACACAC",
"DB	c #A6A6A4",
"DC	c #A5A5A5",
"DD	c #A7A7A8",
"DE	c #B0B0B0",
"DF	c #C9C9C9",
"E0	c #CACACA",
"E1	c #C5C5C5",
"E2	c #B8B8B8",
"E3	c #BBBBBB",
"E4	c #C0C0C0",
"E5	c #C8C8C8",
"E6	c #C6C6C6",
"E7	c #6D6D6D",
"E8	c #6C6C6C",
"E2E2E2E2E2E2E2E2E2E2E2E2E2E2E2E2E2E2E2E2E2E2",
"E2E2E2E2E2E2E2E2E2E2E2E2E2E2E2E2E2E2E2E2E2E2",
"E2E2E2E2E2E2E2E2E2E2E2E2E2E2E2E2E2E2E2E2E2E2",
"E2E2E2E2E2E2E2E2E2E2E2E2E2E2E2E2E2E2E2E2E2E2",
"E2E2E2E2E2E20F1011121314151617E2E2E2E2E2E2E2",
"E2E2E2E2E2191A1B1C1D1E1F20212223E2E2E2E2E2E2",
"E2E2E2E225262728292A2B2C2D2E2F3031E2E2E2E2E2",
"E2E2E2E23435363738393A3B3C3D3E3F40E2E2E2E2E2",
"E2E2E2E242434445464748494A4B4C4D4EE2E2E2E2E2",
"E2E2E2E25152535455565758595A5B5C5DE2E2E2E2E2",
"E2E2E2E26162636465666768696A6B6C6DE2E2E2E2E2",
"E2E2E2E27172737475767778797A7B7C7DE2E2E2E2E2",
"E2E2E2E282838485868788898A8B8C8D8EE2E2E2E2E2",
"E2E2E2E2E29495969798999A9B9C9D9E9FE2E2E2E2E2",
"E2E2E2E2E2A4A5A6A7A8A9AAABACADAEE2E2E2E2E2E2",
"E2E2E2E2E2E2B4B5B6B7B8B9BABBBCBDE2E2E2E2E2E2",
"E2E2E2E2E2E2E2C3C4C5C6C7C8C9CAE2E2E2E2E2E2E2",
"E2E2E2E2E2E2E2E2E2E2E2E2E2E2E2E2E2E2E2E2E2E2",
"E2E2E2E2E2E2E2E2E2E2E2E2E2E2E2E2E2E2E2E2E2E2",
"E2E2E2E2E2E2E2E2E2E2E2E2E2E2E2E2E2E2E2E2E2E2",
"E2E2E2E2E2E2E2E2E2E2E2E2E2E2E2E2E2E2E2E2E2E2",
"E2E2E2E2E2E2E2E2E2E2E2E2E2E2E2E2E2E2E2E2E2E2"
};
