/* XPM */
static char * close2_xpm[] = {
"16 16 31 1",
" 	c None",
".	c #252422",
"+	c #A7A6A4",
"@	c #A9A8A6",
"#	c #A4A3A1",
"$	c #9F9E9C",
"%	c #C6C5C3",
"&	c #A8A7A5",
"*	c #B6B5B3",
"=	c #A09F9D",
"-	c #C2C1BF",
";	c #A3A2A0",
">	c #B7B6B4",
",	c #B0AFAD",
"'	c #AFAEAC",
")	c #A1A09E",
"!	c #B2B1AF",
"~	c #B5B4B2",
"{	c #A5A4A2",
"]	c #B3B2B0",
"^	c #ACABA9",
"/	c #BEBDBB",
"(	c #9C9B99",
"_	c #B4B3B1",
":	c #AEADAB",
"<	c #BDBCBA",
"[	c #C5C4C2",
"}	c #ADACAA",
"|	c #ABAAA8",
"1	c #BBBAB8",
"2	c #B9B8B6",
"................",
"................",
"................",
"....+@.....#$...",
"....%&*...=-;...",
".....&>*.,')....",
"......!~{]^.....",
".......'/$......",
"......(_:<&.....",
".....#[}.|1!....",
"....2~{...)'1...",
"....),...../)...",
"................",
"................",
"................",
"................"};
