/* XPM */
static char * icon1_xpm[] = {
"16 16 3 1",
" 	c None",
".	c #545452",
"+	c #B5B4B2",
"................",
"................",
"................",
"................",
"................",
"................",
"................",
"................",
"................",
"....+++++++++...",
"....+++++++++...",
"....+++++++++...",
"................",
"................",
"................",
"................"};
