/* XPM */
static char * icon2_xpm[] = {
"16 16 3 1",
" 	c None",
".	c #252422",
"+	c #B5B4B2",
"................",
"................",
"................",
"................",
"................",
"................",
"................",
"................",
"................",
"....+++++++++...",
"....+++++++++...",
"....+++++++++...",
"................",
"................",
"................",
"................"};
