/* XPM */
static char * max2_xpm[] = {
"16 16 4 1",
" 	c None",
".	c #252422",
"+	c #B5B4B2",
"@	c #A8A7A5",
"................",
"................",
"................",
"....+++++++++...",
"....+@@@@@@@+...",
"....+.......+...",
"....+.......+...",
"....+.......+...",
"....+.......+...",
"....+.......+...",
"....+.......+...",
"....+++++++++...",
"................",
"................",
"................",
"................"};
