/* XPM */
static char * stuck1_xpm[] = {
"16 16 5 1",
" 	c None",
".	c #545452",
"+	c #F6B652",
"@	c #FFBA4E",
"#	c #FF9A00",
"................",
"................",
"................",
"................",
"................",
"................",
".......+@.......",
"......++@@......",
"......##++......",
".......#+.......",
"................",
"................",
"................",
"................",
"................",
"................"};
