/* XPM */
static char * unselected_xpm[] = {
"16 17 6 1",
" 	c #545452",
".	c #323233",
"+	c #313233",
"@	c #ADADAE",
"#	c #292B2C",
"$	c #292A2C",
"                ",
"                ",
"  ....+++++++@  ",
"  .#######$$$@  ",
"  .#######$$$@  ",
"  .#######$#$@  ",
"  .#########$@  ",
"  .#########$@  ",
"  .########$$@  ",
"  .#######$$$@  ",
"  .#######$$$@  ",
"  .#######$$$@  ",
"  .$####$$$$$@  ",
"  @@@@@@@@@@@@  ",
"                ",
"                ",
"                "};
