/* XPM */
static char * bar_unfocused_xpm[] = {
"1 20 9 1",
" 	c None",
".	c #E5E5E3",
"+	c #E2E2E1",
"@	c #E3E3E3",
"#	c #E1E1E1",
"$	c #E2E2E2",
"%	c #D6D6D6",
"&	c #D7D7D7",
"*	c #D8D8D8",
".",
"+",
"@",
"#",
"$",
"$",
"$",
"$",
"$",
"@",
"%",
"&",
"&",
"&",
"&",
"&",
"&",
"*",
"%",
"*"};
