/* XPM */
static char * button_left_xpm[] = {
"16 16 32 1",
" 	c None",
".	c #FDFDFD",
"+	c #FBFBFB",
"@	c #F0F0F0",
"#	c #EBEBEB",
"$	c #FCFCFC",
"%	c #E5E5E5",
"&	c #BFBFBF",
"*	c #D9D9D9",
"=	c #C7C7C7",
"-	c #C4C4C4",
";	c #E9E9E9",
">	c #E7E7E7",
",	c #DBDBDB",
"'	c #E2E2E2",
")	c #CCCCCC",
"!	c #C0C0C0",
"~	c #DCDCDC",
"{	c #CFCFCF",
"]	c #BEBEBE",
"^	c #C1C1C1",
"/	c #D3D3D3",
"(	c #EEEEEE",
"_	c #EFEFEF",
":	c #C8C8C8",
"<	c #CBCBCB",
"[	c #DADADA",
"}	c #C2C2C2",
"|	c #C5C5C5",
"1	c #E6E6E6",
"2	c #C3C3C3",
"3	c #D2D2D2",
"................",
"+++++++++@#+++++",
"$++$$$$$%&*$$$$$",
"$$$$$$$$=-;$$$$$",
"$$$$$#>$,'';$$$$",
"$$$$)!!--&&!~$$$",
"$$${&]&^]&&^%$$$",
"...!!!&&!&!/....",
"(__]!!&!]&&=____",
"___:&]!&^&!&<___",
"___[&&!!&!&&}___",
"____|&!&!&&![___",
"____1-&2<]&3____",
"______''_''_____",
"_@@@@@@@@@@@@@@@",
"@@@@@@@@@@@@@@@@"};
