/* XPM */
static char * button_20_xpm[] = {
"16 16 44 1",
" 	c None",
".	c #FDFDFD",
"+	c #FBFBFB",
"@	c #FCFCFC",
"#	c #AAAAAA",
"$	c #6E6E6E",
"%	c #676767",
"&	c #686868",
"*	c #6D6D6D",
"=	c #A8A8A8",
"-	c #656565",
";	c #727272",
">	c #7A7A7A",
",	c #7B7B7B",
"'	c #7C7C7C",
")	c #5D5D5D",
"!	c #717171",
"~	c #707070",
"{	c #575757",
"]	c #6A6A6A",
"^	c #6B6B6B",
"/	c #525252",
"(	c #666666",
"_	c #535353",
":	c #EEEEEE",
"<	c #3A3A3A",
"[	c #474747",
"}	c #464646",
"|	c #EFEFEF",
"1	c #555555",
"2	c #565656",
"3	c #545454",
"4	c #626262",
"5	c #636363",
"6	c #515151",
"7	c #6F6F6F",
"8	c #696969",
"9	c #CACACA",
"0	c #606060",
"a	c #616161",
"b	c #E3E3E3",
"c	c #FFFFFF",
"d	c #FEFEFE",
"e	c #F0F0F0",
"................",
"++++++++++++++++",
"@++++++++++++@@@",
"@@@#$%%&&%&*=@@@",
"@@@-;>,>>'>;%@@@",
"@@@)!!!;;~!!)@@@",
"@@@{]]]]]]^]{@@@",
".../-----(--_...",
":::<[}}[[[[[<:::",
"|||}11233231}|||",
"|||/444555556|||",
"|||&]7$777788|||",
"|||9$04aa4479|||",
"|||b@cdcccc+b|||",
"||||||||||||||||",
"eeeeeeeeeeeeeeee"};
