/* XPM */
static char * finder_xpm[] = {
"16 16 33 1",
" 	c None",
".	c #FDFDFD",
"+	c #FBFBFB",
"@	c #FCFCFC",
"#	c #F0F0F0",
"$	c #DBDBDB",
"%	c #D4D4D4",
"&	c #D3D3D3",
"*	c #E3E3E3",
"=	c #F4F4F4",
"-	c #C2C2C2",
";	c #C1C1C1",
">	c #DCDCDC",
",	c #E0E0E0",
"'	c #EEEEEE",
")	c #F1F1F1",
"!	c #D7D7D7",
"~	c #CDCDCD",
"{	c #C6C6C6",
"]	c #BFBFBF",
"^	c #C9C9C9",
"/	c #EFEFEF",
"(	c #D6D6D6",
"_	c #DADADA",
":	c #E8E8E8",
"<	c #C5C5C5",
"[	c #ECECEC",
"}	c #C3C3C3",
"|	c #CACACA",
"1	c #CCCCCC",
"2	c #E4E4E4",
"3	c #EDEDED",
"4	c #DEDEDE",
"................",
"++++++++++++++++",
"@@@@@#$%&*=@@@@@",
"@@@+$-;;;;;>+@@@",
"@@@>;;;;;;;-,@@@",
"@@';;>)@)>;;;)@@",
"@@!;;)~;~);;;>@@",
"..{;;@;;;@;;;~..",
"''];;)~;~@~;;^''",
"//{;;>)@@@,;;~//",
"//(;;;;;~,@~;_//",
"//:<;;;;;;~!{[//",
"///>;;;;;;;},///",
"////,|-;;-12////",
"/////324,2'/////",
"################"};
