/* XPM */
static char * menu_focused_xpm[] = {
"1 18 5 1",
" 	c None",
".	c #CBCCBB",
"+	c #D4D5C5",
"@	c #C6C7B7",
"#	c #C1C2B3",
".",
"+",
"+",
"+",
"+",
"+",
"+",
"+",
"+",
"@",
"@",
"@",
"@",
"@",
"@",
"@",
"@",
"#"};
