/* XPM */
static char * test3_xpm[] = {
"22 22 395 2",
"  	c None",
". 	c #AFB0AB",
"+ 	c #AEB0AB",
"@ 	c #B0B2AF",
"# 	c #B0B2B1",
"$ 	c #AEB0AD",
"% 	c #AEAFA9",
"& 	c #AEADA8",
"* 	c #AEA9A6",
"= 	c #B9B3B3",
"- 	c #B2AEAD",
"; 	c #A5A4A2",
"> 	c #AAA9A7",
", 	c #ABABAB",
"' 	c #A9A9A9",
") 	c #ADADAD",
"! 	c #ADADAB",
"~ 	c #AEAFAA",
"{ 	c #AEADA9",
"] 	c #B0AFAB",
"^ 	c #B4B0AD",
"/ 	c #A9AAA5",
"( 	c #ADAEA9",
"_ 	c #AFAFAD",
": 	c #ACAAAD",
"< 	c #AFABA8",
"[ 	c #ABA8A3",
"} 	c #B1AEA9",
"| 	c #A8A7A3",
"1 	c #A3A2A0",
"2 	c #A8A7A5",
"3 	c #AFADAE",
"4 	c #AEACAD",
"5 	c #A8A6A9",
"6 	c #A5A3A8",
"7 	c #A1A1A1",
"8 	c #A6A5A3",
"9 	c #A2A19F",
"0 	c #A3A29E",
"a 	c #ACADA8",
"b 	c #B1B0AE",
"c 	c #B2ADB1",
"d 	c #AEA7AF",
"e 	c #B4ADB5",
"f 	c #BAB1B4",
"g 	c #AFA9A9",
"h 	c #ACACAA",
"i 	c #6F7170",
"j 	c #414244",
"k 	c #252628",
"l 	c #08070C",
"m 	c #0E0D12",
"n 	c #444349",
"o 	c #75747A",
"p 	c #A5A2A9",
"q 	c #B8B5BC",
"r 	c #B3B1B6",
"s 	c #AAA8AD",
"t 	c #B1B1B3",
"u 	c #B3B3B3",
"v 	c #A8A9A4",
"w 	c #ABA9AA",
"x 	c #A8A3A9",
"y 	c #A69EA9",
"z 	c #B1A9B4",
"A 	c #ADA7A9",
"B 	c #91908C",
"C 	c #3D473E",
"D 	c #465248",
"E 	c #7A857D",
"F 	c #B2BCB4",
"G 	c #C3C9C5",
"H 	c #B9BEBA",
"I 	c #848887",
"J 	c #3C403F",
"K 	c #515556",
"L 	c #828385",
"M 	c #ACABB0",
"N 	c #A7A6AB",
"O 	c #A1A1A3",
"P 	c #A8A8A8",
"Q 	c #A2A4A1",
"R 	c #B2B2B0",
"S 	c #B5B3B8",
"T 	c #B1ABB5",
"U 	c #AFA9B5",
"V 	c #B3B0B9",
"W 	c #959595",
"X 	c #596156",
"Y 	c #384F35",
"Z 	c #7C9679",
"` 	c #C9E0C4",
" .	c #E0F4DB",
"..	c #DCEED6",
"+.	c #E3F5DD",
"@.	c #CADCC4",
"#.	c #90A28C",
"$.	c #384635",
"%.	c #4B574B",
"&.	c #999F9B",
"*.	c #B5B7B6",
"=.	c #A6A7A9",
"-.	c #AFAFAF",
";.	c #ADAFAC",
">.	c #AEAEAE",
",.	c #AFACB5",
"'.	c #ACABB3",
").	c #A5A9AC",
"!.	c #6B756A",
"~.	c #14280D",
"{.	c #577C49",
"].	c #7CA56B",
"^.	c #A2C88F",
"/.	c #ACCF99",
"(.	c #ABCC95",
"_.	c #ADCE99",
":.	c #9CBF89",
"<.	c #7FA16F",
"[.	c #55744A",
"}.	c #1F3619",
"|.	c #637160",
"1.	c #9EA59D",
"2.	c #9D9F9C",
"3.	c #A5A7A6",
"4.	c #A6A4A9",
"5.	c #A4A3A8",
"6.	c #A5A9AA",
"7.	c #94A197",
"8.	c #21391F",
"9.	c #395E2A",
"0.	c #528633",
"a.	c #59932F",
"b.	c #6BA141",
"c.	c #72A548",
"d.	c #70A344",
"e.	c #74AA4C",
"f.	c #6FA649",
"g.	c #5E943E",
"h.	c #49792F",
"i.	c #3E642B",
"j.	c #233B19",
"k.	c #99A694",
"l.	c #9CA19A",
"m.	c #A5A5A5",
"n.	c #A4A4A4",
"o.	c #B3B3B1",
"p.	c #B0B0B2",
"q.	c #AAACAB",
"r.	c #A7B1A9",
"s.	c #8EA18D",
"t.	c #1B3E14",
"u.	c #457730",
"v.	c #4E8D22",
"w.	c #5DA225",
"x.	c #73B339",
"y.	c #7BB83F",
"z.	c #76B63C",
"A.	c #75B73C",
"B.	c #6CB238",
"C.	c #599D2C",
"D.	c #579333",
"E.	c #437329",
"F.	c #19390A",
"G.	c #90A086",
"H.	c #A1A79D",
"I.	c #A8A8AA",
"J.	c #B1B1AF",
"K.	c #A6A8A5",
"L.	c #A1AD9F",
"M.	c #7D9678",
"N.	c #123D07",
"O.	c #558F3A",
"P.	c #5FA52B",
"Q.	c #70BA31",
"R.	c #83C942",
"S.	c #8CD049",
"T.	c #87CD46",
"U.	c #83CD44",
"V.	c #7BC93F",
"W.	c #6BB838",
"X.	c #69AD3E",
"Y.	c #578D39",
"Z.	c #1D400A",
"`.	c #849479",
" +	c #A0A69C",
".+	c #A7A5A6",
"++	c #A7A5A8",
"@+	c #B0AEAF",
"#+	c #A8A8A6",
"$+	c #A2AEA0",
"%+	c #789372",
"&+	c #1B480D",
"*+	c #6BA74D",
"=+	c #76BD43",
"-+	c #84CE45",
";+	c #92D851",
">+	c #A2E65F",
",+	c #A2E95F",
"'+	c #98E355",
")+	c #8FDE4F",
"!+	c #82CF4B",
"~+	c #75B948",
"{+	c #689E48",
"]+	c #294A15",
"^+	c #78886D",
"/+	c #9DA099",
"(+	c #A6A4A7",
"_+	c #A5A5A3",
":+	c #A9A4A8",
"<+	c #A2A0A1",
"[+	c #9DA49C",
"}+	c #72896D",
"|+	c #254E16",
"1+	c #69A04D",
"2+	c #89CE5A",
"3+	c #97DE5E",
"4+	c #A3E368",
"5+	c #B8F67B",
"6+	c #BEFC7D",
"7+	c #ADF06D",
"8+	c #9FE863",
"9+	c #91D95C",
"0+	c #89C85F",
"a+	c #699A49",
"b+	c #304D1D",
"c+	c #76846D",
"d+	c #A1A29D",
"e+	c #A9A7AA",
"f+	c #AAA8AB",
"g+	c #B2ABB2",
"h+	c #B0A9B1",
"i+	c #A6A8A7",
"j+	c #82917E",
"k+	c #3F6335",
"l+	c #5E9146",
"m+	c #98D76C",
"n+	c #B0F277",
"o+	c #B9F27D",
"p+	c #C6FD88",
"q+	c #CBFF8A",
"r+	c #C0FA7F",
"s+	c #B6F87A",
"t+	c #A6E771",
"u+	c #9BD571",
"v+	c #618D42",
"w+	c #3E552B",
"x+	c #848D7C",
"y+	c #A7A7A5",
"z+	c #A9A4AA",
"A+	c #AEAEAC",
"B+	c #B0A6B1",
"C+	c #B4A7B8",
"D+	c #A5A2AB",
"E+	c #88918C",
"F+	c #536E4F",
"G+	c #426F2E",
"H+	c #81BC52",
"I+	c #B3F176",
"J+	c #C7FC88",
"K+	c #CFFE8C",
"L+	c #D1FF8C",
"M+	c #CFFF8A",
"N+	c #C7FF88",
"O+	c #AFE877",
"P+	c #83B556",
"Q+	c #4F742F",
"R+	c #566743",
"S+	c #95998B",
"T+	c #A6A4A5",
"U+	c #AEA4AF",
"V+	c #B5AABA",
"W+	c #A8A2AE",
"X+	c #929697",
"Y+	c #667765",
"Z+	c #3A5A2B",
"`+	c #547F2D",
" @	c #A5D571",
".@	c #CFF796",
"+@	c #D8FC9C",
"@@	c #D9FD9B",
"#@	c #D7FD9A",
"$@	c #CBF593",
"%@	c #A4CF75",
"&@	c #52782F",
"*@	c #3A5522",
"=@	c #69755D",
"-@	c #A09EA1",
";@	c #AEACB1",
">@	c #A8A6AB",
",@	c #A9A7AC",
"'@	c #9C9E9D",
")@	c #80857F",
"!@	c #64705C",
"~@	c #394E23",
"{@	c #485F27",
"]@	c #72874C",
"^@	c #A7BB7E",
"/@	c #BED293",
"(@	c #A2B878",
"_@	c #6D8249",
":@	c #455B2C",
"<@	c #3F502E",
"[@	c #626F5D",
"}@	c #8A908C",
"|@	c #9DA1A4",
"1@	c #A4A8AB",
"2@	c #AAAEAF",
"3@	c #ABB0AA",
"4@	c #B0B0B0",
"5@	c #B1B1B1",
"6@	c #9C9C9C",
"7@	c #888A85",
"8@	c #656C5C",
"9@	c #4E583F",
"0@	c #394424",
"a@	c #313D19",
"b@	c #313D15",
"c@	c #34401A",
"d@	c #3F4A2A",
"e@	c #4C563E",
"f@	c #666E63",
"g@	c #808684",
"h@	c #9A9FA3",
"i@	c #A4A9AF",
"j@	c #A7ACAF",
"k@	c #AAB0AE",
"l@	c #AAB1A9",
"m@	c #A7A7A7",
"n@	c #9C9E9B",
"o@	c #858A84",
"p@	c #767C72",
"q@	c #646A5C",
"r@	c #565E49",
"s@	c #4E563E",
"t@	c #505841",
"u@	c #616954",
"v@	c #757B6D",
"w@	c #8B908A",
"x@	c #9A9E9F",
"y@	c #A7AAAF",
"z@	c #A9ACB1",
"A@	c #A8ACAD",
"B@	c #ABB0AC",
"C@	c #ABB1A7",
"D@	c #9A9B9F",
"E@	c #929395",
"F@	c #888D89",
"G@	c #868982",
"H@	c #80867A",
"I@	c #808378",
"J@	c #848A80",
"K@	c #8F918C",
"L@	c #949897",
"M@	c #9D9EA2",
"N@	c #A0A3A8",
"O@	c #A0A1A6",
"P@	c #9EA2A3",
"Q@	c #A3A5A2",
"R@	c #A1A69F",
"S@	c #ACACAC",
"T@	c #AAAAAA",
"U@	c #A9A9AB",
"V@	c #B0AFB7",
"W@	c #A8A7AF",
"X@	c #9FA0A5",
"Y@	c #9E9EA0",
"Z@	c #9E9E9C",
"`@	c #A1A3A0",
" #	c #A6A6A6",
".#	c #A3A4A6",
"+#	c #A7A8AC",
"@#	c #A6A5AA",
"##	c #A9A9A7",
"$#	c #A8ABA4",
"%#	c #A9A8AE",
"&#	c #ABAAB2",
"*#	c #AFAEB4",
"=#	c #B2B1B6",
"-#	c #AEAEB0",
";#	c #ADADAF",
">#	c #B2B2B4",
",#	c #B0B0AE",
"'#	c #B0B1AC",
")#	c #B1AFB0",
"!#	c #ADABAC",
"~#	c #A9A7A8",
"{#	c #A5A3A4",
"]#	c #ABAAA8",
"^#	c #AAA8A9",
"/#	c #A9A8A6",
"(#	c #AFAEAA",
"_#	c #B0AFAA",
":#	c #AFAEAC",
"<#	c #ADACAA",
"[#	c #ACABA9",
". + @ # $ % & * = - ; > , ' ) , ! ! ~ { ] ^ ",
"/ ( _ : : < [ } | 1 2 3 4 5 6 5 : 7 7 8 9 0 ",
"a b c d e f g h i j k l m n o p q r s t u ! ",
"v w x y z A B C D E F G H I J K L M N O P Q ",
"R S T U V W X Y Z `  ...+.@.#.$.%.&.*.=.-.;.",
">.r ,.'.).!.~.{.].^./.(._.:.<.[.}.|.1.2.' 3.",
"P 4.5.6.7.8.9.0.a.b.c.d.e.f.g.h.i.j.k.l.m.n.",
"o.p.q.r.s.t.u.v.w.x.y.z.A.B.C.D.E.F.G.H.P I.",
"J.-.K.L.M.N.O.P.Q.R.S.T.U.V.W.X.Y.Z.`. +.+++",
"_ @+#+$+%+&+*+=+-+;+>+,+'+)+!+~+{+]+^+/+(+++",
"_+:+<+[+}+|+1+2+3+4+5+6+7+8+9+0+a+b+c+d+e+f+",
"_ g+h+i+j+k+l+m+n+o+p+q+r+s+t+u+v+w+x+y+z+m.",
"A+B+C+D+E+F+G+H+I+J+K+L+M+N+O+P+Q+R+S+T+z+m.",
") U+V+W+X+Y+Z+`+ @.@+@@@#@$@%@&@*@=@/+-@;@;.",
"P 5 >@,@'@)@!@~@{@]@^@/@(@_@:@<@[@}@|@1@2@3@",
"4@4@5@u >.6@7@8@9@0@a@b@c@d@e@f@g@h@i@j@k@l@",
"-.>.>.5@4@m@n@o@p@q@r@s@t@u@v@w@x@y@z@A@B@C@",
"' P P P P m.O D@E@F@G@H@I@J@K@L@M@N@O@P@Q@R@",
"S@S@S@S@T@' U@V@W@X@Y@'@Z@`@ #.#N +#@#i+##$#",
">.-.5@5@-.-.t %#&#*#=#t -#) ;#t >#t p.4@,#'#",
">.) 4@5@>.>.5@)#@+!#~#{#T+]#3 w w w ^#~#~#/#",
"5@-.5@4@) S@_ (#_#] (#:#:#<#]#]#]#[#[#w w !#"};
