/* XPM */
static char * test_xpm[] = {
"22 22 432 2",
"  	c None",
". 	c #A5A9AA",
"+ 	c #AAAEAF",
"@ 	c #ACADB1",
"# 	c #B1ACB2",
"$ 	c #A7A2A8",
"% 	c #A9A8AD",
"& 	c #B1B5B6",
"* 	c #B0BAB9",
"= 	c #A5B1AF",
"- 	c #A4AEAD",
"; 	c #A9AFAD",
"> 	c #AEAEAE",
", 	c #ADABAC",
"' 	c #A5A5A7",
") 	c #A6A5AA",
"! 	c #ADAEB3",
"~ 	c #AFAEB4",
"{ 	c #ADABB0",
"] 	c #B0ABB1",
"^ 	c #ADA8AE",
"/ 	c #B4B2B7",
"( 	c #B9B9BB",
"_ 	c #9BA1A1",
": 	c #9DA1A2",
"< 	c #9A999E",
"[ 	c #AAA8AD",
"} 	c #A6A7AB",
"| 	c #93979A",
"1 	c #9BA3A5",
"2 	c #9EA8A9",
"3 	c #9FA7AA",
"4 	c #9DA1A4",
"5 	c #A4A0A1",
"6 	c #9F999B",
"7 	c #A09EA1",
"8 	c #ACACAE",
"9 	c #ABACB0",
"0 	c #9CA0A3",
"a 	c #9D9EA2",
"b 	c #A9AAAE",
"c 	c #AAA9AE",
"d 	c #9D9D9F",
"e 	c #AAB0B0",
"f 	c #A6AFAC",
"g 	c #A8AEAE",
"h 	c #ADB1B4",
"i 	c #B0B1B5",
"j 	c #AFB0B4",
"k 	c #A0A4A7",
"l 	c #6D6E73",
"m 	c #403F47",
"n 	c #1D1A21",
"o 	c #0A0104",
"p 	c #221819",
"q 	c #453F3F",
"r 	c #6F6E6C",
"s 	c #989A99",
"t 	c #AEB4B4",
"u 	c #9EA3A6",
"v 	c #9FA2A7",
"w 	c #ADACB1",
"x 	c #ADABAE",
"y 	c #9EA2A1",
"z 	c #9CA2A0",
"A 	c #9EA2A3",
"B 	c #97989C",
"C 	c #8B8587",
"D 	c #53484C",
"E 	c #493A3F",
"F 	c #9B8A94",
"G 	c #D2BEC7",
"H 	c #DBC7C9",
"I 	c #CFBBBA",
"J 	c #9A8886",
"K 	c #544643",
"L 	c #4B4340",
"M 	c #81807C",
"N 	c #A5A9A8",
"O 	c #9DA3A3",
"P 	c #A4A8AB",
"Q 	c #9E9FA3",
"R 	c #AAA5A9",
"S 	c #ABAAA8",
"T 	c #A8A8A6",
"U 	c #A7A9A6",
"V 	c #A3A4A6",
"W 	c #ACAAAD",
"X 	c #9D9193",
"Y 	c #564042",
"Z 	c #5E3E3F",
"` 	c #A87F83",
" .	c #FCCFD6",
"..	c #FFD3DA",
"+.	c #FFD9D9",
"@.	c #FFE6E3",
"#.	c #F4CFC9",
"$.	c #A4837E",
"%.	c #614541",
"&.	c #65534F",
"*.	c #918986",
"=.	c #AAAAAA",
"-.	c #A0A1A3",
";.	c #999A9E",
">.	c #A2A0A3",
",.	c #A7A3A0",
"'.	c #A4A39F",
").	c #A5A4A0",
"!.	c #A8A6A7",
"~.	c #A59B9C",
"{.	c #7D6366",
"].	c #502628",
"^.	c #925857",
"/.	c #BE7A7B",
"(.	c #D99194",
"_.	c #DF999B",
":.	c #DF9F9D",
"<.	c #D39691",
"[.	c #D59691",
"}.	c #BD807B",
"|.	c #7E4943",
"1.	c #562F2A",
"2.	c #745F5C",
"3.	c #A89E9D",
"4.	c #A7A7A9",
"5.	c #AAABAF",
"6.	c #A2A2A4",
"7.	c #A5A09D",
"8.	c #A7A49F",
"9.	c #A6A39E",
"0.	c #A69D9E",
"a.	c #A99396",
"b.	c #56292C",
"c.	c #7D3B3C",
"d.	c #8E3632",
"e.	c #A6453F",
"f.	c #AE4B46",
"g.	c #BD5B58",
"h.	c #B65B58",
"i.	c #B45956",
"j.	c #AF504A",
"k.	c #9C3F3A",
"l.	c #8B3631",
"m.	c #803C39",
"n.	c #562D2B",
"o.	c #A69092",
"p.	c #A29E9F",
"q.	c #A6A29F",
"r.	c #A6A69E",
"s.	c #A6A19D",
"t.	c #A99B9B",
"u.	c #A08085",
"v.	c #561A1C",
"w.	c #903739",
"x.	c #A2352E",
"y.	c #B94037",
"z.	c #C34E44",
"A.	c #C6544A",
"B.	c #CC5F5A",
"C.	c #C65652",
"D.	c #C24D46",
"E.	c #B33D39",
"F.	c #A53936",
"G.	c #8B3331",
"H.	c #501817",
"I.	c #A08282",
"J.	c #A79E9F",
"K.	c #A1A5A6",
"L.	c #A0A6A4",
"M.	c #9C9E99",
"N.	c #A0A199",
"O.	c #A09B97",
"P.	c #AA9A9B",
"Q.	c #997277",
"R.	c #5C1116",
"S.	c #A43D3E",
"T.	c #C1423B",
"U.	c #D24C40",
"V.	c #E56856",
"W.	c #E46C5C",
"X.	c #E57369",
"Y.	c #E16A64",
"Z.	c #DF5E58",
"`.	c #CA4943",
" +	c #C24843",
".+	c #9E3A38",
"++	c #541213",
"@+	c #9D797B",
"#+	c #A09697",
"$+	c #9A9E9F",
"%+	c #9BA19F",
"&+	c #9DA49D",
"*+	c #A6A9A2",
"=+	c #AA9B9E",
"-+	c #65181E",
";+	c #AF4545",
">+	c #DC5951",
",+	c #EA6151",
"'+	c #FC7F6B",
")+	c #FE8977",
"!+	c #F7877C",
"~+	c #FB867F",
"{+	c #FA7A71",
"]+	c #DF5C54",
"^+	c #D65B54",
"/+	c #AF4945",
"(+	c #5D1B1C",
"_+	c #987476",
":+	c #A4999D",
"<+	c #9FA3A6",
"[+	c #A2A6A7",
"}+	c #A0A6A2",
"|+	c #A5AAA3",
"1+	c #A6A7A2",
"2+	c #A39A9D",
"3+	c #98797E",
"4+	c #69272B",
"5+	c #A94746",
"6+	c #E96E66",
"7+	c #FA786A",
"8+	c #FD8A77",
"9+	c #FE9484",
"0+	c #FB968C",
"a+	c #FD958C",
"b+	c #FF8D83",
"c+	c #F1766E",
"d+	c #E06D66",
"e+	c #A94C47",
"f+	c #612525",
"g+	c #937378",
"h+	c #A29CA0",
"i+	c #A0A3A8",
"j+	c #A5A6A8",
"k+	c #A0A4A3",
"l+	c #9FA49E",
"m+	c #A0A29D",
"n+	c #98989A",
"o+	c #917E82",
"p+	c #713A3D",
"q+	c #984442",
"r+	c #E7786F",
"s+	c #FF9183",
"t+	c #FF9B8C",
"u+	c #FFA293",
"v+	c #FFA89E",
"w+	c #FB9D95",
"x+	c #FF998F",
"y+	c #FF9085",
"z+	c #E1766E",
"A+	c #98433E",
"B+	c #693635",
"C+	c #977C81",
"D+	c #9E999F",
"E+	c #9BA0A6",
"F+	c #A3A2A7",
"G+	c #A8A8A8",
"H+	c #A5A7A2",
"I+	c #A6ABA7",
"J+	c #939D9E",
"K+	c #8C8889",
"L+	c #785454",
"M+	c #7E3A37",
"N+	c #BF6157",
"O+	c #F99186",
"P+	c #FFA79C",
"Q+	c #FFB0A6",
"R+	c #FFB4AD",
"S+	c #FFAAA5",
"T+	c #FF9E94",
"U+	c #F58D82",
"V+	c #C16057",
"W+	c #833531",
"X+	c #7A4E4F",
"Y+	c #99868C",
"Z+	c #9F9EA6",
"`+	c #9DA4AC",
" @	c #A5A6AA",
".@	c #A2A2A0",
"+@	c #A7ACA8",
"@@	c #9CA6A7",
"#@	c #909092",
"$@	c #7F6767",
"%@	c #5F2F2D",
"&@	c #833E39",
"*@	c #CA7D77",
"=@	c #E9A49F",
"-@	c #F3B2AE",
";@	c #F8B8B6",
">@	c #FCB7B2",
",@	c #EFA099",
"'@	c #CA7A73",
")@	c #8A3F39",
"!@	c #662A29",
"~@	c #806061",
"{@	c #92868A",
"]@	c #9999A1",
"^@	c #9A9FA5",
"/@	c #9FA0A4",
"(@	c #ADADAD",
"_@	c #ACACAC",
":@	c #A6A0A4",
"<@	c #96878A",
"[@	c #775E62",
"}@	c #5D3A3E",
"|@	c #5F383B",
"1@	c #7D565B",
"2@	c #9D7679",
"3@	c #BE9495",
"4@	c #A47877",
"5@	c #7E514E",
"6@	c #653938",
"7@	c #643E3D",
"8@	c #795B5B",
"9@	c #927F81",
"0@	c #A0979A",
"a@	c #A3A4A8",
"b@	c #A6A6A8",
"c@	c #A4A6A5",
"d@	c #A6A6A6",
"e@	c #A6A4A5",
"f@	c #A7A1A3",
"g@	c #9C9396",
"h@	c #84787C",
"i@	c #67585D",
"j@	c #514046",
"k@	c #49363C",
"l@	c #4A3339",
"m@	c #482B2D",
"n@	c #462A29",
"o@	c #482E2F",
"p@	c #553F41",
"q@	c #6D5B5B",
"r@	c #867A7C",
"s@	c #9C9394",
"t@	c #A6A2A3",
"u@	c #A5A3A6",
"v@	c #A4A4A6",
"w@	c #A6ADA6",
"x@	c #A8ADA7",
"y@	c #AAACA7",
"z@	c #A7A9A4",
"A@	c #A8A7A3",
"B@	c #9E9996",
"C@	c #918987",
"D@	c #7E7272",
"E@	c #695D5D",
"F@	c #5E4E4E",
"G@	c #584443",
"H@	c #5E4B47",
"I@	c #6B5957",
"J@	c #7D6D6D",
"K@	c #8F8482",
"L@	c #9E9596",
"M@	c #A39F9E",
"N@	c #A4A2A3",
"O@	c #9AA19A",
"P@	c #9A9F99",
"Q@	c #9FA19C",
"R@	c #A0A19C",
"S@	c #A09F9B",
"T@	c #9F9B98",
"U@	c #999491",
"V@	c #928A88",
"W@	c #8B8381",
"X@	c #887E7D",
"Y@	c #8B807C",
"Z@	c #8D7F7C",
"`@	c #8E837F",
" #	c #928A87",
".#	c #989390",
"+#	c #9C9B99",
"@#	c #9F9F9F",
"##	c #9FA1A0",
"$#	c #A1A2A4",
"%#	c #9E9FA1",
"&#	c #A4A8A9",
"*#	c #A3A7A8",
"=#	c #A4A5A7",
"-#	c #A7A8AA",
";#	c #AAAAAC",
">#	c #ACA7AB",
",#	c #A7A1A5",
"'#	c #A59CA1",
")#	c #A39A9F",
"!#	c #A29D9A",
"~#	c #A29D99",
"{#	c #A19E99",
"]#	c #A2A19D",
"^#	c #A5A6A1",
"/#	c #A7ABAA",
"(#	c #A6A8A7",
"_#	c #A9AAAC",
":#	c #A8A9AB",
"<#	c #A9A7AA",
"[#	c #ADA8AC",
"}#	c #ADA7AB",
"|#	c #ACA6AA",
"1#	c #AAA4A6",
"2#	c #A9A8A4",
"3#	c #A8A9A4",
"4#	c #A7A8A3",
"5#	c #A6A8A5",
"6#	c #A3A8A4",
"7#	c #A2A7A3",
"8#	c #9FA5A5",
"9#	c #A7A7A7",
"0#	c #A9ABAA",
"a#	c #A5A5A5",
"b#	c #A7A5A6",
"c#	c #A9A7A8",
"d#	c #ADA9AA",
"e#	c #ACA8A9",
"f#	c #AAA6A5",
"g#	c #A7A7A5",
"h#	c #A5A7A4",
"i#	c #A3A9A7",
"j#	c #A5ABA9",
"k#	c #A7ADAB",
"l#	c #A8ACAB",
"m#	c #ABAFAE",
"n#	c #A2A4A1",
"o#	c #A3A5A2",
"p#	c #A5A5A3",
"q#	c #A4A4A2",
"r#	c #A4A3A1",
"s#	c #A3A2A0",
"t#	c #A4A4A4",
"u#	c #A3A5A4",
"v#	c #9FA3A2",
"w#	c #9AA09E",
"x#	c #989C9B",
"y#	c #9D9F9E",
". + @ # $ % & * = - ; > , ' ) ! ~ { ] ^ / ( ",
"_ _ : < [ } | 1 2 3 4 5 6 7 8 9 0 a b ) c d ",
"e f g h } i j k l m n o p q r s & t u v w x ",
"y z z A B x C D E F G H I J K L M N O P Q R ",
"S T U V W X Y Z `  ...+.@.#.$.%.&.*.=.-.;.>.",
",.'.).!.~.{.].^./.(._.:.<.[.}.|.1.2.3.4.5.6.",
"7.8.9.0.a.b.c.d.e.f.g.h.i.j.k.l.m.n.o.p.A y ",
"q.r.s.t.u.v.w.x.y.z.A.B.C.D.E.F.G.H.I.J.K.L.",
"M.N.O.P.Q.R.S.T.U.V.W.X.Y.Z.`. +.+++@+#+$+%+",
"&+*+8.=+Q.-+;+>+,+'+)+!+~+{+]+^+/+(+_+:+<+[+",
"}+|+1+2+3+4+5+6+7+8+9+0+a+b+c+d+e+f+g+h+i+j+",
"k+l+m+n+o+p+q+r+s+t+u+v+w+x+y+z+A+B+C+D+E+F+",
"G+H+I+J+K+L+M+N+O+P+Q+R+S+T+U+V+W+X+Y+Z+`+ @",
"6..@+@@@#@$@%@&@*@=@-@;@>@,@'@)@!@~@{@]@^@/@",
"8 (@_@4.:@<@[@}@|@1@2@3@4@5@6@7@8@9@0@) a@b@",
"c@d@e@!.f@g@h@i@j@k@l@m@n@o@p@q@r@s@t@u@6.v@",
"w@x@y@z@A@q.B@C@D@E@F@G@H@I@J@K@L@M@N@v@-.V ",
"O@O@P@Q@R@S@T@U@V@W@X@Y@Z@`@ #.#+#@###$#%#$#",
"&#*#=#-#;#W >#,#'#)#2+!#~#{#]#^#U /#/#&#K.(#",
"_#:#:#b@b@4.<#[#}#|#1#2#3#4#5#6#7#L.L.8#A k+",
"9#(#0#0#9#a#b#c#d#e#f#g#5#h#6#6#i#j#k#; l#m#",
"n#o#I+7#7#h#h#p#q#r#s#q#t#o#u#v#v#y v#w#x#y#"};
