/* XPM */
static char * stuck_xpm[] = {
"22 22 391 2",
"  	c None",
". 	c #AAAFAE",
"+ 	c #AEB0B1",
"@ 	c #B0B0B1",
"# 	c #ACAEAF",
"$ 	c #A9AEAD",
"% 	c #A8ADAA",
"& 	c #A7ADA6",
"* 	c #B5B8B3",
"= 	c #AEB1AC",
"- 	c #A1A4A2",
"; 	c #A6A9A7",
"> 	c #ABABAB",
", 	c #A9A9A9",
"' 	c #ADADAD",
") 	c #ABACAC",
"! 	c #AAAFAC",
"~ 	c #ACB3AC",
"{ 	c #A4A9A8",
"] 	c #A8ADAC",
"^ 	c #ADAEAE",
"/ 	c #ACAAA9",
"( 	c #A8AEA7",
"_ 	c #A3AAA4",
": 	c #A9B0AA",
"< 	c #A2A7A4",
"[ 	c #9FA2A0",
"} 	c #A4A7A5",
"| 	c #AEAEAD",
"1 	c #ADADAC",
"2 	c #A8A6A5",
"3 	c #A7A2A2",
"4 	c #A1A1A1",
"5 	c #A2A5A3",
"6 	c #9EA19F",
"7 	c #9DA29F",
"8 	c #A7ACAB",
"9 	c #ADB0AE",
"0 	c #B1B0AC",
"a 	c #AEAAA7",
"b 	c #B4B0AD",
"c 	c #B7B9B0",
"d 	c #ABAEA9",
"e 	c #AAABAB",
"f 	c #6F6F70",
"g 	c #434042",
"h 	c #272426",
"i 	c #0B0607",
"j 	c #110C0D",
"k 	c #484344",
"l 	c #797475",
"m 	c #A8A1A2",
"n 	c #BBB4B4",
"o 	c #B5B0B0",
"p 	c #ACA7A7",
"q 	c #B2B1B1",
"r 	c #B3B3B3",
"s 	c #A3A8A7",
"t 	c #AAAAA9",
"u 	c #A8A5A3",
"v 	c #A8A09D",
"w 	c #B3ABA8",
"x 	c #ABACA7",
"y 	c #8B908D",
"z 	c #3D4046",
"A 	c #464951",
"B 	c #797B84",
"C 	c #B2B4BB",
"D 	c #C3C3C8",
"E 	c #B8B9BD",
"F 	c #858487",
"G 	c #3D3C3F",
"H 	c #545055",
"I 	c #848183",
"J 	c #AFAAAC",
"K 	c #AAA5A6",
"L 	c #A2A1A1",
"M 	c #A8A8A8",
"N 	c #A0A2A3",
"O 	c #B0B1B1",
"P 	c #B7B2B3",
"Q 	c #B4ACAB",
"R 	c #B4A9A9",
"S 	c #B8AFB0",
"T 	c #959595",
"U 	c #555D60",
"V 	c #35444E",
"W 	c #788995",
"X 	c #C4D6DF",
"Y 	c #DAEBF3",
"Z 	c #D6E7ED",
"` 	c #DDEEF4",
" .	c #C4D5DB",
"..	c #8C9AA1",
"+.	c #343F45",
"@.	c #4B5056",
"#.	c #999A9E",
"$.	c #B5B5B6",
"%.	c #A8A5A7",
"&.	c #AFAFAF",
"*.	c #ABADAE",
"=.	c #AEAEAE",
"-.	c #B4ABAC",
";.	c #B2ABAD",
">.	c #ABA4AB",
",.	c #696F74",
"'.	c #0C2027",
").	c #486E7B",
"!.	c #6B97A4",
"~.	c #8EBDC7",
"{.	c #99C5CE",
"].	c #94C4CB",
"^.	c #98C6CD",
"/.	c #89B5BE",
"(.	c #6F96A0",
"_.	c #4A6973",
":.	c #182C35",
"<.	c #5F6A70",
"[.	c #9DA1A4",
"}.	c #9B9D9E",
"|.	c #A5A5A6",
"1.	c #A8A3A3",
"2.	c #A7A2A3",
"3.	c #A8A4A9",
"4.	c #9396A0",
"5.	c #1F2D38",
"6.	c #2A525D",
"7.	c #327885",
"8.	c #2F8892",
"9.	c #4198A0",
"0.	c #479EA4",
"a.	c #449CA1",
"b.	c #4CA2A9",
"c.	c #489BA5",
"d.	c #3E8693",
"e.	c #2F6B78",
"f.	c #2A5963",
"g.	c #19333A",
"h.	c #94A1A5",
"i.	c #999EA0",
"j.	c #A5A5A5",
"k.	c #A4A4A4",
"l.	c #B1B2B2",
"m.	c #B1B0B0",
"n.	c #AAAAAB",
"o.	c #A7A9B0",
"p.	c #8D97A0",
"q.	c #142F3D",
"r.	c #2F6676",
"s.	c #22808B",
"t.	c #2499A1",
"u.	c #39AEB2",
"v.	c #3FB5B6",
"w.	c #3CB1B5",
"x.	c #3BAFB6",
"y.	c #38A7B1",
"z.	c #2B8D9C",
"A.	c #338492",
"B.	c #296572",
"C.	c #092E38",
"D.	c #869C9F",
"E.	c #9DA5A6",
"F.	c #A9A8A8",
"G.	c #AFB0B0",
"H.	c #A4A6A7",
"I.	c #9FA7AC",
"J.	c #788B95",
"K.	c #072B3C",
"L.	c #3A7D8D",
"M.	c #2B9AA4",
"N.	c #31B0B8",
"O.	c #41C3C8",
"P.	c #48CDCF",
"Q.	c #45C7CC",
"R.	c #43C4CC",
"S.	c #3FBDC8",
"T.	c #37A7B7",
"U.	c #3D9DAC",
"V.	c #39808C",
"W.	c #0A363F",
"X.	c #789093",
"Y.	c #9CA4A5",
"Z.	c #A6A6A5",
"`.	c #A7A5A4",
" +	c #AFAFAE",
".+	c #A6A7A7",
"++	c #A0A8AD",
"@+	c #718792",
"#+	c #0C3747",
"$+	c #4D97A6",
"%+	c #43AFBC",
"&+	c #44C5CD",
"*+	c #50D2D7",
"=+	c #5EE3E5",
"-+	c #5FE3E8",
";+	c #55DDE2",
">+	c #4ED4DD",
",+	c #4BC0CE",
"'+	c #47A9B8",
")+	c #48909D",
"!+	c #144249",
"~+	c #6C8487",
"{+	c #989F9F",
"]+	c #A6A4A3",
"^+	c #A3A4A4",
"/+	c #A8A7A3",
"(+	c #A1A1A0",
"_+	c #9CA0A3",
":+	c #6D7F88",
"<+	c #16404D",
"[+	c #4C909F",
"}+	c #5AC1CD",
"|+	c #5ED3DD",
"1+	c #67DEE2",
"2+	c #7AF3F5",
"3+	c #7CF9FB",
"4+	c #6CEAEF",
"5+	c #62DFE7",
"6+	c #5BCDD8",
"7+	c #5EB9C7",
"8+	c #498E98",
"9+	c #1D464C",
"0+	c #6C8083",
"a+	c #9CA1A0",
"b+	c #A9A7A6",
"c+	c #AAA8A7",
"d+	c #B1AEAA",
"e+	c #B0ACA9",
"f+	c #A6A6A7",
"g+	c #7D8A90",
"h+	c #355562",
"i+	c #46818F",
"j+	c #6BCBD6",
"k+	c #76EAF1",
"l+	c #7CF0F1",
"m+	c #87FCFA",
"n+	c #89FEFA",
"o+	c #7EF9F8",
"p+	c #7AF2F7",
"q+	c #71DFE6",
"r+	c #71C9D4",
"s+	c #41848C",
"t+	c #2B5254",
"u+	c #7B8B8C",
"v+	c #A5A6A6",
"w+	c #A9A6A4",
"x+	c #ACADAD",
"y+	c #B0AAA5",
"z+	c #B7ABA6",
"A+	c #AAA1A2",
"B+	c #878890",
"C+	c #4E616D",
"D+	c #2D616E",
"E+	c #52B3BB",
"F+	c #75EEF0",
"G+	c #88FBF7",
"H+	c #8CFDF6",
"I+	c #8BFEF4",
"J+	c #89FEF4",
"K+	c #87FEFC",
"L+	c #76E6E7",
"M+	c #55B1B4",
"N+	c #2F6E72",
"O+	c #436766",
"P+	c #8B9896",
"Q+	c #A5A5A4",
"R+	c #AEA8A3",
"S+	c #B9ADAA",
"T+	c #ADA2A2",
"U+	c #949196",
"V+	c #656E76",
"W+	c #2A4F59",
"X+	c #2D7B7E",
"Y+	c #71D4D3",
"Z+	c #95F6F0",
"`+	c #9CFBF1",
" @	c #9BFCF2",
".@	c #99FCF1",
"+@	c #93F4EE",
"@@	c #75CECD",
"#@	c #2E7477",
"$@	c #215154",
"%@	c #5D7474",
"&@	c #A09E9D",
"*@	c #B0ABAC",
"=@	c #AAA5A5",
"-@	c #ABA6A6",
";@	c #9C9C9D",
">@	c #7F8284",
",@	c #5B6D6F",
"'@	c #224C4D",
")@	c #275E5A",
"!@	c #4B867E",
"~@	c #7DBAB1",
"{@	c #92D1C6",
"]@	c #78B7AF",
"^@	c #48817B",
"/@	c #2B5A59",
"(@	c #2E4F4F",
"_@	c #5D6A6E",
":@	c #8A8B8F",
"<@	c #A29CA3",
"[@	c #AAA3AA",
"}@	c #ADA9AE",
"|@	c #AAADAF",
"1@	c #B0B0B0",
"2@	c #B1B1B1",
"3@	c #9C9C9C",
"4@	c #848988",
"5@	c #5C6B6B",
"6@	c #3E5755",
"7@	c #24433F",
"8@	c #193C37",
"9@	c #153C35",
"0@	c #1A3F39",
"a@	c #2A4945",
"b@	c #3E5554",
"c@	c #626A6D",
"d@	c #818085",
"e@	c #A199A2",
"f@	c #AEA3AD",
"g@	c #AEA7AE",
"h@	c #ABAAAF",
"i@	c #A9ADB0",
"j@	c #A7A7A7",
"k@	c #9A9C9D",
"l@	c #848789",
"m@	c #727A7B",
"n@	c #5C6969",
"o@	c #485D5B",
"p@	c #3E5552",
"q@	c #405754",
"r@	c #536866",
"s@	c #6D7A7A",
"t@	c #8A8D8F",
"u@	c #9D999E",
"v@	c #AEA7AD",
"w@	c #B0A9AF",
"x@	c #ABA7AC",
"y@	c #AAACAF",
"z@	c #A7AFB0",
"A@	c #9E999C",
"B@	c #949193",
"C@	c #87898C",
"D@	c #818887",
"E@	c #7A8585",
"F@	c #778280",
"G@	c #808889",
"H@	c #8B908F",
"I@	c #959497",
"J@	c #A19C9F",
"K@	c #A7A0A6",
"L@	c #A5A0A3",
"M@	c #A19DA2",
"N@	c #A1A3A4",
"O@	c #9EA3A5",
"P@	c #ACACAC",
"Q@	c #AAAAAA",
"R@	c #AAA9A9",
"S@	c #B6AFB1",
"T@	c #AEA7A9",
"U@	c #A49FA2",
"V@	c #9F9E9E",
"W@	c #9C9D9D",
"X@	c #9FA1A2",
"Y@	c #A6A6A6",
"Z@	c #A5A2A4",
"`@	c #ABA6A9",
" #	c #A9A4A5",
".#	c #A7A8A8",
"+#	c #A3AAAA",
"@#	c #ADA8A9",
"##	c #B1AAAC",
"$#	c #B3AEAF",
"%#	c #B5B0B1",
"&#	c #AFAEAE",
"*#	c #AEADAD",
"=#	c #B3B2B2",
"-#	c #AEAFAF",
";#	c #ABB0AF",
">#	c #B0B0AF",
",#	c #ACACAB",
"'#	c #A8A8A7",
")#	c #A4A4A3",
"!#	c #A7AAA8",
"~#	c #A9A9A8",
"{#	c #A5A8A6",
"]#	c #A9AEAB",
"^#	c #ABAEAC",
"/#	c #A9ACAA",
"(#	c #A8ABA9",
". . + @ # $ % & * = - ; > , ' > ) ) $ % ! ~ ",
"{ ] ^ / / ( _ : < [ } | 1 2 3 2 / 4 4 5 6 7 ",
"8 9 0 a b c d e f g h i j k l m n o p q r ) ",
"s t u v w x y z A B C D E F G H I J K L M N ",
"O P Q R S T U V W X Y Z `  ...+.@.#.$.%.&.*.",
"=.o -.;.>.,.'.).!.~.{.].^./.(._.:.<.[.}., |.",
"M 1.2.3.4.5.6.7.8.9.0.a.b.c.d.e.f.g.h.i.j.k.",
"l.m.n.o.p.q.r.s.t.u.v.w.x.y.z.A.B.C.D.E.M F.",
"G.&.H.I.J.K.L.M.N.O.P.Q.R.S.T.U.V.W.X.Y.Z.`.",
"^  +.+++@+#+$+%+&+*+=+-+;+>+,+'+)+!+~+{+]+`.",
"^+/+(+_+:+<+[+}+|+1+2+3+4+5+6+7+8+9+0+a+b+c+",
"^ d+e+f+g+h+i+j+k+l+m+n+o+p+q+r+s+t+u+v+w+j.",
"x+y+z+A+B+C+D+E+F+G+H+I+J+K+L+M+N+O+P+Q+w+j.",
"' R+S+T+U+V+W+X+Y+Z+`+ @.@+@@@#@$@%@{+&@*@*.",
"M 2 =@-@;@>@,@'@)@!@~@{@]@^@/@(@_@:@<@[@}@|@",
"1@1@2@r =.3@4@5@6@7@8@9@0@a@b@c@d@e@f@g@h@i@",
"&.=.=.2@1@j@k@l@m@n@o@p@q@r@s@t@u@v@w@x@y@z@",
", M M M M j.L A@B@C@D@E@F@G@H@I@J@K@L@M@N@O@",
"P@P@P@P@Q@, R@S@T@U@V@;@W@X@Y@Z@K `@ #f+.#+#",
"=.&.2@2@&.&.q @###$#%#q &#' *#q =#q m.1@-#;#",
"=.' 1@2@=.=.2@># +,#'#)#Q+!#| t t t ~#'#'#{#",
"2@&.2@1@' P@^ ]#! ! ]#^#^#/#!#!#!#(#(#t t ,#"};
