/* XPM */
static char * test2_xpm[] = {
"22 22 435 2",
"  	c None",
". 	c #B0ACAB",
"+ 	c #B0AAAC",
"@ 	c #B3AFB0",
"# 	c #ABADAA",
"$ 	c #A8AEAA",
"% 	c #ABB0B3",
"& 	c #A0A3A8",
"* 	c #A19FA4",
"= 	c #B4AEB0",
"- 	c #ABA29B",
"; 	c #B8B2A6",
"> 	c #B4B0A4",
", 	c #ACACA2",
"' 	c #ACACAA",
") 	c #A3A4A6",
"! 	c #A0A1A5",
"~ 	c #ADB1B4",
"{ 	c #A9ADAC",
"] 	c #A9ABAA",
"^ 	c #ADADAD",
"/ 	c #A7A8AA",
"( 	c #A6A5A1",
"_ 	c #A7A1A1",
": 	c #A8A4A5",
"< 	c #A2A4A1",
"[ 	c #9FA5A3",
"} 	c #A4AAAA",
"| 	c #A7A3A4",
"1 	c #ACA4A1",
"2 	c #AFA59B",
"3 	c #A89F90",
"4 	c #A59F8F",
"5 	c #A39F93",
"6 	c #A49F9B",
"7 	c #ABA7A8",
"8 	c #ACA7AB",
"9 	c #9E9CA1",
"0 	c #9FA0A2",
"a 	c #9CA0A1",
"b 	c #A0A1A3",
"c 	c #9FA3A4",
"d 	c #ABACA7",
"e 	c #B8B4B3",
"f 	c #A8A7A5",
"g 	c #ADAFAC",
"h 	c #ACB1AD",
"i 	c #A7A9A8",
"j 	c #B9B8B6",
"k 	c #B1A7A6",
"l 	c #7A6C6B",
"m 	c #4D3E37",
"n 	c #2F2118",
"o 	c #1F1009",
"p 	c #2F211E",
"q 	c #524444",
"r 	c #7F6F72",
"s 	c #A9989E",
"t 	c #C0B5B9",
"u 	c #A8A9AB",
"v 	c #A5ABAB",
"w 	c #A5A9AA",
"x 	c #A7ABAE",
"y 	c #AAB0B0",
"z 	c #A0A29D",
"A 	c #A6A5A3",
"B 	c #A4A3A1",
"C 	c #9F9F9D",
"D 	c #A5A4A2",
"E 	c #A8A09E",
"F 	c #887A77",
"G 	c #67524D",
"H 	c #634A43",
"I 	c #AE968C",
"J 	c #D3BBB1",
"K 	c #E4CEC3",
"L 	c #D4BBB6",
"M 	c #A28683",
"N 	c #624444",
"O 	c #664647",
"P 	c #A1888B",
"Q 	c #A5A1A0",
"R 	c #A3A7A6",
"S 	c #9EA2A3",
"T 	c #9B9C9E",
"U 	c #9E9FA1",
"V 	c #ACAEAB",
"W 	c #ABABA9",
"X 	c #B5B4B2",
"Y 	c #AFABAC",
"Z 	c #B7ADAC",
"` 	c #B29D9A",
" .	c #75574F",
"..	c #6E4738",
"+.	c #BB907F",
"@.	c #F4CEB9",
"#.	c #FFE2CC",
"$.	c #FFE2CE",
"%.	c #FED4C4",
"&.	c #C19386",
"*.	c #7E4C45",
"=.	c #68413C",
"-.	c #A39894",
";.	c #ADADAB",
">.	c #B1B1B1",
",.	c #A9A7AA",
"'.	c #A8A6A7",
").	c #A1A3A0",
"!.	c #A9ABA8",
"~.	c #9F9E9C",
"{.	c #AEA5A8",
"].	c #AB9798",
"^.	c #7B5950",
"/.	c #693827",
"(.	c #9E6547",
"_.	c #DBA078",
":.	c #E7B485",
"<.	c #F3C895",
"[.	c #F5CB99",
"}.	c #ECC091",
"|.	c #EBB68E",
"1.	c #D99D7B",
"2.	c #A8654B",
"3.	c #6C3423",
"4.	c #816B60",
"5.	c #99918E",
"6.	c #A9A3A3",
"7.	c #A39FA0",
"8.	c #A49E9E",
"9.	c #A0A2A1",
"0.	c #A5A7A6",
"a.	c #A5A3A4",
"b.	c #A79B9F",
"c.	c #B59998",
"d.	c #653425",
"e.	c #9D5D3A",
"f.	c #C2773E",
"g.	c #D68E42",
"h.	c #D9A049",
"i.	c #D09D41",
"j.	c #D4A74A",
"k.	c #D8A64F",
"l.	c #D39646",
"m.	c #D58B4A",
"n.	c #C67540",
"o.	c #97512D",
"p.	c #5F3A28",
"q.	c #A4938C",
"r.	c #AFA3A3",
"s.	c #A39A9B",
"t.	c #A8A2A2",
"u.	c #ABABAD",
"v.	c #A0A4A5",
"w.	c #AAA8A9",
"x.	c #A99A9D",
"y.	c #A7867F",
"z.	c #6B3215",
"A.	c #B66D38",
"B.	c #D58331",
"C.	c #E1922D",
"D.	c #E3A534",
"E.	c #E1AC38",
"F.	c #E2B33D",
"G.	c #E3AF3F",
"H.	c #E09F37",
"I.	c #DF9034",
"J.	c #DA8034",
"K.	c #C3733E",
"L.	c #65371D",
"M.	c #A18881",
"N.	c #AEA09F",
"O.	c #A89FA0",
"P.	c #ABA7A4",
"Q.	c #A9A9AB",
"R.	c #A1A5A6",
"S.	c #A9A9A9",
"T.	c #A99B9A",
"U.	c #9F7E6D",
"V.	c #7B4215",
"W.	c #D58B42",
"X.	c #EE9B35",
"Y.	c #F5A62F",
"Z.	c #FBBD42",
"`.	c #F5C245",
" +	c #EEC046",
".+	c #EFBD44",
"++	c #FAB943",
"@+	c #F6A839",
"#+	c #EC9430",
"$+	c #DD8D44",
"%+	c #6E3919",
"&+	c #997B73",
"*+	c #A59693",
"=+	c #A19D9C",
"-+	c #A1A29D",
";+	c #A4A4A6",
">+	c #A7ABAC",
",+	c #A2A2A2",
"'+	c #A49B96",
")+	c #9C806B",
"!+	c #83501B",
"~+	c #DE9A47",
"{+	c #FBAF3F",
"]+	c #FFB83A",
"^+	c #FFD153",
"/+	c #FFD45B",
"(+	c #F9D25B",
"_+	c #FCCF58",
":+	c #FFCA4F",
"<+	c #FFBE45",
"[+	c #F7A736",
"}+	c #DE943F",
"|+	c #824D2B",
"1+	c #9E7D78",
"2+	c #A79998",
"3+	c #A6A4A5",
"4+	c #A1A6A2",
"5+	c #ABABAB",
"6+	c #ABAFAE",
"7+	c #A0A09E",
"8+	c #A29D99",
"9+	c #917F69",
"0+	c #784F1B",
"a+	c #D09947",
"b+	c #FCC050",
"c+	c #FFC74E",
"d+	c #FED664",
"e+	c #FDDF71",
"f+	c #FFE97E",
"g+	c #FFE176",
"h+	c #FCCF5C",
"i+	c #FFC854",
"j+	c #F9BA48",
"k+	c #D89C44",
"l+	c #7F5231",
"m+	c #967A76",
"n+	c #A2999A",
"o+	c #A6A7A9",
"p+	c #A3A9A7",
"q+	c #AEB0AF",
"r+	c #A8AAA7",
"s+	c #A4A6A5",
"t+	c #8C8072",
"u+	c #705327",
"v+	c #BB9147",
"w+	c #F9CD64",
"x+	c #FFE16D",
"y+	c #FFEC7C",
"z+	c #FCEE81",
"A+	c #FFF78E",
"B+	c #FFF186",
"C+	c #FFE06D",
"D+	c #FFDE6B",
"E+	c #F7C759",
"F+	c #C49744",
"G+	c #6F4E2F",
"H+	c #887672",
"I+	c #99979A",
"J+	c #A0A5A9",
"K+	c #A2A8A8",
"L+	c #AAACA9",
"M+	c #A7A9A4",
"N+	c #9FA2A9",
"O+	c #938D8D",
"P+	c #766247",
"Q+	c #8E7137",
"R+	c #CFB053",
"S+	c #FFE878",
"T+	c #FFFE89",
"U+	c #FDFE87",
"V+	c #FCFF88",
"W+	c #FFFD85",
"X+	c #FFF47C",
"Y+	c #FFE171",
"Z+	c #CFAD4B",
"`+	c #8E702A",
" @	c #716044",
".@	c #908886",
"+@	c #A1A8B0",
"@@	c #A8A9AE",
"#@	c #A7ACA6",
"$@	c #ABAEA7",
"%@	c #ABADAC",
"&@	c #9B9EA7",
"*@	c #9D9AA1",
"=@	c #786C60",
"-@	c #56441E",
";@	c #8A7732",
">@	c #DCCE75",
",@	c #F4F490",
"'@	c #F8FF93",
")@	c #FBFF94",
"!@	c #FEFF93",
"~@	c #FAF18A",
"{@	c #D5C46A",
"]@	c #927C33",
"^@	c #564412",
"/@	c #79715E",
"(@	c #969694",
"_@	c #A2A7AB",
":@	c #9CA0A9",
"<@	c #A0A1A6",
"[@	c #A7ADA3",
"}@	c #AEB1AA",
"|@	c #AAA9AF",
"1@	c #A4A1A8",
"2@	c #8E8586",
"3@	c #6A6054",
"4@	c #594E2E",
"5@	c #58501F",
"6@	c #949352",
"7@	c #BDBF74",
"8@	c #DADD90",
"9@	c #C8C87E",
"0@	c #918D4D",
"a@	c #59531F",
"b@	c #534B26",
"c@	c #6E6852",
"d@	c #918E87",
"e@	c #9C9E9D",
"f@	c #AAAEB1",
"g@	c #ABAAAF",
"h@	c #A8AEA4",
"i@	c #ACAFA8",
"j@	c #ABA9AC",
"k@	c #A8A6AB",
"l@	c #9D989E",
"m@	c #868080",
"n@	c #6C655B",
"o@	c #5A553F",
"p@	c #3E3C16",
"q@	c #3C3B0D",
"r@	c #373606",
"s@	c #38370B",
"t@	c #3F3F1B",
"u@	c #4B4B33",
"v@	c #656658",
"w@	c #878681",
"x@	c #919390",
"y@	c #999D9C",
"z@	c #A2A6A5",
"A@	c #A3A5A4",
"B@	c #A9ACA3",
"C@	c #ABACA6",
"D@	c #AEADAB",
"E@	c #ADABAC",
"F@	c #AAA5A9",
"G@	c #A39F9E",
"H@	c #8C8783",
"I@	c #716D62",
"J@	c #6A6756",
"K@	c #5F5D48",
"L@	c #54533E",
"M@	c #5A5945",
"N@	c #6A6B5D",
"O@	c #7A7A72",
"P@	c #8A8A88",
"Q@	c #9B9D9C",
"R@	c #A1A7A3",
"S@	c #A5ACA5",
"T@	c #A8AFA8",
"U@	c #A6ADA6",
"V@	c #A1A49B",
"W@	c #A2A19D",
"X@	c #A7A6A4",
"Y@	c #A09E9F",
"Z@	c #A2A19F",
"`@	c #999896",
" #	c #8A8985",
".#	c #7E7D78",
"+#	c #7F807A",
"@#	c #82837E",
"##	c #858583",
"$#	c #858688",
"%#	c #8E8F93",
"&#	c #989C9F",
"*#	c #9BA19D",
"=#	c #9BA29B",
"-#	c #9AA19A",
";#	c #A7A8A2",
">#	c #A9A8A4",
",#	c #ADA9A8",
"'#	c #ABAAA8",
")#	c #A5A5A3",
"!#	c #A5A7A4",
"~#	c #9FA1A0",
"{#	c #9D9F9E",
"]#	c #A1A2A4",
"^#	c #A2A6A9",
"/#	c #A6AAAD",
"(#	c #A5A6A8",
"_#	c #AFAEAA",
":#	c #B1B0AE",
"<#	c #AFABAA",
"[#	c #ADACAA",
"}#	c #B1B1AF",
"|#	c #A9AEAA",
"1#	c #AAAEAD",
"2#	c #A5A9A8",
"3#	c #A6AAA9",
"4#	c #ABAFB0",
"5#	c #ACB0B1",
"6#	c #B0B1B3",
"7#	c #B1B2B6",
"8#	c #ADAEB2",
"9#	c #A8A8AA",
"0#	c #ACACAE",
"a#	c #ACADAF",
"b#	c #A9A7A8",
"c#	c #A4A4A4",
"d#	c #A8A8A8",
"e#	c #AAACAB",
"f#	c #A7A9A6",
"g#	c #A2A7A3",
"h#	c #A1A6A0",
"i#	c #A3AAA2",
"j#	c #A8ADA6",
"k#	c #A0A29F",
"l#	c #A7A7A9",
"m#	c #A7A5A8",
"n#	c #ACAAAB",
"o#	c #AFADB0",
"p#	c #B0AEB1",
"q#	c #AEACAF",
"r#	c #A9AEA8",
"s#	c #A5AAA3",
"t#	c #A3A8A1",
"u#	c #ACAEA9",
"v#	c #A6A6A4",
"w#	c #A8A6A9",
"x#	c #ABA9AE",
"y#	c #A9A4AA",
"z#	c #ABA9AA",
"A#	c #A9A9A7",
"B#	c #A7A7A5",
". + @ # $ % & * = - ; > , ' ) ! ~ { ] ^ ^ / ",
"( _ : < [ } / | 1 2 3 4 5 6 7 8 9 0 a b ) c ",
"d e f g h i j k l m n o p q r s t u v w x y ",
"z A B C D E F G H I J K L M N O P Q R S T U ",
"V W X Y Z `  ...+.@.#.#.$.%.&.*.=.-.;.>.,.'.",
").!.~.{.].^./.(._.:.<.[.}.|.1.2.3.4.5.6.7.8.",
"9.0.a.b.c.d.e.f.g.h.i.j.k.l.m.n.o.p.q.r.s.t.",
"u.v.w.x.y.z.A.B.C.D.E.F.G.H.I.J.K.L.M.N.O.P.",
"Q.R.S.T.U.V.W.X.Y.Z.`. +.+++@+#+$+%+&+*+=+-+",
";+>+,+'+)+!+~+{+]+^+/+(+_+:+<+[+}+|+1+2+3+4+",
"5+6+7+8+9+0+a+b+c+d+e+f+g+h+i+j+k+l+m+n+o+p+",
"q+r+s+,+t+u+v+w+x+y+z+A+B+C+D+E+F+G+H+I+J+K+",
"L+M+] N+O+P+Q+R+S+T+U+V+W+X+Y+Z+`+ @.@& +@@@",
"#@$@%@&@*@=@-@;@>@,@'@)@!@~@{@]@^@/@(@_@:@<@",
"[@}@5+|@1@2@3@4@5@6@7@8@9@0@a@b@c@d@e@x f@g@",
"h@i@' j@k@l@m@n@o@p@q@r@s@t@u@v@w@x@y@z@z@A@",
"B@C@D@E@,.F@G@H@I@J@K@L@M@N@O@P@Q@R@S@T@U@S@",
"V@W@f X@Y@Y@Z@`@ #.#.#+#@###$#%#&#*#=#=#-#-#",
";#>#,#'#f A )#!#s+!#~#{#0 ]#^#/#f@o+(#(#o+w ",
"_#:#<#[#:#}#g |#1#1#2#3#4#5#6#7#8#Q.9#Q.0#a#",
"b#w.3+c#d#e#f#g#h#U@i#j##@k#,+l#m#w.'.b#n#5+",
"o#p#q#0#u.e#e#L+r#s#t#j#u#v#w#x#y#z#f f A#B#"};
